<svg width="344" height="193" viewBox="0 0 344 193" fill="none" xmlns="http://www.w3.org/2000/svg">
<rect width="344" height="193" fill="#EAE7E3"/>
<path d="M233.015 69.1035L215.586 123.929H195.178L177.417 69.1035H187.235L204.003 121.171H206.761L223.308 69.1035H233.015Z" fill="black"/>
<path d="M142.874 92.7101L164.385 90.6142C163.944 80.686 159.531 75.9425 149.603 75.9425C141.991 75.9425 136.365 79.4726 135.483 88.6285H125.775C126.989 76.1632 135.483 68 149.823 68C165.709 68 174.203 77.8179 174.203 92.5998V115.545H179.104V123.929H172.217C168.025 123.929 165.598 121.502 165.598 117.31V110.36C163.061 118.082 156.663 125.032 143.094 125.032C126.989 125.032 124.562 114.442 124.562 108.705C124.562 99.9908 129.857 93.9236 142.874 92.7101ZM144.639 116.979C156.553 116.979 164.385 108.595 164.385 97.5639L144.528 99.6598C137.799 100.322 134.269 102.197 134.269 107.492C134.269 113.78 138.351 116.979 144.639 116.979Z" fill="black"/>
<path d="M64 72.2549H73.8179V82.4195C76.7963 72.6016 84.4079 68 96.5423 68C108.677 68 116.619 76.1632 116.619 90.9451V123.929H106.801V92.0482C106.801 80.7963 102.499 76.3838 93.1226 76.3838C81.2088 76.3838 73.8179 85.8707 73.8179 100.653V123.929H64V72.2549Z" fill="black"/>
<path d="M256.559 69.1035L237.365 123.929H227.783L246.852 69.1035H256.559Z" fill="black"/>
<path d="M279 69.1035L259.806 123.929H250.224L269.293 69.1035H279Z" fill="black"/>
</svg>
