<svg width="540" height="540" viewBox="0 0 540 540" fill="none" xmlns="http://www.w3.org/2000/svg">
<g clip-path="url(#clip0_646_48241)">
<rect width="540" height="540" fill="#CCEBF9"/>
<rect width="3047" height="3047" transform="translate(-1253 -1254)" fill="#CCEBF9"/>
<path d="M419.069 242.159C419.012 242.027 418.862 241.964 418.73 242.021L343.785 274.111C319.675 275.954 291.755 282.7 263.278 294.482C232.22 307.329 205.597 324.051 186.379 341.513L114.159 372.437C114.027 372.493 113.964 372.644 114.021 372.775C129.431 408.834 163.852 430.904 200.567 432.296C229.37 435.306 268.333 428.678 308.393 412.107C355.556 392.601 392.49 364.173 408.783 337.757C427.933 310.796 433.019 274.794 419.069 242.152V242.159Z" fill="black"/>
<path fill-rule="evenodd" clip-rule="evenodd" d="M418.154 238L419.964 242.212C434.095 275.094 428.947 311.359 409.561 338.521C393.059 365.109 355.803 393.573 308.388 413.076C268.103 429.65 228.854 436.312 199.752 433.296C162.568 431.882 127.707 409.647 112.098 373.322M418.154 238V241.686V238ZM418.154 241.686L343.319 273.554C319.046 275.419 290.988 282.176 262.392 293.942C231.202 306.774 204.433 323.476 185.063 340.949L112.732 371.751C112.136 372.006 111.83 372.7 112.098 373.322" fill="black"/>
<path d="M290.425 369.609C376.446 335.342 434.085 277.201 419.166 239.748C404.246 202.294 322.417 199.711 236.396 233.978C150.375 268.245 92.7354 326.385 107.655 363.839C122.575 401.292 204.404 403.876 290.425 369.609Z" fill="white"/>
<path fill-rule="evenodd" clip-rule="evenodd" d="M110.253 332.928C105.667 344.027 104.919 354.421 108.533 363.493C112.147 372.566 119.837 379.598 130.798 384.503C141.765 389.411 155.95 392.161 172.41 392.681C205.328 393.72 247.161 385.834 290.08 368.737C333 351.64 368.797 328.602 391.983 305.213C403.578 293.518 411.987 281.768 416.575 270.664C421.161 259.565 421.909 249.171 418.295 240.099C414.681 231.026 406.991 223.994 396.03 219.088C385.063 214.18 370.878 211.431 354.418 210.911C321.5 209.872 279.667 217.757 236.748 234.855C193.828 251.952 158.031 274.99 134.845 298.378C123.25 310.074 114.841 321.824 110.253 332.928ZM133.508 297.053C156.916 273.441 192.95 250.276 236.051 233.106C279.153 215.937 321.245 207.981 354.477 209.03C371.092 209.554 385.538 212.331 396.798 217.37C408.064 222.412 416.198 229.748 420.043 239.402C423.889 249.056 423.028 259.975 418.314 271.382C413.603 282.784 405.023 294.734 393.32 306.538C369.912 330.15 333.878 353.316 290.777 370.486C247.675 387.655 205.583 395.611 172.351 394.562C155.736 394.038 141.29 391.261 130.03 386.221C118.764 381.179 110.63 373.844 106.785 364.19C102.939 354.536 103.8 343.617 108.514 332.209C113.225 320.808 121.805 308.858 133.508 297.053Z" fill="black"/>
<path d="M289.993 369.881C222.763 396.707 158.091 400.964 125.968 383.608C117.016 378.773 110.596 372.261 107.349 364.091C92.4411 326.603 150.048 268.412 236.009 234.114C321.977 199.822 403.745 202.415 418.653 239.91C419.781 242.748 420.496 245.706 420.809 248.764C424.671 286.076 369.447 338.189 289.993 369.881Z" fill="white"/>
<path fill-rule="evenodd" clip-rule="evenodd" d="M354.769 210.966C321.759 209.927 279.808 217.779 236.764 234.807C193.723 251.839 157.823 274.788 134.569 298.086C122.94 309.736 114.507 321.441 109.905 332.502C105.305 343.558 104.554 353.911 108.178 362.949L108.178 362.949C111.336 370.83 117.596 377.161 126.434 381.895L126.434 381.895C142.321 390.408 166.393 393.675 195.001 391.444C223.583 389.215 256.581 381.506 290.238 368.187L290.588 369.058L290.238 368.187C330.019 352.451 363.701 331.656 386.937 310.198C398.556 299.47 407.54 288.595 413.375 278.128C419.212 267.657 421.869 257.646 420.926 248.613L420.926 248.613C420.62 245.653 419.923 242.794 418.824 240.052C415.2 231.012 407.489 224.005 396.497 219.117C385.5 214.226 371.276 211.485 354.769 210.966ZM397.268 217.406C408.566 222.43 416.721 229.739 420.578 239.358C421.743 242.265 422.481 245.293 422.804 248.421C423.799 257.955 420.981 268.353 415.026 279.036C409.068 289.723 399.941 300.75 388.222 311.572C364.784 333.216 330.89 354.124 290.937 369.929C257.127 383.308 223.943 391.067 195.149 393.313C166.383 395.557 141.886 392.305 125.538 383.545C116.408 378.654 109.784 372.024 106.424 363.643C102.568 354.026 103.433 343.149 108.161 331.786C112.886 320.428 121.491 308.525 133.228 296.766C156.705 273.245 192.842 250.169 236.065 233.066L236.065 233.066C279.292 215.965 321.503 208.043 354.829 209.092C371.49 209.616 385.977 212.384 397.268 217.406ZM422.804 248.421C422.804 248.421 422.804 248.421 422.804 248.421L421.865 248.517L422.804 248.42C422.804 248.42 422.804 248.421 422.804 248.421Z" fill="black"/>
<path d="M288.363 359.029C226.451 382.353 166.893 386.056 137.311 370.963C129.069 366.76 123.155 361.096 120.164 353.991C106.433 321.395 159.483 270.792 238.648 240.971C317.813 211.149 393.117 213.404 406.841 246.008C407.88 248.476 408.537 251.045 408.825 253.707C412.379 286.154 361.526 331.469 288.356 359.029H288.363Z" fill="white"/>
<path fill-rule="evenodd" clip-rule="evenodd" d="M348.078 220.96C317.673 220.053 279.031 226.918 239.385 241.807C199.738 256.696 166.675 276.758 145.265 297.118C134.557 307.3 126.801 317.522 122.572 327.171C118.346 336.812 117.666 345.816 120.983 353.666L120.983 353.666C123.877 360.519 129.621 366.042 137.755 370.178L137.755 370.178C152.38 377.617 174.549 380.474 200.903 378.524C226.881 376.601 256.821 370.013 287.394 358.652L288.62 358.192C325.262 344.433 356.282 326.254 377.677 307.5C388.375 298.123 396.641 288.623 402.008 279.486C407.376 270.344 409.808 261.626 408.945 253.775L408.945 253.774C408.665 251.199 408.028 248.717 407.022 246.333C403.703 238.473 396.628 232.358 386.506 228.084C376.382 223.811 363.282 221.414 348.078 220.96ZM294.034 358.132H294.137L289.29 359.953C258.142 371.651 227.57 378.436 201.042 380.399C174.542 382.361 151.97 379.519 136.9 371.854C128.486 367.576 122.358 361.764 119.246 354.397C115.672 345.937 116.479 336.378 120.845 326.417C125.208 316.463 133.148 306.043 143.965 295.757C165.602 275.181 198.9 255.001 238.721 240.046C278.543 225.091 317.432 218.164 348.134 219.08C363.483 219.539 376.832 221.959 387.24 226.352C397.649 230.746 405.189 237.148 408.759 245.602L407.89 245.967L408.759 245.602C409.838 248.158 410.52 250.818 410.818 253.572L409.882 253.673L410.818 253.57C410.818 253.571 410.818 253.571 410.818 253.572C411.739 261.956 409.128 271.082 403.634 280.437C398.136 289.797 389.72 299.447 378.92 308.913C358.256 327.026 328.778 344.546 294.034 358.132Z" fill="black"/>
<path fill-rule="evenodd" clip-rule="evenodd" d="M352.841 240.151C325.345 241.715 291.528 249.858 257.93 263.183L257.93 263.183C224.374 276.486 195.164 293.403 172.921 311.284C150.658 329.182 135.46 347.975 129.788 365L128 364.41C133.836 346.893 149.351 327.822 171.738 309.825C194.146 291.811 223.525 274.804 257.233 261.441C290.967 248.062 324.987 239.857 352.734 238.279C366.605 237.491 378.952 238.356 388.927 241.087C398.897 243.817 406.591 248.438 411 255.234L409.418 256.251C405.35 249.982 398.144 245.555 388.428 242.895C378.717 240.236 366.591 239.37 352.841 240.151Z" fill="black"/>
<path d="M279.519 160.442C332.724 185.933 355.221 249.817 329.729 303.021L323.62 315.774C321.923 319.315 317.672 320.812 314.13 319.115L134.172 232.894C130.631 231.197 129.134 226.946 130.831 223.405L136.941 210.652C162.432 157.448 226.315 134.951 279.519 160.442Z" fill="#FEE502"/>
<path fill-rule="evenodd" clip-rule="evenodd" d="M279.11 161.288C226.374 136.022 163.053 158.321 137.786 211.056L131.676 223.809C130.204 226.882 131.503 230.571 134.576 232.043L314.533 318.264C317.606 319.736 321.295 318.437 322.768 315.364L328.878 302.612C354.144 249.877 331.845 186.555 279.11 161.288ZM136.089 210.243C161.804 156.57 226.25 133.875 279.923 159.591C333.596 185.307 356.291 249.752 330.575 303.425L324.465 316.178C322.543 320.188 317.73 321.883 313.72 319.961L133.763 233.74C129.752 231.819 128.057 227.006 129.979 222.995L136.089 210.243Z" fill="black"/>
<path d="M310 178C301.716 178 295 184.716 295 193C295 201.284 301.716 208 310 208C318.284 208 325 201.284 325 193C325 184.716 318.284 178 310 178ZM310 200.596C305.807 200.596 302.404 197.193 302.404 193C302.404 188.807 305.807 185.411 310 185.411C314.193 185.411 317.596 188.807 317.596 193C317.596 197.193 314.193 200.596 310 200.596Z" fill="#D4B3B3"/>
<path fill-rule="evenodd" clip-rule="evenodd" d="M294 193.5C294 184.94 301.164 178 310 178C318.836 178 326 184.94 326 193.5C326 202.06 318.836 209 310 209C301.164 209 294 202.06 294 193.5ZM310 179.857C302.223 179.857 295.917 185.966 295.917 193.5C295.917 201.034 302.223 207.143 310 207.143C317.777 207.143 324.083 201.034 324.083 193.5C324.083 185.966 317.777 179.857 310 179.857ZM310 187.056C306.324 187.056 303.342 189.941 303.342 193.5C303.342 197.06 306.325 199.95 310 199.95C313.675 199.95 316.658 197.06 316.658 193.5C316.658 189.941 313.676 187.056 310 187.056ZM301.425 193.5C301.425 188.913 305.267 185.199 310 185.199C314.733 185.199 318.575 188.913 318.575 193.5C318.575 198.086 314.734 201.807 310 201.807C305.266 201.807 301.425 198.086 301.425 193.5Z" fill="black"/>
<path d="M270.172 174.454L274.466 176.511C326.482 201.433 348.484 263.897 323.559 315.919C321.9 319.381 317.741 320.846 314.279 319.187L134.033 232.828C130.57 231.169 129.106 227.01 130.765 223.547C155.687 171.531 218.15 149.529 270.172 174.454Z" fill="#FEE502"/>
<path fill-rule="evenodd" clip-rule="evenodd" d="M269.77 175.3C218.217 150.6 156.315 172.404 131.618 223.951C130.184 226.945 131.45 230.542 134.444 231.976L314.69 318.336C317.684 319.77 321.281 318.503 322.715 315.51C347.415 263.957 325.612 202.055 274.064 177.357L269.77 175.3ZM129.921 223.138C155.067 170.653 218.093 148.454 270.583 173.603L274.877 175.66C327.362 200.807 349.562 263.832 324.412 316.323C322.529 320.254 317.808 321.916 313.877 320.033L133.631 233.674C129.7 231.79 128.037 227.069 129.921 223.138Z" fill="black"/>
<path d="M181 149C184.866 149 188 145.642 188 141.5C188 137.358 184.866 134 181 134C177.134 134 174 137.358 174 141.5C174 145.642 177.134 149 181 149Z" fill="#FB8902"/>
<path fill-rule="evenodd" clip-rule="evenodd" d="M181.5 134.9C177.855 134.9 174.9 137.855 174.9 141.5C174.9 145.145 177.855 148.1 181.5 148.1C185.145 148.1 188.1 145.145 188.1 141.5C188.1 137.855 185.145 134.9 181.5 134.9ZM173 141.5C173 136.806 176.806 133 181.5 133C186.194 133 190 136.806 190 141.5C190 146.194 186.194 150 181.5 150C176.806 150 173 146.194 173 141.5Z" fill="black"/>
<path d="M220.5 328C224.642 328 228 324.418 228 320C228 315.582 224.642 312 220.5 312C216.358 312 213 315.582 213 320C213 324.418 216.358 328 220.5 328Z" fill="#FB8902"/>
<path fill-rule="evenodd" clip-rule="evenodd" d="M220.5 313.788C216.855 313.788 213.9 316.569 213.9 320C213.9 323.431 216.855 326.212 220.5 326.212C224.145 326.212 227.1 323.431 227.1 320C227.1 316.569 224.145 313.788 220.5 313.788ZM212 320C212 315.582 215.806 312 220.5 312C225.194 312 229 315.582 229 320C229 324.418 225.194 328 220.5 328C215.806 328 212 324.418 212 320Z" fill="black"/>
<path d="M302.5 299C306.642 299 310 295.642 310 291.5C310 287.358 306.642 284 302.5 284C298.358 284 295 287.358 295 291.5C295 295.642 298.358 299 302.5 299Z" fill="#FB8902"/>
<path fill-rule="evenodd" clip-rule="evenodd" d="M302.5 284.9C298.855 284.9 295.9 287.855 295.9 291.5C295.9 295.145 298.855 298.1 302.5 298.1C306.145 298.1 309.1 295.145 309.1 291.5C309.1 287.855 306.145 284.9 302.5 284.9ZM294 291.5C294 286.806 297.806 283 302.5 283C307.194 283 311 286.806 311 291.5C311 296.194 307.194 300 302.5 300C297.806 300 294 296.194 294 291.5Z" fill="black"/>
<path d="M219.272 160L210 151.82C211.902 138.624 220.696 129.925 233.728 124L243 132.18C230.1 135.319 221.596 143.858 219.272 160Z" fill="#A1E281"/>
<path fill-rule="evenodd" clip-rule="evenodd" d="M233.89 123L245 132.806L243.213 133.241C236.912 134.774 231.747 137.61 227.872 141.983C223.997 146.356 221.352 152.336 220.211 160.263L219.961 162L209 152.326L209.075 151.805C211.04 138.169 220.144 129.252 233.34 123.25L233.89 123ZM211.022 151.567L218.617 158.27C219.923 150.879 222.587 145.078 226.47 140.696C230.274 136.403 235.197 133.53 241.022 131.839L233.564 125.256C221.188 131.014 212.984 139.282 211.022 151.567Z" fill="black"/>
<path d="M77 217.489L81.699 206.486C94.5602 204.272 105.401 209.765 115 219.997L110.301 231C103.343 220.052 92.7345 214.78 77 217.489Z" fill="#A1E281"/>
<path fill-rule="evenodd" clip-rule="evenodd" d="M82.791 206.311L78.9998 215.677C86.1675 214.62 92.3012 215.361 97.5113 217.712C102.616 220.016 106.766 223.835 110.111 228.887L113.834 219.69C104.738 209.632 94.6386 204.353 82.791 206.311ZM81.9712 204.52C95.0578 202.143 106.028 208.082 115.601 218.849L116 219.298L110.454 233L109.504 231.423C106.157 225.867 101.966 221.804 96.7668 219.457C91.5661 217.11 85.2747 216.444 77.6672 217.826L76 218.129L81.4719 204.611L81.9712 204.52Z" fill="black"/>
<path d="M167 333.807L162.685 345.297C149.926 348.007 138.921 342.706 129 332.49L133.315 321C140.631 332.042 151.392 337.122 167 333.807Z" fill="#A1E281"/>
<path fill-rule="evenodd" clip-rule="evenodd" d="M133.1 319L134.1 320.531C137.624 325.926 141.941 329.813 147.211 331.964C152.482 334.116 158.788 334.564 166.344 332.936L168 332.58L162.968 346.169L162.472 346.275C149.473 349.076 138.321 343.554 128.413 333.205L128 332.774L133.1 319ZM133.575 323.066L130.151 332.312C139.56 341.975 149.821 346.871 161.596 344.528L165.082 335.113C157.955 336.403 151.803 335.875 146.523 333.72C141.349 331.608 137.081 327.961 133.575 323.066Z" fill="black"/>
<path d="M413 229.114L496.876 163.501C502.007 159.488 509.412 160.401 513.419 165.548L516.503 169.511C520.937 175.206 519.279 183.528 513.011 187.081L419.645 240" fill="black"/>
<path fill-rule="evenodd" clip-rule="evenodd" d="M511.77 166.017C508.101 161.326 501.321 160.494 496.622 164.151L413.153 229.14L412 227.664L495.469 162.675C500.984 158.382 508.941 159.359 513.248 164.865L516.316 168.79C516.316 168.79 516.316 168.79 516.316 168.79C521.082 174.882 519.3 183.783 512.564 187.584L419.65 240L418.728 238.37L511.641 185.954C517.38 182.716 518.898 175.132 514.839 169.942L511.77 166.017Z" fill="black"/>
<path d="M497.821 171.916L492.244 175.85C490.237 177.266 489.757 180.041 491.173 182.049L492.265 183.597C493.681 185.604 496.457 186.083 498.464 184.667L504.041 180.733C506.049 179.317 506.528 176.542 505.112 174.534L504.02 172.986C502.604 170.979 499.829 170.5 497.821 171.916Z" fill="white"/>
<path d="M128.5 252C120.492 252 114 258.716 114 267C114 275.284 120.492 282 128.5 282C136.508 282 143 275.284 143 267C143 258.716 136.508 252 128.5 252ZM128.5 274.596C124.447 274.596 121.158 271.193 121.158 267C121.158 262.807 124.447 259.411 128.5 259.411C132.553 259.411 135.842 262.807 135.842 267C135.842 271.193 132.553 274.596 128.5 274.596Z" fill="#D4B3B3"/>
<path fill-rule="evenodd" clip-rule="evenodd" d="M113 267C113 258.164 119.94 251 128.5 251C137.06 251 144 258.164 144 267C144 275.836 137.06 283 128.5 283C119.94 283 113 275.836 113 267ZM128.5 252.917C120.966 252.917 114.857 259.223 114.857 267C114.857 274.777 120.966 281.083 128.5 281.083C136.034 281.083 142.143 274.777 142.143 267C142.143 259.223 136.034 252.917 128.5 252.917ZM128.5 260.348C124.939 260.348 122.05 263.326 122.05 267C122.05 270.675 124.94 273.658 128.5 273.658C132.06 273.658 134.95 270.675 134.95 267C134.95 263.326 132.061 260.348 128.5 260.348ZM120.193 267C120.193 262.265 123.915 258.431 128.5 258.431C133.085 258.431 136.807 262.265 136.807 267C136.807 271.734 133.086 275.575 128.5 275.575C123.914 275.575 120.193 271.734 120.193 267Z" fill="black"/>
<path d="M167 221.223C169.491 215.225 172.894 209.605 177.02 204.598C179.058 202.123 181.278 199.799 183.656 197.652C186.166 195.385 188.619 192.664 192.431 193.933C193.991 194.451 195.274 195.739 195.79 197.305C196.727 200.121 195.884 203.379 195.236 206.17C194.431 209.637 193.009 212.926 191.456 216.115C188.273 222.669 184.568 229.507 185.248 236.762C185.329 237.665 185.512 238.625 186.147 239.275C187.701 240.86 190.349 239.433 191.959 237.899C201.187 229.122 207.03 217.466 214.043 206.82C217.283 201.902 234.612 177.863 241.619 185.478C244.808 188.945 241.135 197.538 239.782 201.264C237.499 207.565 234.203 213.45 230.913 219.259C227.787 224.778 224.252 230.038 221.812 235.923C219.988 240.324 216.937 248.961 221.887 252.478C226.183 255.522 229.762 252.22 232.36 248.86C235.763 244.453 239.65 240.336 243.393 236.226C247.815 231.357 252.35 226.596 256.992 221.943C261.206 217.719 265.408 212.497 270.604 209.567C272.327 208.595 274.164 207.742 276.127 207.534C278.089 207.326 280.215 207.843 281.567 209.283C286.172 214.17 282.958 221.892 280.196 226.641C273.642 237.905 264.723 249.568 265.528 263.377C265.553 263.794 265.591 264.236 265.849 264.564C270.057 270.095 279.102 258.048 281.121 255.44C284.65 250.875 288.034 246.202 291.783 241.82C294.475 238.676 297.532 235.588 301.469 234.344C305.407 233.1 310.401 234.312 312.225 238.032C313.678 240.993 312.804 244.516 311.905 247.686" stroke="black" stroke-miterlimit="10"/>
<path d="M166.5 229C168.985 229 171 226.761 171 224C171 221.239 168.985 219 166.5 219C164.015 219 162 221.239 162 224C162 226.761 164.015 229 166.5 229Z" fill="black" stroke="black" stroke-miterlimit="10"/>
<path d="M312 256C314.761 256 317 253.761 317 251C317 248.239 314.761 246 312 246C309.239 246 307 248.239 307 251C307 253.761 309.239 256 312 256Z" fill="black" stroke="black" stroke-miterlimit="10"/>
<path d="M-776 703.372L1315 200V1024H-776V703.372Z" fill="#0B0A07"/>
</g>
<defs>
<clipPath id="clip0_646_48241">
<rect width="540" height="540" fill="white"/>
</clipPath>
</defs>
</svg>
