<svg width="128" height="54" viewBox="0 0 128 54" fill="none" xmlns="http://www.w3.org/2000/svg">
<g id="Braun_Logo 1">
<g id="layer1">
<g id="g2414">
<path id="path7" d="M22.9928 42.6025C21.6621 42.6025 20.1643 42.6025 20.1643 42.6025V33.9284C20.1643 33.9284 21.617 33.9284 22.9928 33.9284C24.9311 33.9284 25.8287 35.3676 25.8287 37.9432C25.8287 41.4799 24.7517 42.6025 22.9928 42.6025ZM20.1643 21.3437C20.1643 21.3437 21.5929 21.3437 22.9236 21.3437C24.348 21.3437 25.5009 22.3876 25.5009 25.2633C25.5009 28.1696 24.1686 29.1748 22.9236 29.1748C21.5478 29.1748 20.1643 29.1748 20.1643 29.1748V21.3437ZM27.7126 31.224V31.2001C28.834 30.4163 30.6267 29.0681 30.6267 24.7353C30.6267 19.137 27.6936 16.6016 23.7313 16.6016C22.3892 16.6016 15.0781 16.6016 15.0781 16.6016V47.342C15.0781 47.342 19.9007 47.342 23.6861 47.342C28.5647 47.342 30.9404 43.7405 30.9404 38.3745C30.9404 33.3683 28.9683 31.9859 27.7126 31.224Z" fill="white"/>
<path id="path9" d="M40.2972 21.3437C40.2972 21.3437 41.725 21.3437 43.0566 21.3437C44.481 21.3437 45.6298 22.3876 45.6298 25.2633C45.6298 28.1696 44.3016 29.1748 43.0566 29.1748C41.6806 29.1748 40.2972 29.1748 40.2972 29.1748V21.3437ZM50.6648 37.0542C50.6648 33.2233 49.4708 32.1472 47.8454 31.224V31.2001C48.967 30.4163 50.744 29.0681 50.744 24.7353C50.744 19.137 47.8266 16.6016 43.8643 16.6016C42.5212 16.6016 35.2109 16.6016 35.2109 16.6016V47.342H40.2938L40.2971 33.9284C40.2971 33.9284 41.6805 33.9284 43.0556 33.9284C44.5023 33.9284 45.5364 35.1255 45.5364 37.8424V47.3422H50.662L50.6648 37.0542Z" fill="white"/>
<path id="path11" d="M60.5789 13.824C60.5789 11.5125 62.7099 11.2139 63.8874 11.2139C65.0649 11.2139 67.1877 11.5067 67.1877 13.824L67.1858 29.1762H60.5754L60.5789 13.824ZM63.8873 6.35938C61.7375 6.35938 55.5 6.84483 55.5 13.0605V47.3475H60.5853V33.9322H67.1882L67.1865 47.3419H72.276V13.0605C72.2761 6.83328 66.0306 6.35938 63.8873 6.35938Z" fill="white"/>
<path id="path13" d="M87.5117 16.5938V40.7931C87.5117 42.0246 86.4892 42.8473 84.9701 42.8473C83.4441 42.8473 82.4405 42.0231 82.4405 40.7931L82.4366 16.5938L77.3527 16.6002L77.3516 41.6015C77.3516 46.3617 82.2657 47.631 84.9756 47.631C87.6608 47.631 92.5963 46.3552 92.5963 41.5959V16.5938L87.5117 16.5938Z" fill="white"/>
<path id="path15" d="M107.824 47.3392L107.822 23.1505C107.822 21.919 106.801 21.0964 105.282 21.0964C103.756 21.0964 102.751 21.9213 102.751 23.1505L102.749 47.3392L97.6641 47.3431V22.342C97.6641 17.5818 102.579 16.3125 105.289 16.3125C107.974 16.3125 112.908 17.5883 112.908 22.3477V47.3391H107.824" fill="white"/>
</g>
</g>
</g>
</svg>
