<svg width="54" height="54" viewBox="0 0 54 54" fill="none" xmlns="http://www.w3.org/2000/svg">
<g id="google-black-icon 1">
<path id="Vector" fill-rule="evenodd" clip-rule="evenodd" d="M6.78901 37.3818C5.20996 34.2659 4.30469 30.75 4.30469 27.0025C4.30469 23.2549 5.20996 19.7391 6.78901 16.6231C10.5996 9.04397 18.4104 3.84375 27.4634 3.84375C33.7163 3.84375 38.9375 6.13855 42.9587 9.8861L36.3268 16.5179C33.9057 14.2441 30.874 13.0651 27.4634 13.0651C21.4422 13.0651 16.3262 17.1285 14.4945 22.6023C14.0314 23.9919 13.7576 25.4655 13.7576 27.0025C13.7576 28.5394 14.0314 30.0131 14.4945 31.4027L14.4671 31.4236H14.4945C16.3262 36.8976 21.4422 40.9609 27.4634 40.9609C30.5793 40.9609 33.211 40.1187 35.2742 38.7291C37.7375 37.087 39.3796 34.6449 39.927 31.7605H27.4634V22.7918H49.2747C49.5484 24.3077 49.6957 25.8866 49.6957 27.5288C49.6957 34.5816 47.1693 40.5187 42.7903 44.561C38.9586 48.0979 33.7163 50.1611 27.4634 50.1611C18.4104 50.1611 10.5996 44.961 6.78901 37.4029V37.3818Z" fill="white"/>
</g>
</svg>
