<svg width="54" height="54" viewBox="0 0 54 54" fill="none" xmlns="http://www.w3.org/2000/svg">
<g id="black-instagram-icon 1">
<path id="Vector" d="M19.606 27.0168C19.5988 22.9322 22.9047 19.6141 26.9884 19.607C31.073 19.599 34.3917 22.9035 34.3997 26.9888C34.4076 31.0741 31.1017 34.3915 27.0164 34.3995C22.9327 34.4073 19.6138 31.1021 19.606 27.0168ZM15.6092 27.0248C15.6214 33.3181 20.7327 38.4085 27.0244 38.3962C33.3169 38.3841 38.4102 33.2742 38.3979 26.9809C38.3857 20.6898 33.2738 15.5964 26.9806 15.6087C20.6887 15.6209 15.597 20.7328 15.6092 27.0248ZM36.162 15.1413C36.1648 16.6109 37.3596 17.8009 38.8293 17.798C40.2996 17.7951 41.4895 16.6009 41.4874 15.1312C41.4845 13.6616 40.2896 12.471 38.8193 12.4739C37.349 12.4768 36.1591 13.6717 36.162 15.1413ZM18.0717 45.0814C15.9083 44.9873 14.7334 44.6277 13.9505 44.3265C12.9137 43.9253 12.1739 43.4443 11.3952 42.6715C10.618 41.8956 10.1356 41.1579 9.73074 40.1233C9.42666 39.3403 9.06069 38.1669 8.95927 36.0035C8.84927 33.6646 8.82413 32.9629 8.81338 27.0377C8.80186 21.114 8.82344 20.4122 8.92555 18.0712C9.01821 15.9092 9.37994 14.7329 9.68047 13.9506C10.0816 12.9124 10.5612 12.174 11.3356 11.3954C12.1113 10.6167 12.849 10.1357 13.8843 9.73093C14.6666 9.42528 15.84 9.06217 18.0027 8.95945C20.3429 8.84867 21.0439 8.82501 26.9676 8.81348C32.8926 8.80195 33.5943 8.82284 35.9355 8.92565C38.0973 9.01978 39.2736 9.37787 40.0552 9.68056C41.0926 10.0817 41.8325 10.56 42.6104 11.3357C43.3883 12.1115 43.8708 12.8477 44.2756 13.8853C44.5811 14.6653 44.9443 15.8401 45.0464 18.0022C45.1578 20.3424 45.183 21.0442 45.1937 26.9679C45.2052 32.8931 45.1836 33.5949 45.0809 35.9345C44.9867 38.0978 44.6279 39.2735 44.326 40.0571C43.9247 41.0932 43.4452 41.8331 42.6701 42.6118C41.895 43.3875 41.1574 43.8713 40.1213 44.2761C39.3404 44.581 38.1657 44.9448 36.0045 45.0476C33.6642 45.1576 32.9631 45.1828 27.0373 45.1936C21.1136 45.2051 20.4127 45.1828 18.0717 45.0814ZM17.8128 4.96617C15.4517 5.07764 13.8391 5.45575 12.4298 6.008C10.971 6.57673 9.73439 7.33884 8.50427 8.57406C7.2726 9.80998 6.51621 11.0488 5.95182 12.509C5.40546 13.9219 5.03516 15.5353 4.93088 17.8979C4.82738 20.2648 4.80363 21.0198 4.81516 27.0456C4.82669 33.0707 4.85321 33.8271 4.96607 36.1947C5.07893 38.5552 5.45574 40.1671 6.00791 41.577C6.57732 43.0359 7.33874 44.2719 8.57466 45.5028C9.80989 46.7337 11.0494 47.4894 12.5104 48.0545C13.9218 48.6001 15.5358 48.9719 17.8977 49.0754C20.2646 49.1797 21.0202 49.2026 27.0445 49.1912C33.0717 49.1797 33.8274 49.1531 36.1943 49.0409C38.5554 48.928 40.1666 48.5499 41.5773 47.9991C43.036 47.4283 44.2727 46.6682 45.5029 45.4323C46.7331 44.197 47.4894 42.9575 48.0538 41.4966C48.6003 40.0852 48.972 38.471 49.0747 36.1107C49.1783 33.7422 49.2028 32.9858 49.1912 26.9607C49.1797 20.9349 49.1524 20.18 49.0403 17.8138C48.9281 15.4512 48.5499 13.8399 47.9984 12.4293C47.4283 10.9705 46.6677 9.73517 45.4325 8.50359C44.1972 7.27339 42.9577 6.51553 41.4967 5.95261C40.0847 5.40617 38.4713 5.03378 36.1094 4.93167C33.7425 4.82669 32.9869 4.80372 26.9604 4.81517C20.9353 4.82669 20.1797 4.85253 17.8128 4.96617Z" fill="white"/>
</g>
</svg>
