<svg width="203" height="54" viewBox="0 0 203 54" fill="none" xmlns="http://www.w3.org/2000/svg">
<g id="samsung-8 1" clip-path="url(#clip0_754_18005)">
<path id="Vector" d="M13.5312 33.159V31.2363H20.2878V33.6819C20.2825 34.0032 20.3464 34.3219 20.4751 34.6166C20.6037 34.9112 20.7942 35.175 21.0336 35.3901C21.2731 35.6052 21.556 35.7666 21.8633 35.8636C22.1706 35.9605 22.4951 35.9907 22.8151 35.9522C23.3617 36.0261 23.9163 35.8925 24.3687 35.5779C24.8212 35.2633 25.1386 34.7907 25.2579 34.2537C25.4388 33.6385 25.4234 32.9825 25.2139 32.3764C23.9062 29.0976 14.9709 27.6133 13.8358 22.5028C13.6047 21.3801 13.5903 20.2238 13.7935 19.0957C14.4904 14.9921 18.1072 13.5078 22.5969 13.5078C26.1714 13.5078 31.0975 14.3376 31.0975 19.8395V21.6308H24.8214V20.0588C24.8404 19.7489 24.7918 19.4387 24.6791 19.1493C24.5664 18.86 24.3922 18.5984 24.1684 18.3825C23.9447 18.1666 23.6767 18.0016 23.383 17.8988C23.0892 17.796 22.7766 17.7578 22.4666 17.7869C21.9373 17.7287 21.4055 17.8719 20.9774 18.1877C20.5494 18.5035 20.2566 18.9687 20.1575 19.4904C20.087 19.9259 20.1019 20.371 20.2015 20.8009C20.9408 23.7256 30.4885 25.2992 31.5357 30.5835C31.7974 31.953 31.8117 33.3582 31.5779 34.7327C30.9673 38.9224 27.2185 40.4943 22.6866 40.4943C17.9296 40.4943 13.5312 38.7908 13.5312 33.159ZM95.3944 33.073V31.1502H102.065V33.552C102.054 33.8705 102.113 34.1874 102.236 34.4812C102.36 34.7749 102.546 35.0386 102.781 35.2542C103.017 35.4697 103.296 35.6321 103.6 35.7301C103.904 35.8282 104.226 35.8596 104.543 35.8223C105.085 35.9028 105.637 35.7767 106.089 35.469C106.542 35.1613 106.861 34.6948 106.984 34.1626C107.165 33.5618 107.15 32.9194 106.942 32.3275C105.676 29.0976 96.8272 27.6049 95.6955 22.5028C95.464 21.3949 95.4491 20.253 95.6515 19.1396C96.3536 15.0798 99.9754 13.5955 104.374 13.5955C107.906 13.5955 112.786 14.4692 112.786 19.8834V21.6308H106.554V20.1026C106.574 19.7966 106.528 19.4899 106.418 19.2033C106.309 18.9167 106.139 18.657 105.92 18.4416C105.701 18.2263 105.438 18.0605 105.149 17.9553C104.86 17.8502 104.552 17.8083 104.245 17.8324C103.726 17.7637 103.199 17.8981 102.777 18.2074C102.354 18.5168 102.068 18.9771 101.978 19.4921C101.907 19.9275 101.921 20.3726 102.021 20.8026C102.718 23.7273 112.171 25.2571 113.225 30.4958C113.486 31.8506 113.5 33.2413 113.267 34.6011C112.656 38.7942 108.951 40.3223 104.47 40.3223C99.7555 40.3257 95.3944 38.6171 95.3944 33.073ZM119.282 33.9923C119.222 33.4406 119.208 32.8849 119.24 32.3309V14.2499H125.604V32.8959C125.596 33.217 125.61 33.5382 125.646 33.8573C125.788 34.3831 126.1 34.8476 126.534 35.1788C126.967 35.51 127.498 35.6895 128.044 35.6895C128.591 35.6895 129.121 35.51 129.555 35.1788C129.988 34.8476 130.3 34.3831 130.442 33.8573C130.48 33.5383 130.495 33.217 130.486 32.8959V14.2499H136.854V32.3275C136.854 32.8082 136.81 33.7258 136.81 33.9889C136.375 38.7115 132.669 40.2295 128.049 40.2295C123.429 40.2295 119.719 38.7031 119.282 33.9889V33.9923ZM171.68 33.7291C171.615 33.1755 171.586 32.6184 171.592 32.061V21.4553C171.592 21.0185 171.634 20.2325 171.678 19.794C172.245 15.0798 176.038 13.5955 180.528 13.5955C184.975 13.5955 188.896 15.0798 189.334 19.7957C189.387 20.3478 189.401 20.9029 189.377 21.457V22.2784H183.013V20.8886C183.014 20.5662 182.985 20.2444 182.926 19.9272C182.759 19.3948 182.426 18.9296 181.975 18.5993C181.524 18.2689 180.979 18.0908 180.419 18.0908C179.86 18.0908 179.315 18.2689 178.864 18.5993C178.413 18.9296 178.079 19.3948 177.912 19.9272C177.839 20.3162 177.81 20.7123 177.826 21.1079V32.6345C177.819 32.9556 177.833 33.2768 177.87 33.5959C178.021 34.1676 178.371 34.6669 178.859 35.0039C179.346 35.341 179.938 35.4936 180.528 35.4343C181.107 35.4959 181.689 35.3431 182.163 35.0052C182.637 34.6672 182.97 34.1675 183.099 33.601C183.158 33.284 183.172 32.9605 183.143 32.6396V28.966H180.571V25.2975H189.465V32.061C189.471 32.6156 189.442 33.1699 189.377 33.7207C188.942 38.305 184.978 39.9209 180.528 39.9209C176.077 39.9209 172.115 38.3101 171.68 33.7258V33.7291ZM82.9725 39.4452L82.8033 16.1272L78.4388 39.4452H72.0748L67.7576 16.1272L67.5885 39.4452H61.3073L61.83 14.2938H72.0748L75.2568 33.945L78.4388 14.2938H88.6819L89.2486 39.4452H82.9725ZM49.4944 39.4452L46.0941 16.1272L42.6059 39.4452H35.8071L40.4288 14.2938H51.6327L56.2543 39.4452H49.4944ZM156.03 39.1838L149.71 18.2676L150.059 39.1821H143.867V14.2938H153.195L159.116 34.5556L158.776 14.2938H165.01V39.1855L156.03 39.1838Z" fill="white"/>
</g>
<defs>
<clipPath id="clip0_754_18005">
<rect width="203" height="54" fill="white"/>
</clipPath>
</defs>
</svg>
