<svg width="510" height="105" viewBox="0 0 510 105" fill="none" xmlns="http://www.w3.org/2000/svg">
<path d="M46.36 19.42L30.96 60.16H61.76L46.36 19.42ZM0.86 101.04H13.18L50.98 0.799997H54.34L92.42 101.04H104.88V103H61.76V101.04H77.3L62.6 62.12H30.12L15.42 101.04H30.96V103H0.86V101.04ZM116.39 10.32C116.39 8.26666 117.09 6.54 118.49 5.13999C119.983 3.64666 121.756 2.9 123.81 2.9C125.863 2.9 127.59 3.64666 128.99 5.13999C130.483 6.54 131.23 8.26666 131.23 10.32C131.23 12.3733 130.483 14.1467 128.99 15.64C127.59 17.04 125.863 17.74 123.81 17.74C121.756 17.74 119.983 17.04 118.49 15.64C117.09 14.1467 116.39 12.3733 116.39 10.32ZM107.29 101.04H118.07V44.9H107.29V42.94H130.11V101.04H140.89V103H107.29V101.04ZM155.435 66.04C155.435 63.9867 156.135 62.26 157.535 60.86C159.029 59.3667 160.802 58.62 162.855 58.62C164.909 58.62 166.635 59.3667 168.035 60.86C169.529 62.26 170.275 63.9867 170.275 66.04C170.275 68.0933 169.529 69.8667 168.035 71.36C166.635 72.76 164.909 73.46 162.855 73.46C160.802 73.46 159.029 72.76 157.535 71.36C156.135 69.8667 155.435 68.0933 155.435 66.04ZM243.4 87.6C243.12 88.6267 242.56 90.12 241.72 92.08C240.973 93.9467 239.713 95.86 237.94 97.82C236.26 99.6867 233.927 101.367 230.94 102.86C228.047 104.26 224.267 104.96 219.6 104.96C216.053 104.96 212.367 104.4 208.54 103.28C204.713 102.16 201.213 100.387 198.04 97.96C194.867 95.44 192.253 92.1733 190.2 88.16C188.24 84.1467 187.26 79.2 187.26 73.32C187.26 68.7467 188.1 64.5 189.78 60.58C191.553 56.66 193.887 53.2533 196.78 50.36C199.767 47.4667 203.22 45.2267 207.14 43.64C211.153 41.96 215.4 41.12 219.88 41.12C222.4 41.12 224.967 41.4467 227.58 42.1C230.287 42.66 232.713 43.5933 234.86 44.9C237.1 46.1133 238.92 47.7467 240.32 49.8C241.813 51.76 242.56 54.1867 242.56 57.08C242.56 59.04 241.907 60.6733 240.6 61.98C239.387 63.1933 237.613 63.8 235.28 63.8C233.693 63.8 232.153 63.4733 230.66 62.82C229.26 62.0733 228.56 60.86 228.56 59.18C228.56 57.8733 228.887 56.2867 229.54 54.42C230.193 52.5533 230.52 51.0133 230.52 49.8C230.52 47.6533 229.447 46.02 227.3 44.9C225.153 43.6867 222.68 43.08 219.88 43.08C217.827 43.08 215.68 43.36 213.44 43.92C211.293 44.3867 209.287 45.6467 207.42 47.7C205.647 49.7533 204.153 52.8333 202.94 56.94C201.82 61.0467 201.26 66.6467 201.26 73.74C201.26 77.7533 201.493 81.5333 201.96 85.08C202.52 88.6267 203.453 91.7533 204.76 94.46C206.16 97.0733 208.027 99.1733 210.36 100.76C212.787 102.253 215.913 103 219.74 103C223.847 103 227.207 102.393 229.82 101.18C232.527 99.9667 234.627 98.52 236.12 96.84C237.707 95.0667 238.873 93.2933 239.62 91.52C240.367 89.7467 240.927 88.3 241.3 87.18L243.4 87.6ZM267.262 73.04C267.262 79.6667 267.776 84.94 268.802 88.86C269.829 92.78 271.182 95.8133 272.862 97.96C274.542 100.013 276.502 101.367 278.742 102.02C280.982 102.673 283.362 103 285.882 103C288.402 103 290.782 102.673 293.022 102.02C295.262 101.367 297.222 100.013 298.902 97.96C300.582 95.8133 301.936 92.78 302.962 88.86C303.989 84.94 304.502 79.6667 304.502 73.04C304.502 67.44 304.129 62.7733 303.382 59.04C302.636 55.2133 301.469 52.1333 299.882 49.8C298.389 47.3733 296.476 45.6467 294.142 44.62C291.809 43.5933 289.056 43.08 285.882 43.08C282.709 43.08 279.956 43.5933 277.622 44.62C275.289 45.6467 273.329 47.3733 271.742 49.8C270.249 52.1333 269.129 55.2133 268.382 59.04C267.636 62.7733 267.262 67.44 267.262 73.04ZM253.262 73.04C253.262 68.4667 254.242 64.22 256.202 60.3C258.256 56.38 260.822 53.02 263.902 50.22C267.076 47.3267 270.576 45.0867 274.402 43.5C278.322 41.9133 282.149 41.12 285.882 41.12C289.616 41.12 293.396 41.9133 297.222 43.5C301.142 45.0867 304.642 47.3267 307.722 50.22C310.896 53.02 313.462 56.38 315.422 60.3C317.476 64.22 318.502 68.4667 318.502 73.04C318.502 77.4267 317.569 81.58 315.702 85.5C313.836 89.3267 311.362 92.6867 308.282 95.58C305.296 98.4733 301.842 100.76 297.922 102.44C294.002 104.12 289.989 104.96 285.882 104.96C281.776 104.96 277.762 104.12 273.842 102.44C269.922 100.76 266.422 98.4733 263.342 95.58C260.356 92.6867 257.929 89.3267 256.062 85.5C254.196 81.58 253.262 77.4267 253.262 73.04ZM326.855 101.04H337.635V44.9H326.855V42.94H349.395V57.92H349.675C350.235 56.7067 351.029 55.1667 352.055 53.3C353.175 51.4333 354.669 49.6133 356.535 47.84C358.402 46.0667 360.735 44.5733 363.535 43.36C366.335 42.0533 369.742 41.4 373.755 41.4C379.915 41.4 384.909 42.8933 388.735 45.88C392.655 48.8667 394.615 53.6267 394.615 60.16V101.04H405.395V103H371.795V101.04H382.575V55.82C382.575 52.18 381.689 49.1933 379.915 46.86C378.235 44.5267 375.575 43.36 371.935 43.36C368.949 43.36 366.102 44.0133 363.395 45.32C360.689 46.6267 358.309 48.4467 356.255 50.78C354.202 53.1133 352.569 55.8667 351.355 59.04C350.235 62.2133 349.675 65.6667 349.675 69.4V101.04H360.455V103H326.855V101.04ZM420.561 10.32C420.561 8.26666 421.261 6.54 422.661 5.13999C424.155 3.64666 425.928 2.9 427.981 2.9C430.035 2.9 431.761 3.64666 433.161 5.13999C434.655 6.54 435.401 8.26666 435.401 10.32C435.401 12.3733 434.655 14.1467 433.161 15.64C431.761 17.04 430.035 17.74 427.981 17.74C425.928 17.74 424.155 17.04 422.661 15.64C421.261 14.1467 420.561 12.3733 420.561 10.32ZM411.461 101.04H422.241V44.9H411.461V42.94H434.281V101.04H445.061V103H411.461V101.04ZM510.007 87.6C509.727 88.6267 509.167 90.12 508.327 92.08C507.581 93.9467 506.321 95.86 504.547 97.82C502.867 99.6867 500.534 101.367 497.547 102.86C494.654 104.26 490.874 104.96 486.207 104.96C482.661 104.96 478.974 104.4 475.147 103.28C471.321 102.16 467.821 100.387 464.647 97.96C461.474 95.44 458.861 92.1733 456.807 88.16C454.847 84.1467 453.867 79.2 453.867 73.32C453.867 68.7467 454.707 64.5 456.387 60.58C458.161 56.66 460.494 53.2533 463.387 50.36C466.374 47.4667 469.827 45.2267 473.747 43.64C477.761 41.96 482.007 41.12 486.487 41.12C489.007 41.12 491.574 41.4467 494.187 42.1C496.894 42.66 499.321 43.5933 501.467 44.9C503.707 46.1133 505.527 47.7467 506.927 49.8C508.421 51.76 509.167 54.1867 509.167 57.08C509.167 59.04 508.514 60.6733 507.207 61.98C505.994 63.1933 504.221 63.8 501.887 63.8C500.301 63.8 498.761 63.4733 497.267 62.82C495.867 62.0733 495.167 60.86 495.167 59.18C495.167 57.8733 495.494 56.2867 496.147 54.42C496.801 52.5533 497.127 51.0133 497.127 49.8C497.127 47.6533 496.054 46.02 493.907 44.9C491.761 43.6867 489.287 43.08 486.487 43.08C484.434 43.08 482.287 43.36 480.047 43.92C477.901 44.3867 475.894 45.6467 474.027 47.7C472.254 49.7533 470.761 52.8333 469.547 56.94C468.427 61.0467 467.867 66.6467 467.867 73.74C467.867 77.7533 468.101 81.5333 468.567 85.08C469.127 88.6267 470.061 91.7533 471.367 94.46C472.767 97.0733 474.634 99.1733 476.967 100.76C479.394 102.253 482.521 103 486.347 103C490.454 103 493.814 102.393 496.427 101.18C499.134 99.9667 501.234 98.52 502.727 96.84C504.314 95.0667 505.481 93.2933 506.227 91.52C506.974 89.7467 507.534 88.3 507.907 87.18L510.007 87.6Z" fill="black"/>
</svg>
