<svg width="10" height="14" viewBox="0 0 10 14" fill="none" xmlns="http://www.w3.org/2000/svg">
<path d="M0.588614 12.3076L0.304428 12.719L1.1272 13.2874L1.41139 12.876L0.588614 12.3076ZM9.16485 1.39442C9.11517 1.12278 8.85469 0.942847 8.58306 0.992522L4.15647 1.80203C3.88483 1.8517 3.70489 2.11218 3.75457 2.38381C3.80424 2.65545 4.06472 2.83539 4.33636 2.78571L8.2711 2.06615L8.99066 6.0009C9.04034 6.27254 9.30081 6.45247 9.57245 6.4028C9.84409 6.35312 10.024 6.09265 9.97435 5.82101L9.16485 1.39442ZM1.41139 12.876L9.08439 1.76855L8.26162 1.20018L0.588614 12.3076L1.41139 12.876Z" fill="black"/>
</svg>
