<svg width="10" height="13" viewBox="0 0 10 13" fill="none" xmlns="http://www.w3.org/2000/svg">
<path id="Arrow 2" d="M0.588614 11.6807L0.304428 12.092L1.1272 12.6604L1.41139 12.249L0.588614 11.6807ZM9.16485 0.767467C9.11517 0.49583 8.85469 0.315894 8.58306 0.365569L4.15647 1.17507C3.88483 1.22475 3.70489 1.48522 3.75457 1.75686C3.80424 2.0285 4.06472 2.20843 4.33636 2.15876L8.2711 1.4392L8.99066 5.37395C9.04034 5.64559 9.30081 5.82552 9.57245 5.77585C9.84409 5.72617 10.024 5.4657 9.97435 5.19406L9.16485 0.767467ZM1.41139 12.249L9.08439 1.1416L8.26162 0.573227L0.588614 11.6807L1.41139 12.249Z" fill="white"/>
</svg>
