<svg width="258" height="258" viewBox="0 0 258 258" fill="none" xmlns="http://www.w3.org/2000/svg">
<rect width="258" height="258" fill="#13161D"/>
<circle cx="128.5" cy="129.5" r="64.5" fill="#CFE2F8"/>
<path d="M123.002 94.8081C129.007 84.9255 141.886 81.7822 151.769 87.7874C161.652 93.7926 164.795 106.672 158.79 116.555L139.721 147.936C133.716 157.819 120.836 160.962 110.953 154.957C101.071 148.952 97.9276 136.072 103.933 126.189L123.002 94.8081Z" fill="white"/>
<path fill-rule="evenodd" clip-rule="evenodd" d="M136.414 145.927L155.483 114.545C160.378 106.489 157.816 95.9897 149.76 91.0942C141.703 86.1988 131.204 88.7612 126.308 96.8175L107.24 128.199C102.344 136.255 104.907 146.755 112.963 151.65C121.019 156.545 131.519 153.983 136.414 145.927ZM151.769 87.7874C141.886 81.7822 129.007 84.9255 123.002 94.8081L103.933 126.189C97.9276 136.072 101.071 148.952 110.953 154.957C120.836 160.962 133.716 157.819 139.721 147.936L158.79 116.555C164.795 106.672 161.652 93.7926 151.769 87.7874Z" fill="black"/>
<path fill-rule="evenodd" clip-rule="evenodd" d="M139.16 112C140.064 112.569 140.335 113.764 139.765 114.668L102.537 173.751C101.967 174.655 100.773 174.926 99.8686 174.357C98.9645 173.787 98.6935 172.593 99.2631 171.689L136.492 112.605C137.061 111.701 138.256 111.43 139.16 112Z" fill="black"/>
<path fill-rule="evenodd" clip-rule="evenodd" d="M143.143 139.049C143.316 139.922 142.748 140.771 141.874 140.944C130.304 143.235 124.515 141.782 122.018 140.026C121.29 139.514 121.114 138.508 121.627 137.78C122.139 137.052 123.144 136.876 123.873 137.389C125.265 138.368 129.937 140.021 141.248 137.781C142.121 137.608 142.97 138.175 143.143 139.049Z" fill="black"/>
</svg>
