<svg width="168" height="540" viewBox="0 0 168 540" fill="none" xmlns="http://www.w3.org/2000/svg">
<g clip-path="url(#clip0_637_45979)">
<rect width="168" height="540" fill="#13161D"/>
<line x1="52.125" y1="-5.46392e-09" x2="52.125" y2="540" stroke="white" stroke-opacity="0.3" stroke-width="0.25"/>
<line x1="96.125" y1="-5.46392e-09" x2="96.125" y2="540" stroke="white" stroke-opacity="0.3" stroke-width="0.25"/>
<line x1="115.125" y1="-5.46392e-09" x2="115.125" y2="540" stroke="white" stroke-opacity="0.3" stroke-width="0.25"/>
<line x1="361" y1="313.125" x2="-179" y2="313.125" stroke="white" stroke-opacity="0.3" stroke-width="0.25"/>
<line x1="361" y1="404.125" x2="-179" y2="404.125" stroke="white" stroke-opacity="0.3" stroke-width="0.25"/>
<ellipse cx="83.5" cy="358.591" rx="45.4086" ry="45.5" transform="rotate(-90 83.5 358.591)" fill="#CFE2F8"/>
<path d="M59.0298 362.468C52.058 358.24 49.8399 349.173 54.0755 342.216C58.3111 335.259 67.3965 333.047 74.3682 337.276L96.5065 350.701C103.478 354.93 105.696 363.997 101.461 370.953C97.2252 377.91 88.1398 380.122 81.168 375.894L59.0298 362.468Z" fill="white"/>
<path fill-rule="evenodd" clip-rule="evenodd" d="M95.0892 353.029L72.951 339.603C67.2676 336.157 59.8612 337.96 56.4083 343.631C52.9555 349.302 54.7636 356.694 60.447 360.14L82.5853 373.566C88.2687 377.013 95.6751 375.21 99.128 369.539C102.581 363.867 100.773 356.476 95.0892 353.029ZM54.0755 342.216C49.8399 349.173 52.058 358.24 59.0298 362.468L81.168 375.894C88.1398 380.122 97.2252 377.91 101.461 370.953C105.696 363.997 103.478 354.93 96.5065 350.701L74.3682 337.276C67.3965 333.047 58.3111 335.259 54.0755 342.216Z" fill="black"/>
<path fill-rule="evenodd" clip-rule="evenodd" d="M71.1554 351.097C71.5571 350.461 72.3998 350.27 73.0375 350.671L114.717 376.881C115.354 377.282 115.546 378.123 115.144 378.759C114.742 379.396 113.899 379.587 113.262 379.185L71.5826 352.976C70.9449 352.575 70.7536 351.734 71.1554 351.097Z" fill="black"/>
<path fill-rule="evenodd" clip-rule="evenodd" d="M90.2294 348.288C90.8458 348.167 91.4444 348.566 91.5666 349.181C93.1844 357.327 92.1592 361.403 90.9204 363.16C90.559 363.673 89.8493 363.796 89.3353 363.435C88.8213 363.075 88.6976 362.367 89.059 361.854C89.7499 360.874 90.9162 357.585 89.3345 349.622C89.2124 349.007 89.613 348.41 90.2294 348.288Z" fill="black"/>
<path d="M104.461 145.086L104.461 141.587C104.461 140.932 104.57 140.277 104.789 139.622C105.008 138.957 105.341 138.362 105.789 137.836C106.226 137.3 106.778 136.868 107.444 136.541C108.101 136.213 108.867 136.049 109.742 136.049C110.627 136.049 111.398 136.213 112.054 136.541C112.71 136.868 113.262 137.3 113.71 137.836C114.147 138.362 114.476 138.957 114.694 139.622C114.913 140.277 115.022 140.932 115.022 141.587L115.022 145.086L104.461 145.086ZM114.068 144.014L114.068 141.885C114.068 141.091 113.943 140.401 113.695 139.816C113.446 139.22 113.123 138.729 112.725 138.342C112.317 137.955 111.855 137.667 111.338 137.478C110.821 137.28 110.289 137.181 109.742 137.181C109.195 137.181 108.663 137.28 108.146 137.478C107.628 137.667 107.171 137.955 106.773 138.342C106.365 138.729 106.037 139.22 105.789 139.816C105.54 140.401 105.416 141.091 105.416 141.885L105.416 144.014L114.068 144.014Z" fill="white"/>
<path d="M115.291 159.508C115.291 160.302 115.157 160.952 114.888 161.458C114.61 161.964 114.262 162.366 113.844 162.664C113.426 162.962 112.974 163.17 112.487 163.289C111.989 163.399 111.522 163.453 111.084 163.453L104.461 163.453L104.461 162.381L110.965 162.381C111.393 162.381 111.81 162.332 112.218 162.232C112.616 162.133 112.974 161.974 113.292 161.756C113.6 161.528 113.854 161.23 114.053 160.863C114.242 160.495 114.336 160.044 114.336 159.508C114.336 158.972 114.242 158.52 114.053 158.153C113.854 157.786 113.6 157.493 113.292 157.275C112.974 157.047 112.616 156.883 112.218 156.784C111.81 156.684 111.393 156.635 110.965 156.635L104.461 156.635L104.461 155.563L111.084 155.563C111.522 155.563 111.989 155.622 112.487 155.741C112.974 155.851 113.426 156.054 113.844 156.352C114.262 156.65 114.61 157.056 114.888 157.573C115.157 158.079 115.291 158.724 115.291 159.508Z" fill="white"/>
<path d="M109.745 173.365C110.55 173.365 111.291 173.504 111.967 173.781C112.644 174.059 113.23 174.446 113.728 174.943C114.215 175.429 114.598 176.01 114.876 176.685C115.155 177.349 115.294 178.074 115.294 178.858C115.294 179.642 115.155 180.372 114.876 181.047C114.598 181.712 114.215 182.292 113.728 182.788C113.23 183.275 112.644 183.657 111.967 183.935C111.291 184.213 110.55 184.352 109.745 184.352C108.939 184.352 108.198 184.213 107.522 183.935C106.846 183.657 106.264 183.275 105.777 182.788C105.279 182.292 104.891 181.712 104.613 181.047C104.335 180.372 104.195 179.642 104.195 178.858C104.195 178.074 104.335 177.349 104.613 176.685C104.891 176.01 105.279 175.429 105.777 174.943C106.264 174.446 106.846 174.059 107.522 173.781C108.198 173.504 108.939 173.365 109.745 173.365ZM109.745 174.496C109.128 174.496 108.541 174.595 107.984 174.794C107.427 174.992 106.94 175.28 106.522 175.657C106.095 176.034 105.757 176.496 105.508 177.042C105.259 177.578 105.135 178.183 105.135 178.858C105.135 179.533 105.259 180.143 105.508 180.689C105.757 181.225 106.095 181.682 106.522 182.059C106.94 182.436 107.427 182.724 107.984 182.922C108.541 183.121 109.128 183.22 109.745 183.22C110.361 183.22 110.948 183.121 111.505 182.922C112.062 182.724 112.549 182.436 112.967 182.059C113.384 181.682 113.718 181.225 113.966 180.689C114.215 180.143 114.339 179.533 114.339 178.858C114.339 178.183 114.215 177.578 113.966 177.042C113.718 176.496 113.384 176.034 112.967 175.657C112.549 175.28 112.062 174.992 111.505 174.794C110.948 174.595 110.361 174.496 109.745 174.496Z" fill="white"/>
<path d="M114.068 197.592L114.068 192.679L115.022 192.679L115.022 198.664L104.461 198.664L104.461 197.592L114.068 197.592Z" fill="white"/>
<path d="M113.325 208.249C113.593 208.427 113.847 208.646 114.086 208.904C114.324 209.152 114.533 209.445 114.712 209.782C114.891 210.11 115.03 210.477 115.13 210.884C115.239 211.281 115.294 211.718 115.294 212.194C115.294 212.988 115.155 213.722 114.876 214.397C114.598 215.072 114.215 215.653 113.728 216.139C113.23 216.626 112.644 217.008 111.967 217.286C111.291 217.554 110.55 217.688 109.745 217.688C108.939 217.688 108.198 217.549 107.522 217.271C106.846 216.993 106.264 216.611 105.777 216.124C105.279 215.628 104.891 215.047 104.613 214.382C104.335 213.708 104.195 212.978 104.195 212.194C104.195 211.807 104.235 211.43 104.315 211.063C104.394 210.685 104.509 210.333 104.658 210.006C104.797 209.678 104.971 209.38 105.18 209.112C105.379 208.844 105.607 208.621 105.866 208.442L106.522 209.336C106.353 209.445 106.184 209.594 106.015 209.782C105.846 209.961 105.697 210.174 105.568 210.422C105.438 210.671 105.334 210.943 105.254 211.241C105.175 211.529 105.135 211.842 105.135 212.179C105.135 212.864 105.259 213.479 105.508 214.025C105.757 214.561 106.095 215.018 106.522 215.395C106.94 215.772 107.427 216.06 107.984 216.258C108.541 216.457 109.128 216.556 109.745 216.556C110.361 216.556 110.948 216.457 111.505 216.258C112.062 216.05 112.554 215.757 112.982 215.38C113.399 215.003 113.733 214.546 113.981 214.01C114.23 213.464 114.354 212.854 114.354 212.179C114.354 211.574 114.23 210.998 113.981 210.452C113.733 209.906 113.335 209.45 112.788 209.083L113.325 208.249Z" fill="white"/>
<path d="M96.2552 149.77L96.2552 149.77C96.2075 146.826 95.3491 144.166 93.6327 141.745C92.1225 139.614 90.1322 138.035 87.6954 137.007C87.1712 136.786 86.6138 137.185 86.6138 137.749L86.6138 139.999C86.6138 140.317 86.7987 140.604 87.08 140.749C88.8775 141.678 90.2344 142.878 91.1479 144.355C92.0614 145.832 92.533 147.587 92.5558 149.629L92.5558 149.629C92.6032 152.364 91.704 154.721 89.9519 156.749C88.3887 158.558 86.4113 159.653 84.0853 160.069C83.6578 160.145 83.2779 159.805 83.2779 159.368L83.2779 136.774C83.2779 136.319 82.9089 135.951 82.4539 135.951L81.2856 135.951C77.8983 135.951 74.8456 137.234 72.129 139.798L72.1287 139.798C69.3642 142.456 67.8855 145.59 67.6471 149.2H67.6471L67.6471 149.2C67.4086 153.237 68.7924 156.705 71.7476 159.695C74.6555 162.638 78.1846 164.063 82.2371 163.969C86.0996 163.921 89.3901 162.448 92.2021 159.6L92.2024 159.6C94.9669 156.752 96.3029 153.475 96.2552 149.77ZM79.8637 159.279C79.8637 159.746 79.4356 160.092 78.9901 159.968C76.8515 159.369 75.0825 158.254 73.7135 156.56C72.1512 154.627 71.3465 152.365 71.3939 149.771C71.4412 147.177 72.2462 144.962 73.8079 143.124C75.173 141.517 76.8993 140.414 78.9881 139.815C79.4337 139.688 79.8637 140.035 79.8637 140.502L79.8637 159.279Z" fill="white" stroke="white" stroke-width="0.0866124"/>
<path d="M92.6125 166.831C92.666 166.212 93.1727 165.707 93.8063 165.707L95.0895 165.707C95.7231 165.707 96.24 166.213 96.2118 166.833C95.8948 173.814 92.5526 177.281 86.1852 177.281L52.9754 177.281C52.3418 177.281 51.8281 176.778 51.8281 176.157L51.8281 174.121C51.8281 173.5 52.3418 172.996 52.9754 172.996L61.9818 172.996C62.6154 172.996 63.129 172.493 63.129 171.872L63.129 166.831C63.129 166.21 63.6427 165.707 64.2763 165.707L66.0138 165.707C66.6474 165.707 67.161 166.21 67.161 166.831L67.161 171.872C67.161 172.493 67.6747 172.996 68.3083 172.996L85.4469 172.996C89.8847 172.996 92.2585 170.927 92.6125 166.831Z" fill="white"/>
<path d="M51.8828 188.06C51.8828 187.441 52.3858 186.939 53.0063 186.939L58.1556 186.939C58.7761 186.939 59.2791 187.441 59.2791 188.06L59.2791 189.98C59.2791 190.6 58.7761 191.102 58.1556 191.102L53.0063 191.102C52.3858 191.102 51.8828 190.6 51.8828 189.98L51.8828 188.06ZM63.5067 188.06C63.5067 187.441 64.0097 186.939 64.6302 186.939L94.0816 186.939C94.7021 186.939 95.2051 187.441 95.2051 188.06L95.2051 189.98C95.2051 190.6 94.7021 191.102 94.0816 191.102L64.6302 191.102C64.0097 191.102 63.5067 190.6 63.5067 189.98L63.5067 188.06Z" fill="white"/>
<path d="M91.1467 195.342C91.1467 194.723 91.6497 194.221 92.2701 194.221L94.0828 194.221C94.7033 194.221 95.2063 194.723 95.2063 195.342L95.2063 206.486C95.2063 212.979 91.4803 217.586 84.6402 217.586L52.9516 217.586C52.3311 217.586 51.8281 217.084 51.8281 216.465L51.8281 214.434C51.8281 213.814 52.3311 213.312 52.9516 213.312L85.4187 213.312C86.9202 213.312 88.3661 212.591 89.812 211.204C90.7018 210.316 91.1467 208.762 91.1467 206.486L91.1467 195.342Z" fill="white"/>
<path d="M92.4265 224.324C92.4564 223.728 92.9499 223.259 93.5485 223.259L95.1492 223.259C95.7635 223.259 96.2614 223.756 96.2614 224.369C96.2614 227.769 95.2685 230.493 93.2828 232.582C92.9018 232.983 92.8142 233.591 93.0954 234.067C95.1542 237.552 96.2058 241.283 96.2058 245.348C96.2058 251.453 94.037 256.67 89.6993 260.999C85.3616 265.328 80.1342 267.492 74.017 267.492C67.8997 267.492 62.6723 265.328 58.3346 260.999C53.997 256.67 51.8281 251.453 51.8281 245.348C51.8281 239.243 53.997 234.026 58.3346 229.753C62.6723 225.424 67.8997 223.259 74.017 223.259C79.9083 223.259 84.9538 225.245 89.1535 229.218C89.5674 229.609 90.2152 229.665 90.6346 229.279C91.9379 228.08 92.2821 226.971 92.4242 224.369L92.4265 224.324ZM86.6407 232.639C83.1372 229.087 78.8551 227.311 73.8501 227.311C68.8451 227.311 64.5631 229.087 61.0596 232.639C57.5005 236.135 55.7209 240.408 55.7209 245.403C55.7209 250.398 57.5005 254.672 61.0596 258.224C64.5631 261.72 68.8451 263.496 73.8501 263.496C78.8551 263.496 83.1372 261.72 86.6407 258.224C90.1442 254.672 91.9237 250.398 91.9237 245.403C91.9237 240.408 90.1442 236.135 86.6407 232.639Z" fill="white"/>
<path fill-rule="evenodd" clip-rule="evenodd" d="M83.8487 300.574C83.7367 300.471 83.6734 300.323 83.6734 300.169L83.6746 300.169L83.6746 296.652C83.6746 296.336 83.9369 296.067 84.2862 296.028C86.171 295.813 87.9653 294.72 89.7698 292.684C91.5099 290.723 92.4212 288.249 92.48 285.326C92.5365 282.383 91.6852 279.794 89.9462 277.63C88.2141 275.472 86.0636 274.414 83.5525 274.484C81.4902 274.554 79.7128 275.424 78.2667 277.069C76.8364 278.697 75.6945 281.134 74.8714 284.314L73.4603 289.894C72.7153 292.788 71.4162 295.067 69.5992 296.67C67.797 298.259 65.5979 299.08 63.0607 299.114C59.9458 299.18 57.2797 297.779 55.1383 294.948L55.1145 294.915C52.8815 292.022 51.7758 288.611 51.83 284.783C51.8854 280.955 53.0647 277.66 55.335 274.991C57.4086 272.555 59.8825 271.217 62.6876 271.016C62.8267 271.006 62.9601 271.055 63.0641 271.151C63.1726 271.252 63.236 271.399 63.236 271.552L63.236 275.061C63.236 275.375 62.968 275.648 62.6141 275.696C61.0425 275.91 59.5037 276.878 58.0418 278.573C56.5471 280.236 55.7296 282.32 55.6131 284.769C55.499 287.353 56.2169 289.669 57.7501 291.652C59.2606 293.613 61.0572 294.532 63.2405 294.462C64.9794 294.427 66.4402 293.877 67.581 292.829C68.7094 291.791 69.5438 290.246 70.0605 288.236L71.6977 281.908C72.7266 277.92 74.2597 274.881 76.2542 272.878C78.235 270.89 80.7315 269.864 83.678 269.831C87.1208 269.766 90.0355 271.231 92.5885 274.308C95.0612 277.357 96.2631 280.937 96.2631 285.255C96.2631 289.573 95.0601 293.155 92.5874 296.204C90.3363 298.98 87.6047 300.453 84.2354 300.709C84.0918 300.721 83.955 300.672 83.8487 300.574Z" fill="white"/>
</g>
<defs>
<clipPath id="clip0_637_45979">
<rect width="168" height="540" fill="white"/>
</clipPath>
</defs>
</svg>
