<svg xmlns="http://www.w3.org/2000/svg" width="668" height="140" viewBox="0 0 668 140" fill="none">
  <path d="M55.5126 137.123C84.9454 137.123 99.6618 118.904 99.6618 100.685C99.6618 84.1918 87.5533 67.6986 63.5227 64.8219C78.798 59.0685 88.1122 45.8356 88.1122 32.9863C88.1122 17.6438 74.5135 2.87671 41.7275 2.87671H0.186291V134.055H0V137.123H55.5126ZM53.4634 67.3151C71.1604 67.3151 79.9157 84 79.9157 100.685C79.9157 117.37 71.1604 134.055 53.4634 134.055H17.1381V5.94521H40.6098C60.7284 5.94521 70.7878 20.137 70.7878 34.7123C70.7878 49.863 59.9833 65.2055 38.3744 65.2055C33.1585 65.2055 27.3837 64.4384 20.8637 62.3288C29.9916 66.1644 38.3744 67.8904 46.012 67.8904C48.62 67.8904 51.0417 67.6986 53.4634 67.3151Z" fill="white"/>
  <path d="M180.516 2.87671H177.349L111.219 137.123H128.916C128.916 137.123 128.916 135.781 128.17 135.589C126.494 135.014 124.631 131.562 124.631 125.808C124.631 120.63 126.121 113.534 130.406 104.712L171.016 22.0548L213.488 108.164C200.262 93.7808 180.516 82.8493 163.564 82.8493C152.201 82.8493 142.142 87.452 135.808 99.3425C143.073 89.3699 152.76 85.1507 163.005 85.1507C184.987 85.1507 209.576 103.37 220.381 122.164L227.832 137.123H246.647L180.516 2.87671Z" fill="white"/>
  <path d="M320.028 137.123C349.461 137.123 364.177 118.904 364.177 100.685C364.177 84.1918 352.069 67.6986 328.038 64.8219C343.313 59.0685 352.628 45.8356 352.628 32.9863C352.628 17.6438 339.029 2.87671 306.243 2.87671H264.702V134.055V134.335V137.123H320.028ZM317.979 67.3151C335.676 67.3151 344.431 84 344.431 100.685C344.431 117.37 335.676 134.055 317.979 134.055H281.654V5.94521H305.125C325.244 5.94521 335.303 20.137 335.303 34.7123C335.303 49.863 324.499 65.2055 302.89 65.2055C297.674 65.2055 291.899 64.4384 285.379 62.3288C294.507 66.1644 302.89 67.8904 310.528 67.8904C313.136 67.8904 315.557 67.6986 317.979 67.3151Z" fill="white"/>
  <path d="M463.66 135.589C420.07 135.589 394.921 94.3562 394.921 58.1096C394.921 29.726 410.383 4.41096 444.473 4.41096C452.483 4.41096 470.366 8.43836 470.366 23.3973C470.366 25.5068 469.994 27.8082 469.249 30.4931C477.445 32.9863 483.965 26.8493 483.965 19.5616C483.965 11.1233 475.21 1.15068 450.061 1.15068C411.314 1.15068 377.411 25.1233 377.411 70C377.411 104.904 402.932 140 454.16 140C483.592 140 498.309 127.918 508.182 108.74C497.75 123.89 483.592 135.589 463.66 135.589Z" fill="white"/>
  <path d="M591.251 0C540.209 0 514.689 34.9041 514.689 70C514.689 104.904 540.209 140 591.251 140C642.479 140 668 104.904 668 70C668 34.9041 642.479 0 591.251 0ZM600.752 135.589C557.161 135.589 532.199 94.3562 532.199 58.1096C532.199 29.726 547.661 4.41096 581.751 4.41096C625.341 4.41096 650.489 45.4521 650.489 81.6986C650.489 110.082 635.028 135.589 600.752 135.589Z" fill="white"/>
</svg>