<svg width="51" height="54" viewBox="0 0 51 54" fill="none" xmlns="http://www.w3.org/2000/svg">
<path d="M42.8675 40.2539C42.5625 42.4815 41.0391 44.4093 38.9056 45.2659C37.8603 45.6937 36.7287 45.8227 35.5963 45.6937C34.5081 45.5653 33.4195 45.2226 32.2875 44.5807C30.7196 43.7232 29.1521 42.3958 27.3236 40.4253C30.1973 36.9557 31.9387 33.7858 32.5921 30.9597C32.8968 29.6314 32.9406 28.432 32.8101 27.3184C32.6362 26.2478 32.2441 25.2622 31.6344 24.4056C30.2848 22.4784 28.0208 21.3645 25.4952 21.3645C22.9699 21.3645 20.7059 22.5211 19.3559 24.4056C18.7462 25.2622 18.3548 26.2478 18.1802 27.3184C18.0064 28.432 18.0497 29.6744 18.3982 30.9597C19.0509 33.7862 20.836 36.9987 23.6663 40.4676C21.8812 42.4385 20.27 43.7665 18.7025 44.6231C17.5709 45.2659 16.4822 45.6083 15.3936 45.7364C14.2716 45.8596 13.136 45.7128 12.0844 45.3086C9.95092 44.452 8.42745 42.5239 8.12244 40.2966C7.99195 39.226 8.07905 38.1553 8.51456 36.956C8.64505 36.5272 8.86296 36.0998 9.08055 35.5856C9.38557 34.9004 9.73398 34.1716 10.0817 33.4434L10.1258 33.3584C13.1296 26.9757 16.3518 20.4652 19.7044 14.1262L19.8348 13.8685C20.1836 13.2266 20.5313 12.5414 20.8801 11.8989C21.2281 11.2134 21.6199 10.5706 22.0988 10.0137C23.0132 8.98547 24.2323 8.42865 25.5819 8.42865C26.9315 8.42865 28.1509 8.98547 29.0653 10.0137C29.5442 10.5709 29.936 11.2137 30.2844 11.8989C30.6329 12.5417 30.9809 13.2266 31.3293 13.8685L31.4602 14.1262C34.769 20.5079 37.9912 27.0187 40.9953 33.401V33.4434C41.3438 34.1289 41.6481 34.9004 41.9965 35.5856C42.2144 36.0998 42.432 36.5276 42.5625 36.956C42.9109 38.0693 43.0414 39.1409 42.8675 40.2539ZM25.4952 38.2407C23.1441 35.3282 21.6199 32.5868 21.0977 30.2745C20.8801 29.2889 20.8364 28.4324 20.9672 27.6612C21.0543 26.9757 21.3156 26.3758 21.6637 25.8614C22.491 24.706 23.8843 23.9765 25.4952 23.9765C27.1064 23.9765 28.5431 24.6624 29.3266 25.8614C29.6747 26.3758 29.936 26.9757 30.0231 27.6612C30.1536 28.4324 30.1102 29.3319 29.8926 30.2745C29.37 32.5445 27.8462 35.2856 25.4952 38.2407ZM45.1315 36.0134C44.9139 35.4996 44.696 34.9428 44.4788 34.4717C44.1304 33.7011 43.7819 32.9723 43.4769 32.2868L43.4335 32.2444C40.4297 25.819 37.2076 19.3083 33.8112 12.8842L33.6808 12.6264C33.3323 11.9836 32.9839 11.2981 32.6359 10.6132C32.2 9.84172 31.7648 9.0288 31.0684 8.25728C29.6747 6.54382 27.672 5.60156 25.5389 5.60156C23.3616 5.60156 21.4027 6.54382 19.9657 8.17191C19.3129 8.94247 18.834 9.75635 18.3985 10.5279C18.0501 11.2131 17.7017 11.8983 17.3533 12.5411L17.2228 12.7975C13.8705 19.2226 10.605 25.7333 7.60048 32.1584L7.55709 32.2441C7.25207 32.9293 6.90366 33.6568 6.55526 34.4283C6.33767 34.8998 6.11975 35.4139 5.90248 35.9707C5.33616 37.5552 5.16228 39.0546 5.37955 40.5963C5.85877 43.8092 8.03599 46.5079 11.0402 47.7069C12.1719 48.1784 13.3476 48.3924 14.567 48.3924C14.9154 48.3924 15.3506 48.3497 15.699 48.3064C17.1357 48.1347 18.6157 47.6646 20.0524 46.8503C21.8379 45.8654 23.5359 44.452 25.4514 42.3958C27.367 44.452 29.1087 45.8654 30.8501 46.8503C32.2875 47.6646 33.7675 48.135 35.2042 48.3064C35.5526 48.3497 35.9878 48.3924 36.3362 48.3924C37.5553 48.3924 38.7741 48.1784 39.863 47.7069C42.9109 46.5079 45.0441 43.7665 45.523 40.5963C45.8714 39.0969 45.6969 37.5985 45.1312 36.0131L45.1315 36.0134Z" fill="white"/>
</svg>
