<svg width="59" height="54" viewBox="0 0 59 54" fill="none" xmlns="http://www.w3.org/2000/svg">
<g id="amazon-icon 1">
<g id="Group">
<path id="Vector" d="M18.6328 26.6005C18.6328 24.5621 19.1316 22.8191 20.1292 21.3717C21.1268 19.9243 22.4912 18.8315 24.2224 18.093C25.8066 17.4135 27.758 16.9264 30.0763 16.6305C30.8682 16.542 32.1593 16.4238 33.9492 16.2759V15.5226C33.9492 13.6321 33.7439 12.362 33.333 11.7119C32.7168 10.8254 31.7488 10.3827 30.4281 10.3827H30.0763C29.1078 10.4712 28.2714 10.7813 27.5673 11.3129C26.8633 11.8448 26.4082 12.583 26.203 13.5286C26.0855 14.1192 25.7924 14.4588 25.3228 14.5476L20.2612 13.9272C19.7624 13.809 19.513 13.5433 19.513 13.1296C19.513 13.0411 19.5276 12.9376 19.5567 12.8198C20.0555 10.1907 21.2804 8.24113 23.2319 6.97064C25.1829 5.70093 27.4645 4.9917 30.0763 4.84375H31.1767C34.5209 4.84375 37.1326 5.71521 39.0112 7.45813C39.3051 7.75483 39.5778 8.07295 39.8252 8.41051C40.0738 8.75005 40.2724 9.05309 40.4185 9.31886C40.5655 9.58462 40.6979 9.96898 40.8149 10.4708C40.9327 10.9733 41.0202 11.3204 41.0796 11.512C41.138 11.704 41.1821 12.1177 41.2112 12.7531C41.2404 13.3882 41.255 13.7646 41.255 13.8828V24.6061C41.255 25.374 41.3649 26.0757 41.5851 26.7108C41.8054 27.3462 42.0185 27.804 42.223 28.0844C42.4283 28.3648 42.7663 28.8158 43.2356 29.4354C43.4117 29.702 43.4995 29.9384 43.4995 30.145C43.4995 30.3814 43.3825 30.5873 43.1469 30.765C40.7121 32.8923 39.3918 34.0446 39.1861 34.2219C38.8343 34.4877 38.4088 34.517 37.9096 34.3104C37.4995 33.9553 37.1401 33.6162 36.8316 33.2909C36.5239 32.9665 36.3037 32.7301 36.1713 32.5821C36.0397 32.4349 35.8266 32.1466 35.5334 31.7182C35.2403 31.2898 35.0339 31.0014 34.9172 30.8543C33.2743 32.6563 31.6605 33.7788 30.0763 34.2219C29.0783 34.517 27.8459 34.665 26.3791 34.665C24.1195 34.665 22.2638 33.9629 20.8116 32.5599C19.3589 31.1565 18.6328 29.17 18.6328 26.6005ZM26.203 25.714C26.203 26.8663 26.4894 27.7893 27.0611 28.4834C27.6335 29.1776 28.4034 29.5247 29.3718 29.5247C29.4601 29.5247 29.5846 29.51 29.7461 29.4806C29.9069 29.4505 30.0172 29.4358 30.0763 29.4358C31.3083 29.1113 32.2617 28.3141 32.9366 27.0436C33.2597 26.4823 33.5016 25.8695 33.6632 25.2047C33.8247 24.5402 33.9126 24.0008 33.9271 23.5871C33.9417 23.1738 33.9496 22.4943 33.9496 21.549V20.4412C32.2476 20.4412 30.9568 20.5594 30.0767 20.7958C27.4937 21.534 26.203 23.1734 26.203 25.714Z" fill="white"/>
<path id="Vector_2" d="M44.6877 39.9777C44.7468 39.8591 44.8346 39.7413 44.9524 39.6227C45.6857 39.1205 46.3897 38.7814 47.0646 38.6041C48.1796 38.309 49.2655 38.1463 50.3214 38.1166C50.6153 38.0864 50.8938 38.1019 51.1578 38.1606C52.4785 38.2784 53.27 38.5006 53.5347 38.8254C53.6518 39.0027 53.7101 39.2685 53.7101 39.6227V39.9333C53.7101 40.9666 53.4315 42.1855 52.8744 43.5885C52.3165 44.9915 51.5392 46.122 50.5412 46.9787C50.395 47.0966 50.2626 47.1553 50.1456 47.1553C50.0865 47.1553 50.0278 47.1406 49.9695 47.1112C49.7934 47.0228 49.7493 46.8601 49.8371 46.6237C50.923 44.0538 51.4655 42.2668 51.4655 41.2617C51.4655 40.9372 51.4072 40.7008 51.2902 40.5529C50.9963 40.1987 50.1752 40.0213 48.8254 40.0213C48.3258 40.0213 47.7395 40.0507 47.0646 40.1098C46.3314 40.1991 45.6565 40.2871 45.0399 40.3764C44.8638 40.3764 44.7468 40.3462 44.6873 40.2871C44.629 40.2284 44.614 40.1693 44.6435 40.1098C44.6435 40.0808 44.6581 40.0364 44.6877 39.9777ZM5.38473 39.2249C5.53169 38.9885 5.76612 38.9738 6.08919 39.18C13.4245 43.4636 21.4056 45.6055 30.0316 45.6055C35.7831 45.6055 41.4605 44.527 47.0646 42.3704C47.2108 42.3117 47.4239 42.2232 47.7025 42.1046C47.9818 41.9868 48.1796 41.8979 48.2966 41.8388C48.7367 41.6615 49.0815 41.7504 49.3309 42.1046C49.581 42.4596 49.5003 42.7841 49.0893 43.0792C48.5606 43.4636 47.8857 43.9066 47.0646 44.4088C44.5415 45.9157 41.7241 47.0823 38.6139 47.9097C35.5041 48.7371 32.4669 49.1501 29.5037 49.1501C24.9263 49.1501 20.5983 48.3452 16.5201 46.7352C12.4415 45.1252 8.78842 42.8575 5.56085 39.9337C5.38473 39.7857 5.29688 39.6378 5.29688 39.4902C5.29688 39.4014 5.32603 39.3129 5.38473 39.2249Z" fill="white"/>
</g>
</g>
</svg>
