<svg width="113" height="23" viewBox="0 0 113 23" fill="none" xmlns="http://www.w3.org/2000/svg">
<path d="M0 12.1322C0 9.11769 1.68777 5.48544 5.38597 5.48544C7.29712 5.48544 8.38921 6.57264 9.30756 8.79647V6.10317C9.30756 5.95491 9.40684 5.85607 9.55576 5.85607H12.9313C13.0802 5.85607 13.1795 5.95491 13.1795 6.10317V18.186C13.1795 18.3342 13.0802 18.433 12.9313 18.433H9.55576C9.40684 18.433 9.30756 18.3342 9.30756 18.186V15.4927C8.58777 17.2223 7.69425 18.7543 5.38597 18.7543C1.96079 18.7543 0 15.5421 0 12.1322ZM4.02086 12.1322C4.02086 13.9607 4.96403 15.5174 6.80072 15.5174C8.8608 15.5174 9.55576 13.6889 9.55576 12.1322C9.55576 10.3284 8.61259 8.72234 6.80072 8.72234C4.69101 8.72234 4.02086 10.6991 4.02086 12.1322ZM15.9664 22.6576V6.10317C15.9664 5.95491 16.0657 5.85607 16.2146 5.85607H19.5583C19.7072 5.85607 19.8065 5.95491 19.8065 6.10317V8.79647C20.5511 6.67148 21.8417 5.48544 23.7032 5.48544C27.3518 5.48544 29.0644 8.8953 29.0644 12.1322C29.0644 15.6409 27.0291 18.8037 23.7032 18.8037C21.6432 18.8037 20.3773 17.2223 19.8065 15.4432V22.7549C19.8065 22.9525 19.66 22.9944 19.5086 22.9944H16.2957C16.0731 22.9944 15.9664 22.8521 15.9664 22.6576ZM19.5335 12.1322C19.5335 13.6889 20.2036 15.5174 22.3133 15.5174C24.0507 15.5174 25.0684 14.0595 25.0684 12.1322C25.0684 10.4767 24.2989 8.72234 22.3133 8.72234C20.5014 8.72234 19.5335 10.3037 19.5335 12.1322ZM31.1989 12.1075C31.1989 7.90694 34.1774 5.43602 37.8259 5.43602C41.5986 5.43602 44.4777 8.03048 44.4777 12.1075C44.4777 15.6409 42.0205 18.8037 37.8259 18.8037C34.227 18.8037 31.1989 16.2339 31.1989 12.1075ZM35.0461 12.1075C35.0461 13.4171 35.6914 15.5174 37.8259 15.5174C39.9604 15.5174 40.6058 13.4171 40.6058 12.1075C40.6058 10.3531 39.613 8.67292 37.8259 8.67292C36.0389 8.67292 35.0461 10.3531 35.0461 12.1075ZM46.7612 18.1612C46.7612 18.3095 46.8604 18.4083 47.0094 18.4083H50.3849C50.5338 18.4083 50.6331 18.3095 50.6331 18.1612V0.938949C50.6331 0.790694 50.5338 0.691857 50.3849 0.691857H47.0094C46.8604 0.691857 46.7612 0.790694 46.7612 0.938949V18.1612ZM53.1648 2.10028C53.1648 3.28632 54.1328 4.22527 55.3489 4.22527C56.5403 4.22527 57.5083 3.28632 57.5083 2.10028C57.5083 0.938949 56.5403 0 55.3489 0C54.1328 0 53.1648 0.938949 53.1648 2.10028ZM53.413 18.1612C53.413 18.3095 53.5123 18.4083 53.6612 18.4083H57.0615C57.2105 18.4083 57.3097 18.3095 57.3097 18.1612V6.10317C57.3097 5.95491 57.2105 5.85607 57.0615 5.85607H53.6612C53.5123 5.85607 53.413 5.95491 53.413 6.10317V18.1612ZM59.5436 8.84588V6.10317C59.5436 5.95491 59.6428 5.85607 59.7918 5.85607H61.9263V2.61917C61.9263 2.47092 62.0256 2.37208 62.1745 2.37208H65.5748C65.7238 2.37208 65.8231 2.47092 65.8231 2.61917V5.85607H68.9752C69.1241 5.85607 69.2234 5.95491 69.2234 6.10317V8.84588C69.2234 8.99414 69.1241 9.09298 68.9752 9.09298H65.7734V13.3924C65.7734 14.9738 66.5925 15.3444 67.7838 15.3444C68.1065 15.3444 68.4788 15.3197 68.7766 15.295C69.0248 15.2456 69.1738 15.3691 69.1738 15.6162V18.013C69.1738 18.2354 69.0745 18.3589 68.8511 18.4083C68.3795 18.5072 67.7838 18.5813 66.7662 18.5813C63.7133 18.5813 61.9263 17.3458 61.9263 14.0101V9.09298H59.7918C59.6428 9.09298 59.5436 8.99414 59.5436 8.84588ZM71.8792 2.10028C71.8792 3.28632 72.8471 4.22527 74.0633 4.22527C75.2547 4.22527 76.2227 3.28632 76.2227 2.10028C76.2227 0.938949 75.2547 0 74.0633 0C72.8471 0 71.8792 0.938949 71.8792 2.10028ZM72.1025 18.1612C72.1025 18.3095 72.2018 18.4083 72.3507 18.4083H75.7263C75.8752 18.4083 75.9745 18.3095 75.9745 18.1612V6.10317C75.9745 5.95491 75.8752 5.85607 75.7263 5.85607H72.3507C72.2018 5.85607 72.1025 5.95491 72.1025 6.10317V18.1612ZM78.4069 12.1075C78.4069 8.3517 80.8144 5.43602 84.9842 5.43602C88.3101 5.43602 90.1716 7.23979 91.0155 9.34007C91.09 9.51303 91.0155 9.61187 90.8666 9.66129L87.8385 10.6991C87.6896 10.7485 87.5903 10.6991 87.5407 10.5508C87.1684 9.51303 86.25 8.67292 84.9842 8.67292C83.2468 8.67292 82.2788 10.2296 82.2788 12.1075C82.2788 13.6889 82.9738 15.5174 84.9842 15.5174C85.9274 15.5174 87.1436 14.9491 87.5159 13.6889C87.5655 13.5653 87.64 13.4912 87.7392 13.5159L90.8666 14.529C90.9907 14.5784 91.0651 14.6278 91.0651 14.7514C90.395 16.8269 88.2108 18.8037 84.9842 18.8037C81.2612 18.8037 78.4069 16.2339 78.4069 12.1075ZM92.8274 12.1322C92.8274 9.11769 94.5151 5.48544 98.2133 5.48544C100.124 5.48544 101.217 6.57264 102.135 8.79647V6.10317C102.135 5.95491 102.234 5.85607 102.383 5.85607H105.759C105.908 5.85607 106.007 5.95491 106.007 6.10317V18.186C106.007 18.3342 105.908 18.433 105.759 18.433H102.383C102.234 18.433 102.135 18.3342 102.135 18.186V15.4927C101.415 17.2223 100.522 18.7543 98.2133 18.7543C94.7882 18.7543 92.8274 15.5421 92.8274 12.1322ZM96.8482 12.1322C96.8482 13.9607 97.7914 15.5174 99.6281 15.5174C101.688 15.5174 102.383 13.6889 102.383 12.1322C102.383 10.3284 101.44 8.72234 99.6281 8.72234C97.5184 8.72234 96.8482 10.6991 96.8482 12.1322ZM109.134 18.1612C109.134 18.3095 109.233 18.4083 109.382 18.4083H112.733C112.882 18.4083 112.981 18.3095 112.981 18.1612V0.938949C112.981 0.790694 112.882 0.691857 112.733 0.691857H109.382C109.233 0.691857 109.134 0.790694 109.134 0.938949V18.1612Z" fill="#808080"/>
<path fill-rule="evenodd" clip-rule="evenodd" d="M7.1483 20.5234C5.84579 20.5234 4.62677 20.7065 3.54134 21.1558C2.66456 21.5188 1.89674 21.9795 1.21147 22.5642C1.15619 22.6114 1.125 22.6807 1.125 22.7534C1.125 22.8928 1.23803 23.0058 1.37747 23.0058H12.8604C13.0131 23.0058 13.1369 22.882 13.1369 22.7293C13.1369 22.6494 13.1026 22.5732 13.0416 22.5217C12.3728 21.9571 11.6107 21.5099 10.7553 21.1558C9.63645 20.7065 8.45082 20.5234 7.1483 20.5234Z" fill="#808080"/>
</svg>
