<svg width="54" height="54" viewBox="0 0 54 54" fill="none" xmlns="http://www.w3.org/2000/svg">
<g id="apple-icon 1">
<path id="Vector" fill-rule="evenodd" clip-rule="evenodd" d="M39.6768 28.4533C39.6185 22.5764 44.47 19.7561 44.6868 19.6165C41.9599 15.6277 37.7115 15.0795 36.1978 15.0178C32.5825 14.6528 29.1446 17.1475 27.3078 17.1475C25.4762 17.1475 22.6457 15.0726 19.6481 15.1275C15.7081 15.1857 12.0757 17.4191 10.0446 20.9479C5.95122 28.0498 8.99758 38.5759 12.9873 44.3347C14.9363 47.1549 17.2605 50.323 20.3129 50.2099C23.2513 50.0942 24.3633 48.3063 27.9178 48.3063C31.4713 48.3063 32.4694 50.2099 35.5801 50.1491C38.7429 50.0908 40.7467 47.274 42.6828 44.4444C44.9231 41.1717 45.8415 38.0071 45.8972 37.8444C45.8269 37.8127 39.7298 35.4773 39.6682 28.4558L39.6767 28.4533H39.6768ZM33.8342 11.202C35.4533 9.23763 36.5473 6.51077 36.2483 3.78906C33.9155 3.88415 31.0867 5.34394 29.4119 7.3058C27.9084 9.04745 26.5951 11.8231 26.9463 14.4891C29.5515 14.6922 32.2115 13.1656 33.8315 11.2054L33.8342 11.202Z" fill="white"/>
</g>
</svg>
