<svg width="25" height="26" viewBox="0 0 25 26" fill="none" xmlns="http://www.w3.org/2000/svg">
<rect x="0.5" y="0.609375" width="24" height="24" rx="12" fill="black"/>
<rect x="0.5" y="0.609375" width="24" height="24" rx="12" stroke="#484848"/>
<path d="M8.5 12.1094C8.22386 12.1094 8 12.3332 8 12.6094C8 12.8855 8.22386 13.1094 8.5 13.1094L8.5 12.1094ZM16.8536 12.9629C17.0488 12.7677 17.0488 12.4511 16.8536 12.2558L13.6716 9.07384C13.4763 8.87858 13.1597 8.87858 12.9645 9.07384C12.7692 9.2691 12.7692 9.58569 12.9645 9.78095L15.7929 12.6094L12.9645 15.4378C12.7692 15.6331 12.7692 15.9496 12.9645 16.1449C13.1597 16.3402 13.4763 16.3402 13.6716 16.1449L16.8536 12.9629ZM8.5 13.1094L16.5 13.1094L16.5 12.1094L8.5 12.1094L8.5 13.1094Z" fill="white"/>
</svg>
