<svg width="1355" height="84" viewBox="0 0 1355 84" fill="none" xmlns="http://www.w3.org/2000/svg">
<path d="M112.604 1.72603C172.307 1.72603 202.158 12.6575 202.158 23.589C202.158 33.4849 177.597 43.3808 128.852 45.1068C159.837 48.5589 178.731 56.4986 178.731 64.2082C178.731 73.4137 151.146 82.274 84.642 82.274H0.37788V3.56712H0V1.72603H112.604ZM108.448 43.611C144.345 43.611 162.104 33.6 162.104 23.589C162.104 13.5781 144.345 3.56712 108.448 3.56712H34.7637V80.4329H82.3747C123.184 80.4329 143.589 71.9178 143.589 63.1726C143.589 54.0822 121.673 44.8767 77.8404 44.8767C67.2601 44.8767 55.5462 45.337 42.3209 46.6027C60.8363 44.3014 77.8403 43.2658 93.3328 43.2658C98.6229 43.2658 103.535 43.3808 108.448 43.611Z" fill="url(#paint0_linear_752_46852)" fill-opacity="0.9"/>
<path d="M366.167 82.274H359.743L225.601 1.72603H261.498C261.498 1.72603 261.498 2.53152 259.986 2.64658C256.586 2.99179 252.807 5.06303 252.807 8.51508C252.807 11.6219 255.83 15.8794 264.521 21.1726L346.896 70.7671L433.049 19.1014C406.22 27.7315 366.167 34.2904 331.781 34.2904C308.731 34.2904 288.326 31.5288 275.479 24.3945C290.216 30.3781 309.865 32.9096 330.647 32.9096C375.235 32.9096 425.114 21.9781 447.03 10.7014L462.145 1.72603H500.309L366.167 82.274Z" fill="url(#paint1_linear_752_46852)" fill-opacity="0.9"/>
<path d="M649.159 1.72603C708.862 1.72603 738.713 12.6575 738.713 23.589C738.713 33.4849 714.151 43.3808 665.407 45.1068C696.392 48.5589 715.285 56.4986 715.285 64.2082C715.285 73.4137 687.701 82.274 621.197 82.274H536.932V3.56712L536.932 3.3993V1.72603H649.159ZM645.002 43.611C680.899 43.611 698.659 33.6 698.659 23.589C698.659 13.5781 680.899 3.56712 645.002 3.56712H571.318V80.4329H618.929C659.739 80.4329 680.144 71.9178 680.144 63.1726C680.144 54.0822 658.227 44.8767 614.395 44.8767C603.815 44.8767 592.101 45.337 578.876 46.6027C597.391 44.3014 614.395 43.2658 629.888 43.2658C635.178 43.2658 640.09 43.3808 645.002 43.611Z" fill="url(#paint2_linear_752_46852)" fill-opacity="0.9"/>
<path d="M940.508 2.64658C852.087 2.64658 801.075 27.3863 801.075 49.1343C801.075 66.1644 832.438 81.3534 901.588 81.3534C917.836 81.3534 954.111 78.937 954.111 69.9616C954.111 68.6959 953.355 67.3151 951.844 65.7041C968.47 64.2082 981.695 67.8904 981.695 72.263C981.695 77.326 963.936 83.3096 912.924 83.3096C834.328 83.3096 765.556 68.926 765.556 42C765.556 21.0575 817.324 0 921.237 0C980.94 0 1010.79 7.24932 1030.82 18.7562C1009.66 9.66576 980.94 2.64658 940.508 2.64658Z" fill="url(#paint3_linear_752_46852)" fill-opacity="0.9"/>
<path d="M1199.32 84C1095.78 84 1044.02 63.0575 1044.02 42C1044.02 21.0575 1095.78 0 1199.32 0C1303.23 0 1355 21.0575 1355 42C1355 63.0575 1303.23 84 1199.32 84ZM1218.59 2.64658C1130.17 2.64658 1079.54 27.3863 1079.54 49.1343C1079.54 66.1644 1110.9 81.3534 1180.05 81.3534C1268.47 81.3534 1319.48 56.7288 1319.48 34.9808C1319.48 17.9507 1288.12 2.64658 1218.59 2.64658Z" fill="url(#paint4_linear_752_46852)" fill-opacity="0.9"/>
<defs>
<linearGradient id="paint0_linear_752_46852" x1="329" y1="-112" x2="329" y2="124.353" gradientUnits="userSpaceOnUse">
<stop stop-color="#404040"/>
<stop offset="1" stop-color="#0F0F0F"/>
</linearGradient>
<linearGradient id="paint1_linear_752_46852" x1="329" y1="-112" x2="329" y2="124.353" gradientUnits="userSpaceOnUse">
<stop stop-color="#404040"/>
<stop offset="1" stop-color="#0F0F0F"/>
</linearGradient>
<linearGradient id="paint2_linear_752_46852" x1="329" y1="-112" x2="329" y2="124.353" gradientUnits="userSpaceOnUse">
<stop stop-color="#404040"/>
<stop offset="1" stop-color="#0F0F0F"/>
</linearGradient>
<linearGradient id="paint3_linear_752_46852" x1="329" y1="-112" x2="329" y2="124.353" gradientUnits="userSpaceOnUse">
<stop stop-color="#404040"/>
<stop offset="1" stop-color="#0F0F0F"/>
</linearGradient>
<linearGradient id="paint4_linear_752_46852" x1="329" y1="-112" x2="329" y2="124.353" gradientUnits="userSpaceOnUse">
<stop stop-color="#404040"/>
<stop offset="1" stop-color="#0F0F0F"/>
</linearGradient>
</defs>
</svg>
