<svg width="425" height="168" viewBox="0 0 425 168" fill="none" xmlns="http://www.w3.org/2000/svg">
<rect width="425" height="168" fill="#5E67ED"/>
<path d="M171.281 85.7969C171.281 73.3224 180.849 66.9844 189.966 66.9844C197.003 66.9844 201.907 70.6137 203.314 73.4621H203.537V67.679H211.693V103.919H203.537V98.1359H203.314C201.903 100.997 197.016 104.614 189.966 104.614C180.849 104.614 171.281 98.2715 171.281 85.7969ZM191.522 97.6385C197.755 97.6385 203.751 93.6023 203.751 85.7969C203.751 77.9916 197.742 73.9553 191.522 73.9553C185.303 73.9553 179.358 77.9916 179.358 85.7969C179.358 93.6023 185.368 97.6385 191.522 97.6385Z" fill="white"/>
<path d="M218.664 67.6749H226.75V77.001C228.07 71.5714 231.894 66.9844 238.87 66.9844C239.744 66.9844 240.492 67.0584 241.3 67.2557V74.5637C240.492 74.428 239.836 74.354 238.949 74.354C231.676 74.354 226.75 79.3644 226.75 86.9437V103.849H218.664V67.6626V67.6749Z" fill="white"/>
<path d="M244.531 85.7969C244.531 73.5978 254.523 66.9844 264.514 66.9844C271.202 66.9844 277.382 69.9807 280.905 75.9036L274.882 79.459C272.674 76.1132 268.924 74.0211 264.589 74.0211C258.413 74.0211 252.534 78.3451 252.534 85.801C252.534 93.257 258.413 97.581 264.589 97.581C268.924 97.581 272.674 95.4889 274.882 92.1431L280.905 95.6985C277.377 101.556 271.202 104.618 264.514 104.618C254.523 104.618 244.531 97.992 244.531 85.801V85.7969Z" fill="white"/>
<path fill-rule="evenodd" clip-rule="evenodd" d="M131.787 77.2578L124.383 84.2164L134.96 94.1303L124.383 104.04L131.787 110.999L149.79 94.1303L131.787 77.2578Z" fill="white"/>
<path fill-rule="evenodd" clip-rule="evenodd" d="M113.564 84.2218C113.564 74.7723 121.711 67.1108 131.759 67.1108C141.808 67.1108 149.955 74.7723 149.955 84.2218C149.955 84.2793 149.955 84.3327 149.95 84.3903H160.519C160.519 69.355 147.643 57.1641 131.759 57.1641C115.876 57.1641 103 69.355 103 84.3903H113.568C113.568 84.3327 113.564 84.2793 113.564 84.2218Z" fill="white"/>
<path d="M286.836 57H294.961V73.0875C297.02 69.75 301.089 66.9632 307.3 66.9632C315.202 66.9632 321.999 71.6242 321.999 82.5492V103.849H313.808V83.8111C313.808 77.4772 310.119 73.9301 304.424 73.9301C298.729 73.9301 294.974 77.4813 294.974 83.8111V103.849H286.849L286.836 57.0041V57Z" fill="white"/>
</svg>
