<svg width="256" height="179" viewBox="0 0 256 179" fill="none" xmlns="http://www.w3.org/2000/svg">
<g clip-path="url(#clip0_757_54230)">
<rect width="256" height="179" fill="url(#paint0_linear_757_54230)"/>
<circle cx="130.5" cy="89.5" r="64.5" fill="#CFE2F8"/>
<path d="M125.002 54.8081C131.007 44.9255 143.886 41.7822 153.769 47.7874C163.652 53.7926 166.795 66.6722 160.79 76.5548L141.721 107.936C135.716 117.819 122.836 120.962 112.953 114.957C103.071 108.952 99.9276 96.072 105.933 86.1894L125.002 54.8081Z" fill="white"/>
<path fill-rule="evenodd" clip-rule="evenodd" d="M138.414 105.927L157.483 74.5454C162.378 66.4891 159.816 55.9897 151.76 51.0942C143.703 46.1988 133.204 48.7612 128.308 56.8175L109.24 88.1988C104.344 96.2551 106.907 106.755 114.963 111.65C123.019 116.545 133.519 113.983 138.414 105.927ZM153.769 47.7874C143.886 41.7822 131.007 44.9255 125.002 54.8081L105.933 86.1894C99.9276 96.072 103.071 108.952 112.953 114.957C122.836 120.962 135.716 117.819 141.721 107.936L160.79 76.5548C166.795 66.6722 163.652 53.7926 153.769 47.7874Z" fill="black"/>
<path fill-rule="evenodd" clip-rule="evenodd" d="M141.16 71.9998C142.064 72.5695 142.335 73.7641 141.765 74.6681L104.537 133.751C103.967 134.655 102.773 134.926 101.869 134.357C100.965 133.787 100.693 132.593 101.263 131.689L138.492 72.6053C139.061 71.7013 140.256 71.4302 141.16 71.9998Z" fill="black"/>
<path fill-rule="evenodd" clip-rule="evenodd" d="M145.143 99.0488C145.316 99.9223 144.748 100.771 143.874 100.944C132.304 103.235 126.515 101.782 124.018 100.026C123.29 99.514 123.114 98.5083 123.627 97.7799C124.139 97.0516 125.144 96.8763 125.873 97.3886C127.265 98.3678 131.937 100.021 143.248 97.7805C144.121 97.6075 144.97 98.1753 145.143 99.0488Z" fill="black"/>
</g>
<defs>
<linearGradient id="paint0_linear_757_54230" x1="128" y1="0" x2="128" y2="179" gradientUnits="userSpaceOnUse">
<stop stop-color="#EBECFF"/>
<stop offset="1" stop-color="#EBEDFA"/>
</linearGradient>
<clipPath id="clip0_757_54230">
<rect width="256" height="179" fill="white"/>
</clipPath>
</defs>
</svg>
