<svg width="54" height="28" viewBox="0 0 54 28" fill="none" xmlns="http://www.w3.org/2000/svg">
<path d="M28.6712 6.78082H27.3182L28.8036 1.28851C28.8938 0.981481 28.858 0.713645 28.6956 0.483369C28.5332 0.234313 28.2993 0.109375 27.9931 0.109375H27.2638C26.7164 0.109375 26.3631 0.27269 25.9668 0.598505C25.5883 0.92432 25.3276 1.31709 25.183 1.77764C24.6958 3.44836 24.2133 5.11011 23.7325 6.76694H22.6654C22.399 6.76694 22.1691 6.9523 22.1115 7.21361L21.6071 9.49595C21.5284 9.85198 21.798 10.19 22.161 10.19H22.7409C21.9783 12.888 21.1962 15.5942 20.4011 18.3117C20.1639 19.1218 20.3442 19.9032 21.1669 20.2078C21.504 20.3328 21.8898 20.3368 22.2333 20.3377C22.6946 20.3377 23.3833 20.2911 23.6034 19.6991C24.0606 18.4693 26.156 10.4326 26.156 10.4326H27.8071C28.0564 10.4326 28.2757 10.2701 28.3488 10.0308C28.5583 9.34651 28.9279 8.13961 29.1618 7.38918C29.3421 6.91393 28.9587 6.78082 28.6712 6.78082Z" fill="#808080"/>
<path d="M20.6411 7.75523L18.2688 16.1831L17.4777 18.9946C17.4209 19.2363 17.2901 19.6765 17.2349 19.7736C17.1675 19.8945 17.0838 20.0039 16.9669 20.0799C16.8499 20.1558 16.7175 20.1983 16.5852 20.2326C16.3813 20.2856 16.1742 20.3191 15.9639 20.3281C15.7568 20.3371 15.5497 20.3273 15.345 20.2897C15.1517 20.2538 14.9609 20.195 14.7854 20.1044C14.6214 20.0202 14.4711 19.9076 14.3517 19.7663C14.2324 19.625 14.1455 19.4519 14.1008 19.269C14.0488 19.0518 14.0537 18.824 14.0919 18.6051C14.1081 18.5145 14.1292 18.4246 14.1552 18.3365L16.9644 8.47219C17.2195 7.61397 17.7823 6.87496 19.0452 6.77779C19.6454 6.73125 20.9009 6.77207 20.6402 7.75523H20.6411Z" fill="#808080"/>
<path d="M18.9098 2.36849C18.6783 2.57917 18.4623 2.95562 18.3396 3.35492C18.2178 3.75178 18.1845 4.1813 18.256 4.48588C18.3437 4.85988 18.7108 5.13506 19.1217 5.14078C20.0257 5.15303 21.222 4.92684 21.412 4.30869C21.6021 3.69054 20.7534 2.70901 19.9899 2.29663C19.5335 2.05003 19.1908 2.11209 18.9098 2.36849Z" fill="#808080"/>
<path d="M18.3995 14.6702C18.2606 14.5282 18.082 14.4979 17.8903 14.5665C17.7311 14.6229 13.0385 16.2724 13.0385 16.2724H12.9841C13.3447 15.0075 13.7045 13.7516 14.065 12.5055C14.4435 11.2406 14.8122 9.97492 15.1728 8.71004C15.3166 8.19232 15.2622 7.73259 15.0104 7.33002C14.7765 6.92744 14.398 6.72656 13.8758 6.72656H7.01313C6.54451 6.72656 6.11245 6.89886 5.71612 7.24428C5.31979 7.57009 5.05827 7.96368 4.93239 8.42342L2.06874 18.3155C1.94286 18.8136 2.00621 19.2643 2.25797 19.6669C2.50974 20.0499 2.8882 20.2418 3.39255 20.2418H8.39135L7.4996 23.29H1.177C1.03325 23.29 0.86107 23.2966 0.735187 23.3921C0.590624 23.4877 0.537021 23.6542 0.501286 23.8078L0.150436 24.9583C0.00587282 25.5144 0.0781572 25.9741 0.366471 26.3383C0.654785 26.7213 1.06005 26.9132 1.58226 26.9132H8.31014C8.7422 26.9132 9.14746 26.7597 9.52593 26.4535C9.92226 26.166 10.2008 25.8108 10.3633 25.3895C10.3633 25.3707 10.3819 25.3225 10.4177 25.2458C10.6694 24.3834 11.8763 20.1274 11.8763 20.1274C11.8763 20.1274 17.4956 18.1521 17.4964 18.1497C17.6401 18.0925 17.6905 18.0288 17.7392 17.8622C17.9374 17.1869 18.5213 15.1643 18.5262 15.1447C18.5709 14.9413 18.5343 14.8074 18.3995 14.6702ZM9.44471 16.5908H6.04017L7.82366 10.3799H11.2282L9.44471 16.5908Z" fill="#808080"/>
<path d="M49.0397 10.4338H45.6352C45.6352 10.4338 43.6259 17.3208 42.9616 19.6448C42.9185 19.7967 42.8495 20.0057 42.6481 20.1486C42.3451 20.3626 41.6978 20.3675 41.1756 20.303C40.6534 20.2385 40.2668 20.0947 40.0143 19.6922C39.7804 19.2896 39.7349 18.8299 39.8794 18.3122L42.7163 8.4781C42.86 8.01837 43.1305 7.62478 43.5268 7.29896C43.941 6.95355 44.3731 6.78125 44.8238 6.78125H51.6865C52.1551 6.78125 52.5149 6.95355 52.7675 7.29896C53.0379 7.64438 53.1281 8.05593 53.0379 8.53526C53.0201 8.61202 52.9924 8.70756 52.9567 8.8227L52.2006 11.4104C52.0747 11.8702 51.8132 12.2638 51.4169 12.5896C51.0205 12.9154 50.5885 13.0787 50.1199 13.0787H49.3361C49.0478 13.0787 48.8229 12.9636 48.6604 12.7333C48.5167 12.503 48.4891 12.2442 48.5792 11.9567L49.0397 10.4338Z" fill="#808080"/>
<path d="M43.5261 14.8613C43.4206 14.7633 43.263 14.7111 43.0665 14.7748L38.1497 16.2724H38.1229L39.9332 10.0623L40.3384 8.65287C40.4643 8.15394 40.401 7.71381 40.1492 7.33002C39.8974 6.92744 39.519 6.72656 39.0146 6.72656H32.1519C31.702 6.72656 31.2789 6.88988 30.8826 7.21569C30.5041 7.52191 30.2426 7.89591 30.0988 8.33686C29.5579 10.0043 29.0633 11.6628 28.6126 13.3115C28.1627 14.9405 27.694 16.599 27.2076 18.2861C27.063 18.7842 27.1085 19.2349 27.3424 19.6375C27.6136 20.0662 28.0116 20.2328 28.6694 20.2409H28.8002C29.4645 20.2328 30.1573 20.0613 30.9727 19.6604L34.1775 17.9415L34.0694 18.2869C33.9257 18.785 33.9533 19.2423 34.2319 19.6383C34.4836 19.996 34.8597 20.2042 35.5784 20.2491C36.3751 20.2989 36.9518 20.1315 37.2856 20.0278C38.7158 19.582 42.6068 18.3408 42.6068 18.3408C42.7335 18.2836 42.8228 18.1872 42.8772 18.0533L43.661 15.3504C43.7154 15.139 43.661 14.9871 43.5261 14.8613ZM35.3128 14.0015L31.287 16.158L32.9625 10.3783H36.3662L35.3128 14.0015Z" fill="#808080"/>
</svg>
