<svg width="80" height="54" viewBox="0 0 80 54" fill="none" xmlns="http://www.w3.org/2000/svg">
<g id="king-101 1">
<g id="Group">
<path id="Vector" d="M23.7576 48.3519C23.7576 48.3519 21.5439 47.5421 20.0313 42.4608C18.5187 37.3801 17.6299 29.3101 16.0427 25.1594C15.1006 22.6944 12.5804 20.3038 10.5858 20.4425C10.5858 20.4425 7.61213 20.4395 7.10606 23.5896C6.66696 26.3191 9.09307 29.0721 12.4652 27.6686C12.4652 27.6686 13.9708 30.8763 14.337 38.8742C14.7027 46.8718 17.0683 49.2638 23.7576 48.3519ZM64.5613 24.1734C64.5613 24.1734 62.9377 21.5972 60.3188 21.5972C57.6996 21.5972 55.4436 24.4522 54.7773 27.5506C54.1112 30.6487 54.1869 33.0519 53.9596 34.2306C53.7323 35.4095 52.3083 37.9936 52.1119 35.1374C51.9149 32.2807 52.4655 27.4569 52.095 25.6868C51.7246 23.9167 50.5356 21.9512 48.6447 21.9512C46.7538 21.9512 44.9801 24.1105 44.2588 26.8535C44.2588 26.8535 44.59 21.0762 39.2684 26.0951C39.2684 26.0951 39.6579 31.1526 39.2096 34.3038C38.761 37.4556 37.0847 37.7671 36.7927 34.7904C36.5002 31.8142 36.3833 27.7486 36.3833 27.7486L31.1783 30.3358C31.1783 30.3358 32.2703 38.5059 30.0087 38.8756C27.7476 39.2453 24.6798 31.2108 24.4226 30.2972C24.4226 30.2972 45.1897 26.4911 44.4266 10.4293C44.4266 10.4293 44.1506 5.11595 39.4452 4.85114C34.7396 4.5866 32.7842 11.4984 37.4571 13.7472C37.4571 13.7472 39.8759 14.8054 41.5993 13.7805L41.6618 13.9197C41.6618 13.9197 41.5892 23.2246 18.3511 27.5143C18.3511 27.5143 22.296 44.3391 27.7897 44.3078C27.7897 44.3078 30.5047 44.4946 31.8469 39.0439C31.8469 39.0439 32.3151 42.0965 35.1554 42.0965C37.9954 42.0965 39.4623 37.2372 39.4623 37.2372C39.4623 37.2372 38.6511 41.972 44.3006 40.6633C44.3006 40.6633 44.1128 32.4093 44.4566 29.887C44.7999 27.3638 47.8274 25.526 47.5155 31.9423C47.203 38.3588 46.922 40.6323 49.7 40.6323C52.4781 40.6323 54.4438 37.6734 54.5685 36.2095C54.6935 34.7459 54.3502 40.321 58.0648 40.321C58.0648 40.321 61.0919 40.29 62.5275 37.4869C62.5275 37.4869 62.7463 44.4943 57.2533 44.4943C51.7602 44.4943 40.5372 40.2693 30.3158 46.9686C30.3158 46.9686 33.2763 45.6772 41.2644 45.7161C49.2525 45.7555 56.653 48.5686 59.9812 48.5686C63.3096 48.5686 66.325 47.2009 66.4819 37.4324C66.638 27.663 67.7348 26.4125 67.7348 26.4125C67.7348 26.4125 72.2275 27.7528 72.6326 23.0557C72.9294 19.5978 67.2693 16.4521 64.5613 24.1734ZM62.8879 34.1545C62.8879 34.1545 62.2921 35.8239 60.5918 35.8239C58.8906 35.8239 58.0681 34.1545 58.6636 29.7692C59.2588 25.384 61.8104 23.6153 63.7383 26.7067C63.7383 26.7067 62.9445 31.0707 62.8879 34.1545Z" fill="white"/>
</g>
</g>
</svg>
