<svg width="81" height="54" viewBox="0 0 81 54" fill="none" xmlns="http://www.w3.org/2000/svg">
<g id="meta-black-icon 1">
<path id="Vector" d="M53.2361 7.5C48.4392 7.5 44.6892 11.1246 41.2948 15.729C36.6302 9.77046 32.729 7.5 28.0606 7.5C18.5426 7.5 11.25 19.9266 11.25 33.0794C11.25 41.3099 15.2191 46.5012 21.8672 46.5012C26.6521 46.5012 30.0934 44.238 36.211 33.5098C36.211 33.5098 38.7612 28.9918 40.5156 25.8796C41.1733 26.9464 41.8208 28.0194 42.458 29.0985L45.3268 33.9401C50.9152 43.3217 54.0288 46.5012 59.6707 46.5012C66.1474 46.5012 69.7517 41.239 69.7517 32.8374C69.7517 19.0658 62.2947 7.5 53.2361 7.5ZM31.546 30.6049C26.5859 38.405 24.87 40.1535 22.1085 40.1535C19.2666 40.1535 17.5774 37.6503 17.5774 33.187C17.5774 23.6384 22.3229 13.8746 27.9801 13.8746C31.0436 13.8746 33.6036 15.6496 37.525 21.2815C33.8015 27.0112 31.546 30.6049 31.546 30.6049ZM50.2659 29.6228L46.8358 23.8839C45.9076 22.3694 45.0156 20.9753 44.1596 19.7018C47.2511 14.915 49.8012 12.5298 52.834 12.5298C59.1345 12.5298 64.175 21.8363 64.175 33.2677C64.175 37.6251 62.7524 40.1535 59.8047 40.1535C56.9796 40.1535 55.6301 38.2816 50.2659 29.6228Z" fill="white"/>
</g>
</svg>
