<svg width="259" height="311" viewBox="0 0 259 311" fill="none" xmlns="http://www.w3.org/2000/svg">
<rect width="259" height="310" transform="translate(0 0.287109)" fill="#FCF7EF"/>
<path d="M162.93 142.841H160.423L163.175 132.67C163.342 132.101 163.276 131.605 162.975 131.179C162.674 130.718 162.241 130.486 161.674 130.486H160.323C159.309 130.486 158.654 130.789 157.92 131.392C157.219 131.995 156.736 132.723 156.468 133.576C155.565 136.67 154.671 139.747 153.781 142.815H151.804C151.31 142.815 150.884 143.158 150.778 143.642L149.843 147.869C149.697 148.528 150.197 149.154 150.869 149.154H151.944C150.531 154.15 149.082 159.162 147.609 164.194C147.17 165.694 147.504 167.142 149.028 167.706C149.652 167.937 150.367 167.945 151.003 167.946C151.858 167.946 153.134 167.86 153.542 166.764C154.389 164.486 158.27 149.603 158.27 149.603H161.329C161.791 149.603 162.197 149.302 162.333 148.859C162.721 147.592 163.406 145.357 163.839 143.967C164.173 143.087 163.463 142.841 162.93 142.841Z" fill="#34113A"/>
<path d="M148.059 144.655L143.664 160.262L142.199 165.469C142.093 165.916 141.851 166.731 141.749 166.911C141.624 167.135 141.469 167.338 141.252 167.478C141.036 167.619 140.79 167.698 140.545 167.761C140.167 167.859 139.784 167.921 139.394 167.938C139.01 167.955 138.627 167.936 138.248 167.867C137.889 167.8 137.536 167.691 137.211 167.524C136.907 167.368 136.629 167.159 136.407 166.898C136.186 166.636 136.025 166.315 135.943 165.977C135.846 165.574 135.855 165.153 135.926 164.747C135.956 164.579 135.995 164.413 136.043 164.25L141.248 145.983C141.72 144.393 142.763 143.025 145.102 142.845C146.214 142.759 148.54 142.834 148.057 144.655H148.059Z" fill="#34113A"/>
<path d="M144.854 134.68C144.425 135.07 144.025 135.767 143.798 136.507C143.572 137.241 143.511 138.037 143.643 138.601C143.805 139.293 144.486 139.803 145.247 139.814C146.921 139.836 149.138 139.417 149.49 138.273C149.842 137.128 148.27 135.31 146.855 134.547C146.01 134.09 145.375 134.205 144.854 134.68Z" fill="#34113A"/>
<path d="M143.9 157.451C143.643 157.188 143.312 157.132 142.957 157.259C142.662 157.363 133.969 160.418 133.969 160.418H133.868C134.536 158.075 135.202 155.75 135.87 153.442C136.571 151.1 137.255 148.756 137.923 146.413C138.189 145.455 138.088 144.603 137.622 143.858C137.188 143.112 136.487 142.74 135.52 142.74H122.806C121.938 142.74 121.138 143.059 120.403 143.699C119.669 144.302 119.185 145.031 118.951 145.883L113.646 164.201C113.413 165.124 113.53 165.958 113.997 166.704C114.463 167.413 115.164 167.768 116.099 167.768H125.359L123.707 173.413H111.994C111.728 173.413 111.409 173.425 111.176 173.602C110.908 173.779 110.809 174.088 110.742 174.372L110.092 176.503C109.825 177.533 109.959 178.384 110.493 179.058C111.027 179.768 111.778 180.123 112.745 180.123H125.209C126.009 180.123 126.76 179.839 127.461 179.272C128.195 178.739 128.712 178.081 129.012 177.301C129.012 177.266 129.047 177.177 129.113 177.035C129.58 175.438 131.816 167.557 131.816 167.557C131.816 167.557 142.226 163.899 142.227 163.894C142.493 163.788 142.587 163.67 142.677 163.362C143.044 162.111 144.126 158.366 144.135 158.329C144.218 157.953 144.15 157.705 143.9 157.451ZM127.311 161.007H121.004L124.308 149.506H130.615L127.311 161.007Z" fill="#34113A"/>
<path d="M200.675 149.604H194.368C194.368 149.604 190.646 162.358 189.415 166.661C189.335 166.943 189.207 167.33 188.834 167.594C188.273 167.99 187.074 168 186.107 167.88C185.139 167.761 184.423 167.494 183.955 166.749C183.522 166.003 183.437 165.152 183.705 164.193L188.961 145.982C189.227 145.131 189.728 144.402 190.462 143.799C191.23 143.159 192.03 142.84 192.865 142.84H205.579C206.447 142.84 207.113 143.159 207.581 143.799C208.082 144.438 208.249 145.2 208.082 146.088C208.049 146.23 207.998 146.407 207.932 146.62L206.531 151.412C206.298 152.264 205.813 152.993 205.079 153.596C204.345 154.199 203.545 154.502 202.676 154.502H201.224C200.69 154.502 200.274 154.289 199.973 153.862C199.706 153.436 199.655 152.956 199.822 152.424L200.675 149.604Z" fill="#34113A"/>
<path d="M190.458 157.809C190.262 157.627 189.97 157.53 189.606 157.648L180.498 160.422H180.448L183.802 148.921L184.552 146.311C184.786 145.387 184.668 144.572 184.202 143.862C183.735 143.116 183.034 142.744 182.1 142.744H169.386C168.553 142.744 167.769 143.047 167.035 143.65C166.334 144.217 165.849 144.91 165.583 145.726C164.581 148.814 163.664 151.885 162.829 154.938C161.996 157.955 161.128 161.026 160.226 164.151C159.959 165.073 160.043 165.908 160.476 166.653C160.979 167.447 161.716 167.756 162.935 167.771H163.177C164.408 167.756 165.691 167.438 167.202 166.696L173.139 163.512L172.939 164.152C172.672 165.075 172.723 165.921 173.24 166.655C173.706 167.317 174.403 167.703 175.734 167.786C177.21 167.878 178.278 167.568 178.897 167.376C181.546 166.55 188.755 164.252 188.755 164.252C188.989 164.146 189.155 163.968 189.256 163.72L190.708 158.714C190.808 158.323 190.708 158.041 190.458 157.809ZM175.242 156.216L167.784 160.21L170.888 149.507H177.194L175.242 156.216Z" fill="#34113A"/>
<path fill-rule="evenodd" clip-rule="evenodd" d="M71.7045 146.611L68.8726 156.593H73.9254L76.7574 146.611H71.7045Z" fill="#34113A"/>
<path fill-rule="evenodd" clip-rule="evenodd" d="M71.2625 130.774C63.1188 129.124 58.176 131.771 55.0789 137.162C52.5307 141.593 51 148.546 51 155.417C51 159.866 51.6421 164.345 52.7882 168.152H70.6081L71.917 163.628H63.8756C62.9094 163.628 62.1432 163.247 61.6392 162.471V162.468L61.6361 162.465C61.1491 161.678 61.0623 160.817 61.2995 159.868L61.9649 157.454L66.157 142.772C66.3927 141.902 66.8812 141.162 67.6071 140.558C68.3391 139.914 69.1564 139.579 70.0513 139.579H81.7528C82.7501 139.579 83.524 139.977 83.997 140.797C84.4855 141.59 84.5817 142.49 84.3118 143.466C83.6977 145.652 83.068 147.835 82.4213 150.019C81.8723 151.939 81.3248 153.872 80.7758 155.818L92.0943 150.877C92.2866 150.768 92.5006 150.715 92.7255 150.759C92.9535 150.803 93.1442 150.934 93.3024 151.104C93.6126 151.437 93.6948 151.856 93.5723 152.298V152.301L92.2432 156.941C92.1842 157.307 91.9469 157.561 91.6135 157.696L78.6464 163.314C78.6464 163.314 77.7608 166.437 77.4475 167.575C77.0536 169.01 76.6457 170.459 76.2223 171.928C76.2177 171.942 76.2022 171.991 76.1805 172.057C76.1649 172.102 76.1014 172.274 76.1014 172.274C75.7989 173.07 75.2794 173.736 74.5551 174.268C73.8557 174.839 73.0895 175.137 72.2629 175.137H56.0916C59.5269 179.48 65.6684 181.356 71.3385 179.634C85.2114 175.418 102.431 166.048 102.431 155.419C102.431 144.79 84.8562 133.525 71.2625 130.774Z" fill="#34113A"/>
</svg>
