<svg width="378" height="263" viewBox="0 0 378 263" fill="none" xmlns="http://www.w3.org/2000/svg">
<g clip-path="url(#clip0_2525_4318)">
<rect width="377.018" height="262.145" fill="url(#paint0_linear_2525_4318)"/>
<g clip-path="url(#clip1_2525_4318)">
<rect width="586.473" height="329.891" transform="translate(-105.055 -33.873)" fill="#F0ECE9"/>
<g clip-path="url(#clip2_2525_4318)">
<rect width="586.473" height="486.284" transform="translate(-105.055 -112.069)" fill="#FBF7EE"/>
<rect width="586.473" height="486.284" transform="translate(-105.055 -112.069)" fill="#C6BEB0" fill-opacity="0.35"/>
<path d="M198.268 42.6263C144.529 36.6878 98.8826 78.6991 98.8826 131.197C98.8826 138.968 99.9573 146.865 102.107 154.762L102.233 155.204H121.263C121.263 155.204 121.832 155.457 121.832 155.773V174.472C121.832 174.472 121.579 175.041 121.263 175.041H101.285C101.285 175.041 100.716 175.294 100.716 175.609V196.836C100.716 196.836 100.969 197.405 101.285 197.405H121.263C121.263 197.405 121.832 197.657 121.832 197.973V217.937C121.832 217.937 122.085 218.505 122.401 218.505H143.644C143.644 218.505 144.213 218.253 144.213 217.937V197.973C144.213 197.973 144.466 197.405 144.782 197.405H163.496C163.496 197.405 164.065 197.657 164.065 197.973V216.989L164.507 217.115C172.41 219.263 180.313 220.337 188.026 220.337C240.563 220.337 282.669 174.725 276.663 121.026C272.111 80.2785 239.046 47.238 198.268 42.6894V42.6263ZM182.905 62.4632C224.758 59.4308 259.467 93.8611 256.875 135.557C255.484 157.857 242.523 178.073 223.43 189.824C204.337 201.574 184.738 202.838 165.708 196.268C165.456 196.204 165.329 195.952 165.329 195.699V175.546C165.329 175.546 165.076 174.978 164.76 174.978H144.782C144.782 174.978 144.213 174.725 144.213 174.409V154.446C144.213 154.446 143.96 153.877 143.644 153.877H123.476C123.476 153.877 123.033 153.688 122.907 153.498C116.395 134.672 118.039 114.582 128.976 96.3881C140.483 77.2461 160.587 64.1057 182.905 62.4632ZM142.948 176.873V195.573C142.948 195.573 142.696 196.141 142.379 196.141H123.666C123.666 196.141 123.097 195.889 123.097 195.573V176.873C123.097 176.873 123.35 176.304 123.666 176.304H142.379C142.379 176.304 142.948 176.557 142.948 176.873Z" fill="#7F0A43"/>
<line x1="-117.502" y1="11.8082" x2="79.596" y2="11.8082" stroke="#2F2819" stroke-opacity="0.2" stroke-width="0.305455"/>
<line x1="7.45839" y1="-120.928" x2="7.4584" y2="39.5385" stroke="#2F2819" stroke-opacity="0.2" stroke-width="0.305455"/>
<line x1="33.7914" y1="-120.928" x2="33.7914" y2="39.5385" stroke="#2F2819" stroke-opacity="0.2" stroke-width="0.305455"/>
</g>
</g>
</g>
<defs>
<linearGradient id="paint0_linear_2525_4318" x1="188.509" y1="0" x2="188.509" y2="262.145" gradientUnits="userSpaceOnUse">
<stop stop-color="#EBECFF"/>
<stop offset="1" stop-color="#EBEDFA"/>
</linearGradient>
<clipPath id="clip0_2525_4318">
<rect width="377.018" height="262.145" fill="white"/>
</clipPath>
<clipPath id="clip1_2525_4318">
<rect width="586.473" height="329.891" fill="white" transform="translate(-105.055 -33.873)"/>
</clipPath>
<clipPath id="clip2_2525_4318">
<rect width="586.473" height="486.284" fill="white" transform="translate(-105.055 -112.069)"/>
</clipPath>
</defs>
</svg>
