<svg width="73" height="19" viewBox="0 0 73 19" fill="none" xmlns="http://www.w3.org/2000/svg">
<path d="M22.7578 10.127C22.7578 5.73785 25.947 3.50781 28.9861 3.50781C31.3317 3.50781 32.9664 4.7848 33.4355 5.78702H33.5098V3.75222H36.2284V16.5033H33.5098V14.4685H33.4355C32.965 15.4751 31.3361 16.7477 28.9861 16.7477C25.947 16.7477 22.7578 14.5162 22.7578 10.127ZM29.5048 14.2935C31.5823 14.2935 33.5812 12.8734 33.5812 10.127C33.5812 7.38072 31.578 5.96056 29.5048 5.96056C27.4316 5.96056 25.4502 7.38072 25.4502 10.127C25.4502 12.8734 27.4534 14.2935 29.5048 14.2935Z" fill="#808080"/>
<path d="M38.5547 3.75077H41.25V7.03219C41.69 5.12177 42.9648 3.50781 45.29 3.50781C45.5814 3.50781 45.8305 3.53384 46.1 3.60326V6.1746C45.8305 6.12687 45.612 6.10084 45.3162 6.10084C42.8919 6.10084 41.25 7.86375 41.25 10.5305V16.4787H38.5547V3.74643V3.75077Z" fill="#808080"/>
<path d="M47.1797 10.127C47.1797 5.83474 50.5102 3.50781 53.8407 3.50781C56.0698 3.50781 58.1299 4.56209 59.3041 6.64605L57.2965 7.89701C56.5608 6.71981 55.3107 5.9837 53.8655 5.9837C51.8068 5.9837 49.8473 7.50509 49.8473 10.1285C49.8473 12.7519 51.8068 14.2733 53.8655 14.2733C55.3107 14.2733 56.5608 13.5372 57.2965 12.36L59.3041 13.6109C58.1284 15.6718 56.0698 16.7492 53.8407 16.7492C50.5102 16.7492 47.1797 14.4179 47.1797 10.1285V10.127Z" fill="#808080"/>
<path fill-rule="evenodd" clip-rule="evenodd" d="M9.59301 7.125L7.125 9.57341L10.6507 13.0616L7.125 16.5484L9.59301 18.9968L15.594 13.0616L9.59301 7.125Z" fill="#808080"/>
<path fill-rule="evenodd" clip-rule="evenodd" d="M3.52136 9.57499C3.52136 6.25019 6.23705 3.55448 9.58649 3.55448C12.9359 3.55448 15.6516 6.25019 15.6516 9.57499C15.6516 9.59524 15.6516 9.61404 15.6502 9.63428H19.173C19.173 4.3441 14.8809 0.0546875 9.58649 0.0546875C4.29207 0.0546875 0 4.3441 0 9.63428H3.52282C3.52282 9.61404 3.52136 9.59524 3.52136 9.57499Z" fill="#808080"/>
<path d="M61.2812 0H63.9897V5.66041C64.6759 4.4861 66.0322 3.50558 68.1025 3.50558C70.7366 3.50558 73.0021 5.14556 73.0021 8.98955V16.4837H70.2719V9.43353C70.2719 7.20495 69.0422 5.95688 67.1439 5.95688C65.2455 5.95688 63.994 7.20639 63.994 9.43353V16.4837H61.2856L61.2812 0.00144623V0Z" fill="#808080"/>
</svg>
