<svg width="256" height="348" viewBox="0 0 256 348" fill="none" xmlns="http://www.w3.org/2000/svg">
<g clip-path="url(#clip0_757_54233)">
<rect width="256" height="348" fill="#CDD8FF"/>
<rect width="379.555" height="379.555" transform="translate(-62 -13)" fill="#CCEBF9"/>
<g clip-path="url(#clip1_757_54233)">
<path d="M197.457 169.21C197.424 169.133 197.336 169.096 197.259 169.129L153.351 187.912C139.225 188.991 122.868 192.94 106.184 199.836C87.9881 207.356 72.3905 217.144 61.131 227.365L18.8195 245.465C18.7424 245.498 18.7057 245.587 18.7387 245.664C27.7669 266.77 47.9336 279.688 69.4435 280.503C86.3182 282.265 109.146 278.385 132.615 268.686C160.247 257.268 181.885 240.628 191.431 225.167C202.65 209.386 205.63 188.312 197.457 169.206V169.21Z" fill="black"/>
<path fill-rule="evenodd" clip-rule="evenodd" d="M196.903 166.523L197.959 168.994C206.208 188.277 203.203 209.545 191.886 225.475C182.252 241.068 160.502 257.76 132.822 269.198C109.303 278.918 86.3902 282.825 69.4008 281.056C47.6932 280.227 27.3415 267.187 18.229 245.884M196.903 166.523V168.685V166.523ZM196.903 168.685L153.214 187.374C139.044 188.468 122.664 192.431 105.97 199.331C87.7614 206.856 72.1338 216.651 60.8257 226.899L18.5992 244.963C18.2512 245.112 18.0727 245.519 18.2288 245.884" fill="black"/>
<path d="M122.256 243.712C172.579 223.666 206.298 189.653 197.57 167.743C188.842 145.832 140.972 144.321 90.6487 164.367C40.3259 184.413 6.60676 218.426 15.3348 240.336C24.0629 262.247 71.9331 263.758 122.256 243.712Z" fill="white"/>
<path fill-rule="evenodd" clip-rule="evenodd" d="M16.849 222.247C14.1662 228.74 13.7284 234.82 15.8426 240.128C17.9569 245.435 22.4557 249.549 28.868 252.419C35.2836 255.29 43.5817 256.899 53.2111 257.203C72.468 257.811 96.9404 253.198 122.049 243.196C147.157 233.194 168.098 219.716 181.662 206.034C188.445 199.192 193.364 192.318 196.048 185.822C198.731 179.329 199.169 173.249 197.055 167.942C194.941 162.634 190.442 158.52 184.029 155.65C177.614 152.779 169.316 151.171 159.686 150.867C140.429 150.259 115.957 154.872 90.8489 164.874C65.7406 174.876 44.7994 188.353 31.235 202.035C24.4522 208.877 19.5331 215.751 16.849 222.247ZM30.4532 201.26C44.1471 187.447 65.2268 173.895 90.4414 163.851C115.656 153.807 140.28 149.152 159.721 149.766C169.441 150.073 177.892 151.697 184.479 154.645C191.07 157.595 195.828 161.886 198.078 167.534C200.327 173.182 199.823 179.569 197.066 186.243C194.31 192.913 189.291 199.903 182.444 206.809C168.75 220.622 147.671 234.174 122.456 244.218C97.2414 254.263 72.6173 258.917 53.1764 258.303C43.4568 257.996 35.0057 256.372 28.4183 253.424C21.8276 250.474 17.0696 246.183 14.8198 240.535C12.57 234.888 13.074 228.5 15.8314 221.827C18.5875 215.157 23.6068 208.166 30.4532 201.26Z" fill="black"/>
<path d="M122.25 243.724C82.8931 259.402 45.0333 261.89 26.2282 251.746C20.9874 248.92 17.2293 245.115 15.3283 240.34C6.60098 218.43 40.3247 184.42 90.6478 164.375C140.975 144.333 188.842 145.848 197.57 167.762C198.23 169.421 198.649 171.149 198.832 172.937C201.093 194.744 168.764 225.201 122.25 243.724Z" fill="white"/>
<path fill-rule="evenodd" clip-rule="evenodd" d="M159.687 150.881C140.43 150.271 115.958 154.882 90.8473 164.882C65.739 174.883 44.7965 188.36 31.2309 202.042C24.4475 208.883 19.5277 215.756 16.8431 222.252C14.1598 228.745 13.7215 234.825 15.8356 240.132L15.8356 240.132C17.6781 244.76 21.3299 248.478 26.4853 251.258L26.4854 251.258C35.7534 256.257 49.7958 258.176 66.485 256.865C83.1581 255.556 102.408 251.03 122.042 243.208L122.246 243.72L122.042 243.208C145.249 233.967 164.898 221.755 178.453 209.155C185.23 202.854 190.471 196.468 193.875 190.321C197.281 184.172 198.83 178.294 198.281 172.989L198.28 172.989C198.102 171.251 197.695 169.572 197.054 167.961C194.94 162.653 190.442 158.538 184.029 155.668C177.614 152.796 169.316 151.186 159.687 150.881ZM184.479 154.663C191.07 157.613 195.827 161.906 198.077 167.554C198.757 169.261 199.187 171.04 199.376 172.876C199.956 178.475 198.313 184.581 194.838 190.855C191.363 197.131 186.039 203.606 179.202 209.961C165.529 222.671 145.757 234.95 122.45 244.231C102.727 252.088 83.3685 256.644 66.5712 257.963C49.7899 259.28 35.4999 257.371 25.9627 252.227C20.6366 249.355 16.7723 245.461 14.8127 240.539C12.5632 234.892 13.0676 228.505 15.8256 221.832C18.5821 215.162 23.6022 208.172 30.4491 201.266C44.1443 187.454 65.2252 173.903 90.44 163.859L90.44 163.859C115.657 153.817 140.281 149.165 159.722 149.781C169.441 150.088 177.892 151.714 184.479 154.663ZM199.376 172.876C199.376 172.876 199.376 172.876 199.376 172.876L198.828 172.932L199.376 172.876C199.376 172.876 199.376 172.876 199.376 172.876Z" fill="black"/>
<path d="M121.111 237.59C84.8033 251.254 49.8759 253.423 32.5278 244.582C27.6944 242.119 24.2262 238.802 22.472 234.64C14.42 215.545 45.5306 185.902 91.9562 168.433C138.382 150.964 182.543 152.285 190.591 171.384C191.2 172.83 191.586 174.334 191.755 175.894C193.839 194.901 164.017 221.446 121.107 237.59H121.111Z" fill="white"/>
<path fill-rule="evenodd" clip-rule="evenodd" d="M155.645 156.741C137.882 156.21 115.307 160.229 92.146 168.944C68.984 177.659 49.6689 189.403 37.1607 201.321C30.9055 207.281 26.3743 213.264 23.9036 218.912C21.4349 224.556 21.0374 229.826 22.9751 234.422L22.9752 234.422C24.6659 238.433 28.0219 241.666 32.7736 244.087L32.7737 244.087C41.3176 248.441 54.2686 250.114 69.6647 248.972C84.8411 247.847 102.332 243.991 120.193 237.34L120.909 237.071C142.316 229.017 160.437 218.376 172.936 207.398C179.186 201.909 184.016 196.348 187.151 191C190.287 185.649 191.707 180.545 191.203 175.95L191.203 175.949C191.04 174.441 190.668 172.989 190.08 171.593C188.141 166.992 184.008 163.413 178.094 160.911C172.18 158.41 164.527 157.007 155.645 156.741ZM124.072 237.036H124.132L121.301 238.101C103.104 244.949 85.2436 248.921 69.7462 250.07C54.2647 251.218 41.078 249.555 32.2738 245.068C27.3587 242.564 23.7785 239.162 21.9606 234.849C19.8724 229.897 20.3442 224.302 22.8949 218.471C25.4436 212.645 30.082 206.545 36.4012 200.524C49.0416 188.48 68.4947 176.667 91.7582 167.913C115.022 159.159 137.741 155.104 155.678 155.641C164.645 155.909 172.443 157.326 178.523 159.897C184.604 162.469 189.009 166.217 191.094 171.166L190.587 171.379L191.094 171.166C191.725 172.662 192.123 174.219 192.298 175.831L191.751 175.89L192.298 175.83C192.298 175.83 192.298 175.83 192.298 175.831C192.836 180.738 191.31 186.08 188.1 191.556C184.889 197.035 179.972 202.684 173.663 208.225C161.591 218.828 144.37 229.083 124.072 237.036Z" fill="black"/>
<path fill-rule="evenodd" clip-rule="evenodd" d="M158.487 167.943C142.415 168.861 122.648 173.642 103.009 181.465L103.009 181.465C83.3951 189.276 66.3212 199.209 53.32 209.707C40.3063 220.216 31.4231 231.25 28.1075 241.246L27.0625 240.899C30.474 230.614 39.5427 219.417 52.6283 208.851C65.7263 198.274 82.899 188.288 102.602 180.443C122.32 172.587 142.205 167.77 158.424 166.844C166.532 166.381 173.749 166.889 179.58 168.492C185.408 170.095 189.905 172.808 192.482 176.798L191.557 177.395C189.18 173.715 184.968 171.116 179.288 169.554C173.612 167.993 166.524 167.484 158.487 167.943Z" fill="black"/>
<path d="M115.876 121.346C147 136.259 160.161 173.631 145.249 204.756L141.674 212.216C140.682 214.288 138.195 215.163 136.123 214.171L30.8469 163.731C28.775 162.738 27.8993 160.251 28.8919 158.179L32.4662 150.719C47.3787 119.595 84.7509 106.434 115.876 121.346Z" fill="#FEE502"/>
<path fill-rule="evenodd" clip-rule="evenodd" d="M115.638 121.843C84.788 107.062 47.7446 120.107 32.9635 150.957L29.3892 158.417C28.5279 160.215 29.2879 162.373 31.0856 163.234L136.361 213.674C138.159 214.536 140.317 213.776 141.179 211.978L144.753 204.518C159.534 173.667 146.489 136.624 115.638 121.843ZM31.9706 150.481C47.0144 119.083 84.7153 105.806 116.114 120.85C147.513 135.894 160.79 173.594 145.746 204.993L142.172 212.454C141.048 214.8 138.232 215.791 135.886 214.667L30.6099 164.227C28.2638 163.103 27.2722 160.288 28.3963 157.942L31.9706 150.481Z" fill="black"/>
<path d="M133.608 131.766C128.837 131.766 124.969 135.634 124.969 140.405C124.969 145.176 128.837 149.044 133.608 149.044C138.379 149.044 142.247 145.176 142.247 140.405C142.247 135.634 138.379 131.766 133.608 131.766ZM133.608 144.779C131.193 144.779 129.233 142.82 129.233 140.405C129.233 137.99 131.193 136.034 133.608 136.034C136.023 136.034 137.983 137.99 137.983 140.405C137.983 142.82 136.023 144.779 133.608 144.779Z" fill="#D4B3B3"/>
<path fill-rule="evenodd" clip-rule="evenodd" d="M124.414 140.408C124.414 135.333 128.529 131.219 133.604 131.219C138.679 131.219 142.793 135.333 142.793 140.408C142.793 145.483 138.679 149.598 133.604 149.598C128.529 149.598 124.414 145.483 124.414 140.408ZM133.604 132.32C129.137 132.32 125.515 135.941 125.515 140.408C125.515 144.875 129.137 148.497 133.604 148.497C138.071 148.497 141.692 144.875 141.692 140.408C141.692 135.941 138.071 132.32 133.604 132.32ZM133.604 136.588C131.492 136.588 129.78 138.298 129.78 140.408C129.78 142.519 131.493 144.233 133.604 144.233C135.715 144.233 137.428 142.519 137.428 140.408C137.428 138.298 135.715 136.588 133.604 136.588ZM128.679 140.408C128.679 137.689 130.885 135.487 133.604 135.487C136.322 135.487 138.529 137.689 138.529 140.408C138.529 143.127 136.323 145.334 133.604 145.334C130.885 145.334 128.679 143.127 128.679 140.408Z" fill="black"/>
<path d="M110.402 129.542L112.915 130.746C143.344 145.325 156.215 181.867 141.634 212.3C140.664 214.325 138.231 215.182 136.205 214.212L30.7604 163.691C28.7348 162.72 27.878 160.287 28.8485 158.262C43.428 127.832 79.9695 114.961 110.402 129.542Z" fill="#FEE502"/>
<path fill-rule="evenodd" clip-rule="evenodd" d="M110.165 130.039C80.0066 115.589 43.7938 128.344 29.3457 158.5C28.5066 160.251 29.2477 162.355 30.999 163.194L136.444 213.715C138.195 214.554 140.299 213.813 141.139 212.062C155.588 181.903 142.833 145.69 112.677 131.242L110.165 130.039ZM28.3528 158.024C43.0636 127.32 79.9339 114.333 110.641 129.046L113.153 130.249C143.857 144.96 156.844 181.83 142.131 212.537C141.03 214.837 138.268 215.81 135.968 214.708L30.5233 164.187C28.2236 163.085 27.251 160.324 28.3528 158.024Z" fill="black"/>
<path d="M58.3512 114.538C60.7673 114.538 62.7259 112.58 62.7259 110.164C62.7259 107.748 60.7673 105.789 58.3512 105.789C55.9352 105.789 53.9766 107.748 53.9766 110.164C53.9766 112.58 55.9352 114.538 58.3512 114.538Z" fill="#FB8902"/>
<path fill-rule="evenodd" clip-rule="evenodd" d="M58.347 106.343C56.235 106.343 54.5229 108.055 54.5229 110.167C54.5229 112.279 56.235 113.991 58.347 113.991C60.459 113.991 62.1712 112.279 62.1712 110.167C62.1712 108.055 60.459 106.343 58.347 106.343ZM53.4219 110.167C53.4219 107.447 55.6269 105.242 58.347 105.242C61.0671 105.242 63.2722 107.447 63.2722 110.167C63.2722 112.887 61.0671 115.092 58.347 115.092C55.6269 115.092 53.4219 112.887 53.4219 110.167Z" fill="black"/>
<path d="M81.4918 219.031C83.9079 219.031 85.8665 217.072 85.8665 214.656C85.8665 212.24 83.9079 210.281 81.4918 210.281C79.0758 210.281 77.1172 212.24 77.1172 214.656C77.1172 217.072 79.0758 219.031 81.4918 219.031Z" fill="#FB8902"/>
<path fill-rule="evenodd" clip-rule="evenodd" d="M81.4955 210.828C79.3834 210.828 77.6713 212.54 77.6713 214.652C77.6713 216.764 79.3834 218.476 81.4955 218.476C83.6075 218.476 85.3196 216.764 85.3196 214.652C85.3196 212.54 83.6075 210.828 81.4955 210.828ZM76.5703 214.652C76.5703 211.932 78.7754 209.727 81.4955 209.727C84.2155 209.727 86.4206 211.932 86.4206 214.652C86.4206 217.372 84.2155 219.577 81.4955 219.577C78.7754 219.577 76.5703 217.372 76.5703 214.652Z" fill="black"/>
<path d="M129.234 202.515C131.65 202.515 133.609 200.556 133.609 198.14C133.609 195.724 131.65 193.766 129.234 193.766C126.818 193.766 124.859 195.724 124.859 198.14C124.859 200.556 126.818 202.515 129.234 202.515Z" fill="#FB8902"/>
<path fill-rule="evenodd" clip-rule="evenodd" d="M129.23 194.312C127.118 194.312 125.406 196.024 125.406 198.136C125.406 200.248 127.118 201.96 129.23 201.96C131.342 201.96 133.054 200.248 133.054 198.136C133.054 196.024 131.342 194.312 129.23 194.312ZM124.305 198.136C124.305 195.416 126.51 193.211 129.23 193.211C131.95 193.211 134.155 195.416 134.155 198.136C134.155 200.856 131.95 203.061 129.23 203.061C126.51 203.061 124.305 200.856 124.305 198.136Z" fill="black"/>
<path d="M80.7226 120.758L75.3203 116.072C76.4287 108.511 81.552 103.528 89.1452 100.133L94.5475 104.819C87.0313 106.618 82.0768 111.51 80.7226 120.758Z" fill="#A1E281"/>
<path fill-rule="evenodd" clip-rule="evenodd" d="M89.2434 99.4844L95.7198 105.103L94.678 105.352C91.0053 106.231 87.9941 107.856 85.7356 110.361C83.4764 112.867 81.9348 116.293 81.2697 120.835L81.124 121.831L74.7344 116.287L74.7781 115.989C75.9236 108.176 81.2303 103.067 88.923 99.6276L89.2434 99.4844ZM75.9132 115.852L80.3404 119.693C81.1017 115.459 82.6545 112.134 84.9179 109.624C87.1354 107.164 90.0054 105.518 93.4009 104.549L89.0532 100.777C81.8392 104.076 77.0565 108.814 75.9132 115.852Z" fill="black"/>
<path d="M-2.42188 154.503L0.326959 147.901C7.85047 146.573 14.1922 149.868 19.8073 156.008L17.0585 162.611C12.9885 156.041 6.7825 152.878 -2.42188 154.503Z" fill="#A1E281"/>
<path fill-rule="evenodd" clip-rule="evenodd" d="M0.714742 148.39L-1.53789 153.8C2.72101 153.19 6.36556 153.618 9.46131 154.976C12.4943 156.307 14.9601 158.513 16.9479 161.432L19.16 156.118C13.7551 150.308 7.75436 147.258 0.714742 148.39ZM0.227653 147.355C8.00348 145.982 14.5216 149.413 20.21 155.633L20.4469 155.892L17.1513 163.808L16.587 162.897C14.5982 159.687 12.108 157.34 9.01893 155.984C5.92874 154.628 2.19052 154.243 -2.3297 155.042L-3.32031 155.217L-0.0690324 147.408L0.227653 147.355Z" fill="black"/>
<path d="M50.0472 222.77L47.5185 229.46C40.0427 231.038 33.5945 227.952 27.7812 222.003L30.3099 215.312C34.5965 221.742 40.9015 224.7 50.0472 222.77Z" fill="#A1E281"/>
<path fill-rule="evenodd" clip-rule="evenodd" d="M30.1721 214.117L30.7663 215.009C32.861 218.15 35.4273 220.414 38.5592 221.667C41.6922 222.92 45.4406 223.181 49.9319 222.233L50.9162 222.025L47.9254 229.938L47.6307 230C39.904 231.631 33.2751 228.416 27.3859 222.389L27.1406 222.138L30.1721 214.117ZM30.4543 216.485L28.4193 221.869C34.0117 227.496 40.1109 230.347 47.1095 228.983L49.1817 223.5C44.9453 224.251 41.289 223.944 38.1504 222.689C35.0753 221.459 32.538 219.335 30.4543 216.485Z" fill="black"/>
<path d="M193.688 161.422L242.7 123.199C245.699 120.861 250.026 121.393 252.367 124.392L254.169 126.7C256.76 130.018 255.791 134.866 252.129 136.936L197.57 167.764" fill="black"/>
<path fill-rule="evenodd" clip-rule="evenodd" d="M251.936 124.726C249.782 121.968 245.8 121.478 243.042 123.629L194.029 161.852L193.352 160.984L242.364 122.761C245.602 120.236 250.275 120.811 252.804 124.049L254.606 126.357C254.606 126.357 254.606 126.357 254.606 126.357C257.404 129.94 256.357 135.176 252.402 137.411L197.844 168.239L197.302 167.28L251.86 136.452C255.23 134.548 256.122 130.087 253.738 127.035L251.936 124.726Z" fill="black"/>
<path d="M243.577 128.058L240.314 130.359C239.139 131.188 238.859 132.811 239.687 133.986L240.326 134.891C241.155 136.066 242.778 136.346 243.952 135.518L247.215 133.216C248.39 132.388 248.67 130.764 247.842 129.59L247.203 128.684C246.374 127.51 244.751 127.229 243.577 128.058Z" fill="white"/>
<path d="M27.4829 175.047C22.7119 175.047 18.8438 178.915 18.8438 183.686C18.8438 188.457 22.7119 192.325 27.4829 192.325C32.254 192.325 36.1221 188.457 36.1221 183.686C36.1221 178.915 32.254 175.047 27.4829 175.047ZM27.4829 188.061C25.0681 188.061 23.1083 186.101 23.1083 183.686C23.1083 181.271 25.0681 179.315 27.4829 179.315C29.8978 179.315 31.8576 181.271 31.8576 183.686C31.8576 186.101 29.8978 188.061 27.4829 188.061Z" fill="#D4B3B3"/>
<path fill-rule="evenodd" clip-rule="evenodd" d="M18.2969 183.69C18.2969 178.615 22.4115 174.5 27.4866 174.5C32.5616 174.5 36.6763 178.615 36.6763 183.69C36.6763 188.765 32.5616 192.879 27.4866 192.879C22.4115 192.879 18.2969 188.765 18.2969 183.69ZM27.4866 175.601C23.0196 175.601 19.3979 179.223 19.3979 183.69C19.3979 188.157 23.0196 191.778 27.4866 191.778C31.9535 191.778 35.5753 188.157 35.5753 183.69C35.5753 179.223 31.9535 175.601 27.4866 175.601ZM27.4866 179.869C25.3751 179.869 23.6624 181.579 23.6624 183.69C23.6624 185.801 25.3757 187.514 27.4866 187.514C29.5974 187.514 31.3107 185.801 31.3107 183.69C31.3107 181.579 29.598 179.869 27.4866 179.869ZM22.5614 183.69C22.5614 180.97 24.7683 178.768 27.4866 178.768C30.2049 178.768 32.4117 180.97 32.4117 183.69C32.4117 186.409 30.2055 188.615 27.4866 188.615C24.7677 188.615 22.5614 186.409 22.5614 183.69Z" fill="black"/>
<path d="M50.2734 157.096C51.7268 153.61 53.7122 150.343 56.1198 147.433C57.3088 145.994 58.6043 144.644 59.9916 143.396C61.4559 142.078 62.8872 140.497 65.1113 141.234C66.0214 141.535 66.7701 142.284 67.0711 143.194C67.6179 144.831 67.1261 146.725 66.7481 148.347C66.2783 150.362 65.4489 152.274 64.5424 154.127C62.6854 157.937 60.5238 161.911 60.9201 166.128C60.9678 166.653 61.0743 167.211 61.4449 167.589C62.3514 168.51 63.8965 167.68 64.836 166.789C70.2199 161.687 73.6294 154.912 77.7214 148.725C79.6115 145.866 89.7223 131.894 93.8107 136.32C95.6714 138.335 93.5281 143.33 92.7391 145.495C91.4069 149.158 89.4838 152.578 87.5644 155.955C85.7404 159.162 83.6778 162.219 82.2539 165.64C81.1896 168.198 79.4096 173.218 82.2979 175.263C84.8045 177.032 86.8928 175.112 88.4085 173.16C90.3939 170.598 92.662 168.205 94.8457 165.816C97.4257 162.986 100.072 160.219 102.78 157.514C105.239 155.059 107.691 152.024 110.722 150.321C111.728 149.756 112.799 149.261 113.944 149.14C115.089 149.018 116.33 149.319 117.119 150.156C119.805 152.997 117.93 157.485 116.319 160.245C112.495 166.792 107.291 173.571 107.76 181.597C107.775 181.839 107.797 182.096 107.948 182.287C110.403 185.502 115.68 178.5 116.858 176.984C118.917 174.33 120.892 171.615 123.079 169.068C124.65 167.24 126.433 165.445 128.731 164.722C131.028 163.999 133.942 164.704 135.007 166.866C135.854 168.587 135.344 170.635 134.819 172.477" stroke="black" stroke-width="0.124567" stroke-miterlimit="10"/>
<path d="M49.6705 161.396C51.2575 161.396 52.5441 160.109 52.5441 158.522C52.5441 156.935 51.2575 155.648 49.6705 155.648C48.0834 155.648 46.7969 156.935 46.7969 158.522C46.7969 160.109 48.0834 161.396 49.6705 161.396Z" fill="black" stroke="black" stroke-width="0.124567" stroke-miterlimit="10"/>
<path d="M134.514 177.364C136.101 177.364 137.388 176.078 137.388 174.491C137.388 172.904 136.101 171.617 134.514 171.617C132.927 171.617 131.641 172.904 131.641 174.491C131.641 176.078 132.927 177.364 134.514 177.364Z" fill="black" stroke="black" stroke-width="0.124567" stroke-miterlimit="10"/>
</g>
</g>
<defs>
<clipPath id="clip0_757_54233">
<rect width="256" height="348" fill="white"/>
</clipPath>
<clipPath id="clip1_757_54233">
<rect width="259.495" height="181.992" fill="white" transform="translate(-3.32031 99.4844)"/>
</clipPath>
</defs>
</svg>
