<svg width="161" height="33" viewBox="0 0 161 33" fill="none" xmlns="http://www.w3.org/2000/svg">
<ellipse cx="16.08" cy="16.4076" rx="15.2519" ry="15.2826" fill="#808080"/>
<path d="M14.7802 8.18532C16.2003 5.84363 19.2458 5.09861 21.5824 6.52127C23.9191 7.94392 24.662 10.9955 23.2419 13.3372L18.7324 20.7731C17.3122 23.1148 14.2668 23.8598 11.9301 22.4371C9.5935 21.0145 8.85052 17.9628 10.2707 15.6212L14.7802 8.18532Z" fill="#808080"/>
<path fill-rule="evenodd" clip-rule="evenodd" d="M17.9505 20.297L22.46 12.8612C23.6177 10.9522 23.0121 8.46457 21.1072 7.30482C19.2024 6.14507 16.7197 6.75241 15.562 8.66135L11.0525 16.0972C9.89483 18.0061 10.5005 20.4938 12.4053 21.6536C14.3102 22.8133 16.7928 22.206 17.9505 20.297ZM21.5824 6.52127C19.2458 5.09861 16.2003 5.84363 14.7802 8.18532L10.2707 15.6212C8.85052 17.9628 9.5935 21.0145 11.9301 22.4371C14.2668 23.8598 17.3122 23.1148 18.7324 20.7731L23.2419 13.3372C24.662 10.9955 23.9191 7.94392 21.5824 6.52127Z" fill="black"/>
<path fill-rule="evenodd" clip-rule="evenodd" d="M18.5974 12.2635C18.8111 12.3984 18.8752 12.6815 18.7405 12.8957L9.93713 26.8949C9.80243 27.1091 9.51997 27.1733 9.30624 27.0384C9.09251 26.9035 9.02844 26.6204 9.16314 26.4062L17.9665 12.407C18.1012 12.1928 18.3836 12.1285 18.5974 12.2635Z" fill="black"/>
<path fill-rule="evenodd" clip-rule="evenodd" d="M19.5419 18.6712C19.5828 18.8782 19.4485 19.0793 19.2419 19.1204C16.506 19.6638 15.137 19.3194 14.5467 18.9033C14.3745 18.7819 14.3331 18.5436 14.4542 18.3709C14.5754 18.1983 14.8132 18.1567 14.9854 18.2781C15.3146 18.5102 16.4192 18.9019 19.0939 18.3706C19.3004 18.3296 19.501 18.4642 19.5419 18.6712Z" fill="black"/>
<path d="M154.016 18.6094H156.231C156.646 18.6094 157.061 18.6786 157.476 18.8172C157.897 18.9557 158.274 19.1667 158.607 19.4501C158.946 19.7272 159.22 20.0767 159.427 20.4987C159.634 20.9143 159.738 21.3993 159.738 21.9535C159.738 22.5139 159.634 23.002 159.427 23.4177C159.22 23.8333 158.946 24.1828 158.607 24.4662C158.274 24.7433 157.897 24.9512 157.476 25.0897C157.061 25.2283 156.646 25.2975 156.231 25.2975H154.016V18.6094ZM154.694 24.6929H156.043C156.545 24.6929 156.982 24.6142 157.353 24.4568C157.73 24.2993 158.041 24.0947 158.286 23.8428C158.531 23.5846 158.714 23.2917 158.833 22.9642C158.959 22.6367 159.022 22.2998 159.022 21.9535C159.022 21.6071 158.959 21.2702 158.833 20.9427C158.714 20.6152 158.531 20.3255 158.286 20.0736C158.041 19.8154 157.73 19.6076 157.353 19.4501C156.982 19.2927 156.545 19.214 156.043 19.214H154.694V24.6929Z" fill="#808080"/>
<path d="M144.85 25.4676C144.347 25.4676 143.935 25.3825 143.615 25.2125C143.294 25.0362 143.04 24.8158 142.851 24.5513C142.663 24.2867 142.531 24.0002 142.455 23.6916C142.386 23.3767 142.352 23.0807 142.352 22.8036V18.6094H143.03V22.7281C143.03 22.9989 143.062 23.2634 143.125 23.5216C143.187 23.7735 143.288 24.0002 143.426 24.2017C143.571 24.397 143.759 24.5575 143.992 24.6835C144.225 24.8032 144.51 24.863 144.85 24.863C145.189 24.863 145.475 24.8032 145.708 24.6835C145.94 24.5575 146.126 24.397 146.264 24.2017C146.409 24.0002 146.512 23.7735 146.575 23.5216C146.638 23.2634 146.669 22.9989 146.669 22.7281V18.6094H147.348V22.8036C147.348 23.0807 147.31 23.3767 147.235 23.6916C147.166 24.0002 147.037 24.2867 146.849 24.5513C146.66 24.8158 146.402 25.0362 146.075 25.2125C145.755 25.3825 145.346 25.4676 144.85 25.4676Z" fill="#808080"/>
<path d="M136.137 22.0141C136.137 22.5242 136.049 22.9934 135.873 23.4216C135.697 23.8499 135.452 24.2215 135.138 24.5363C134.83 24.8449 134.462 25.0874 134.035 25.2637C133.614 25.4401 133.155 25.5282 132.658 25.5282C132.162 25.5282 131.7 25.4401 131.273 25.2637C130.852 25.0874 130.484 24.8449 130.17 24.5363C129.862 24.2215 129.62 23.8499 129.444 23.4216C129.268 22.9934 129.18 22.5242 129.18 22.0141C129.18 21.504 129.268 21.0348 129.444 20.6066C129.62 20.1783 129.862 19.8099 130.17 19.5013C130.484 19.1864 130.852 18.9408 131.273 18.7645C131.7 18.5882 132.162 18.5 132.658 18.5C133.155 18.5 133.614 18.5882 134.035 18.7645C134.462 18.9408 134.83 19.1864 135.138 19.5013C135.452 19.8099 135.697 20.1783 135.873 20.6066C136.049 21.0348 136.137 21.504 136.137 22.0141ZM135.421 22.0141C135.421 21.6237 135.358 21.2521 135.232 20.8994C135.106 20.5468 134.924 20.2382 134.685 19.9737C134.447 19.7029 134.154 19.4887 133.809 19.3313C133.469 19.1739 133.086 19.0951 132.658 19.0951C132.231 19.0951 131.845 19.1739 131.499 19.3313C131.159 19.4887 130.87 19.7029 130.632 19.9737C130.393 20.2382 130.21 20.5468 130.085 20.8994C129.959 21.2521 129.896 21.6237 129.896 22.0141C129.896 22.4046 129.959 22.7761 130.085 23.1288C130.21 23.4815 130.393 23.7901 130.632 24.0546C130.87 24.3191 131.159 24.53 131.499 24.6875C131.845 24.8449 132.231 24.9237 132.658 24.9237C133.086 24.9237 133.469 24.8449 133.809 24.6875C134.154 24.53 134.447 24.3191 134.685 24.0546C134.924 23.7901 135.106 23.4815 135.232 23.1288C135.358 22.7761 135.421 22.4046 135.421 22.0141Z" fill="#808080"/>
<path d="M120.819 24.6929H123.931V25.2975H120.141V18.6094H120.819V24.6929Z" fill="#808080"/>
<path d="M114.032 24.2813C113.919 24.4513 113.78 24.6119 113.617 24.7631C113.46 24.9142 113.274 25.0465 113.061 25.1598C112.853 25.2732 112.621 25.3613 112.363 25.4243C112.112 25.4936 111.835 25.5282 111.533 25.5282C111.031 25.5282 110.566 25.4401 110.138 25.2637C109.711 25.0874 109.343 24.8449 109.035 24.5363C108.727 24.2215 108.485 23.8499 108.309 23.4216C108.14 22.9934 108.055 22.5242 108.055 22.0141C108.055 21.504 108.143 21.0348 108.319 20.6066C108.495 20.1783 108.737 19.8099 109.045 19.5013C109.359 19.1864 109.727 18.9408 110.148 18.7645C110.575 18.5882 111.037 18.5 111.533 18.5C111.779 18.5 112.017 18.5252 112.25 18.5756C112.489 18.626 112.712 18.6984 112.919 18.7928C113.127 18.881 113.315 18.9912 113.485 19.1235C113.655 19.2494 113.796 19.3943 113.909 19.558L113.344 19.9737C113.274 19.8666 113.18 19.7595 113.061 19.6525C112.948 19.5454 112.812 19.451 112.655 19.3691C112.498 19.2872 112.325 19.2211 112.137 19.1707C111.955 19.1203 111.757 19.0951 111.543 19.0951C111.109 19.0951 110.72 19.1739 110.374 19.3313C110.034 19.4887 109.745 19.7029 109.507 19.9737C109.268 20.2382 109.085 20.5468 108.96 20.8994C108.834 21.2521 108.771 21.6237 108.771 22.0141C108.771 22.4046 108.834 22.7761 108.96 23.1288C109.092 23.4815 109.277 23.7932 109.516 24.064C109.755 24.3285 110.044 24.5395 110.383 24.6969C110.729 24.8544 111.116 24.9331 111.543 24.9331C111.926 24.9331 112.291 24.8544 112.636 24.6969C112.982 24.5395 113.271 24.2876 113.504 23.9412L114.032 24.2813Z" fill="#808080"/>
<path d="M99.3666 25.7656L99.3667 25.7656C100.564 25.7462 101.645 25.3972 102.63 24.6993C103.496 24.0852 104.138 23.276 104.556 22.2852C104.646 22.0721 104.484 21.8455 104.254 21.8455H103.339C103.21 21.8455 103.093 21.9207 103.034 22.035C102.657 22.7659 102.169 23.3176 101.568 23.689C100.968 24.0604 100.254 24.2522 99.424 24.2614L99.4239 24.2615C98.3119 24.2807 97.3537 23.9151 96.5292 23.2027C95.7936 22.5671 95.3482 21.7631 95.1791 20.8174C95.1481 20.6436 95.2864 20.4891 95.4643 20.4891H104.651C104.836 20.4891 104.985 20.3391 104.985 20.1541V19.679C104.985 18.3018 104.463 17.0606 103.421 15.956L103.421 15.9559C102.34 14.8319 101.066 14.2307 99.5986 14.1337V14.1337L99.5984 14.1337C97.957 14.0368 96.5471 14.5994 95.3311 15.801L95.3311 15.801C94.1344 16.9833 93.555 18.4182 93.5936 20.0659C93.6129 21.6364 94.2117 22.9743 95.3696 24.1176L95.3698 24.1177C96.5278 25.2418 97.8603 25.785 99.3666 25.7656ZM95.5002 19.1009C95.3106 19.1009 95.1696 18.9269 95.2203 18.7457C95.4638 17.8762 95.917 17.1569 96.6057 16.6003C97.3917 15.965 98.3116 15.6379 99.3661 15.6571C100.421 15.6764 101.322 16.0037 102.069 16.6387C102.722 17.1937 103.171 17.8956 103.414 18.7449C103.466 18.9261 103.325 19.1009 103.135 19.1009H95.5002Z" fill="#808080" stroke="#808080" stroke-width="0.035216"/>
<path d="M92.5146 24.317C92.7661 24.3388 92.9718 24.5448 92.9718 24.8024V25.3242C92.9718 25.5818 92.766 25.792 92.5138 25.7805C89.6752 25.6516 88.2656 24.2927 88.2656 21.7037V8.20084C88.2656 7.94322 88.4703 7.73438 88.7227 7.73438H89.5507C89.8032 7.73438 90.0078 7.94322 90.0078 8.20084V11.8628C90.0078 12.1204 90.2125 12.3293 90.4649 12.3293H92.5147C92.7672 12.3293 92.9718 12.5381 92.9718 12.7957V13.5022C92.9718 13.7598 92.7672 13.9686 92.5147 13.9686H90.4649C90.2125 13.9686 90.0078 14.1775 90.0078 14.4351V21.4036C90.0078 23.2079 90.8493 24.1731 92.5146 24.317Z" fill="#808080"/>
<path d="M83.8225 7.75C84.0743 7.75 84.2784 7.95451 84.2784 8.20679V10.3005C84.2784 10.5528 84.0743 10.7573 83.8225 10.7573H83.0418C82.79 10.7573 82.5859 10.5528 82.5859 10.3005V8.20679C82.5859 7.95451 82.79 7.75 83.0418 7.75H83.8225ZM83.8225 12.4762C84.0743 12.4762 84.2784 12.6807 84.2784 12.933V24.9077C84.2784 25.16 84.0743 25.3645 83.8225 25.3645H83.0418C82.79 25.3645 82.5859 25.16 82.5859 24.9077V12.933C82.5859 12.6807 82.79 12.4762 83.0418 12.4762H83.8225Z" fill="#808080"/>
<path d="M80.888 23.721C81.1398 23.721 81.3439 23.9255 81.3439 24.1778V24.9149C81.3439 25.1671 81.1398 25.3716 80.888 25.3716H76.3569C73.7167 25.3716 71.8438 23.8567 71.8438 21.0755V8.19116C71.8438 7.93889 72.0479 7.73438 72.2996 7.73438H73.1254C73.3772 7.73438 73.5813 7.93889 73.5813 8.19116V21.3921C73.5813 22.0026 73.8747 22.5905 74.4388 23.1784C74.7999 23.5401 75.4317 23.721 76.3569 23.721H80.888Z" fill="#808080"/>
<path d="M69.1299 24.2414C69.3725 24.2535 69.563 24.4542 69.563 24.6976V25.3484C69.563 25.5982 69.3609 25.8006 69.1117 25.8006C67.7294 25.8006 66.6217 25.397 65.7723 24.5896C65.6093 24.4347 65.3622 24.399 65.1687 24.5134C63.7516 25.3505 62.2346 25.778 60.5818 25.778C58.0996 25.778 55.9784 24.8962 54.2183 23.1325C52.4582 21.3689 51.5781 19.2434 51.5781 16.7562C51.5781 14.269 52.4582 12.1435 54.2183 10.3799C55.9784 8.61621 58.0996 7.73438 60.5818 7.73437C63.0641 7.73437 65.1852 8.61621 66.9228 10.3799C68.6829 12.1435 69.563 14.269 69.563 16.7562C69.563 19.1516 68.7554 21.203 67.1403 22.9106C66.9811 23.0789 66.9584 23.3423 67.1153 23.5128C67.6027 24.0428 68.054 24.1827 69.1117 24.2405L69.1299 24.2414ZM65.7494 21.8889C67.1936 20.4644 67.9157 18.7234 67.9157 16.6884C67.9157 14.6534 67.1936 12.9123 65.7494 11.4878C64.3277 10.0407 62.5902 9.31715 60.5593 9.31715C58.5284 9.31715 56.7908 10.0407 55.3466 11.4878C53.925 12.9123 53.2029 14.6534 53.2029 16.6884C53.2029 18.7234 53.925 20.4644 55.3466 21.8889C56.7908 23.3134 58.5284 24.037 60.5593 24.037C62.5902 24.037 64.3277 23.3134 65.7494 21.8889Z" fill="#808080"/>
<path fill-rule="evenodd" clip-rule="evenodd" d="M38.0948 20.7537C38.1365 20.7082 38.1966 20.6825 38.2595 20.6825V20.6829H39.6895C39.818 20.6829 39.9272 20.7896 39.9432 20.9316C40.0304 21.698 40.475 22.4275 41.3026 23.1612C42.1 23.8687 43.1061 24.2393 44.2944 24.2632C45.4909 24.2861 46.5438 23.94 47.4238 23.2329C48.301 22.5287 48.7313 21.6543 48.7029 20.6333C48.6744 19.7948 48.3207 19.0721 47.6518 18.4841C46.9898 17.9026 45.9988 17.4383 44.7059 17.1036L42.4372 16.5299C41.2604 16.2269 40.3337 15.6987 39.6822 14.96C39.0362 14.2272 38.7022 13.3331 38.6884 12.3015C38.6614 11.035 39.2312 9.95095 40.3823 9.08026L40.3956 9.07061C41.5719 8.16268 42.9589 7.71308 44.5151 7.73515C46.0717 7.75768 47.4114 8.23715 48.4964 9.16025C49.4869 10.0034 50.0311 11.0092 50.1127 12.1498C50.1169 12.2063 50.0971 12.2606 50.0581 12.3029C50.0169 12.347 49.9572 12.3727 49.8948 12.3727H48.468C48.3404 12.3727 48.2294 12.2638 48.2101 12.1199C48.123 11.4809 47.7293 10.8552 47.0402 10.2608C46.364 9.65306 45.5166 9.32069 44.521 9.27334C43.4704 9.22691 42.5285 9.51883 41.7224 10.1422C40.925 10.7564 40.5516 11.4869 40.58 12.3746C40.5942 13.0816 40.8177 13.6755 41.2439 14.1394C41.666 14.5982 42.2941 14.9375 43.1112 15.1475L45.6841 15.8132C47.3059 16.2315 48.5414 16.8549 49.3557 17.6658C50.1641 18.4713 50.5812 19.4863 50.5945 20.6843C50.6211 22.0841 50.0256 23.2693 48.7745 24.3073C47.5348 25.3127 46.0791 25.8013 44.3233 25.8013C42.5675 25.8013 41.1113 25.3122 39.8717 24.3068C38.743 23.3915 38.1439 22.2809 38.0397 20.9109C38.0351 20.8526 38.0549 20.7969 38.0948 20.7537Z" fill="#808080"/>
</svg>
