<svg width="96" height="23" viewBox="0 0 96 23" fill="none" xmlns="http://www.w3.org/2000/svg">
<g clip-path="url(#clip0_905_18628)">
<path d="M12.0157 23.2891C5.67449 23.2891 0.515625 18.1302 0.515625 11.7891C0.515625 5.44791 5.67449 0.289062 12.0157 0.289062C18.3568 0.289062 23.5157 5.44791 23.5157 11.7891C23.5157 18.1302 18.3568 23.2891 12.0157 23.2891ZM12.0157 1.73089C6.47038 1.73089 1.95745 6.2438 1.95745 11.7891C1.95745 17.3343 6.47038 21.8472 12.0157 21.8472C17.5609 21.8472 22.0739 17.3343 22.0739 11.7891C22.0739 6.2438 17.5638 1.73089 12.0157 1.73089Z" fill="#808080"/>
<path d="M16.7423 15.2653C16.3933 16.9436 14.8506 18.1029 13.1377 18.1029H11.37L9.02272 18.1C8.62766 18.1 8.30469 17.777 8.30469 17.3819C8.30469 16.9869 8.62766 16.6639 9.02272 16.6639H13.1579C14.1153 16.6639 15.0005 16.067 15.2831 15.15C15.6811 13.8495 14.7122 12.6528 13.4693 12.6528H12.313C11.892 12.6528 11.5488 12.3096 11.5488 11.8886C11.5488 11.5137 11.8516 11.2109 12.2236 11.2109H13.4693C14.2018 11.2109 14.8823 11.4474 15.4331 11.8511C16.4453 12.5864 17.0306 13.8754 16.7394 15.2682L16.7423 15.2653Z" fill="#808080"/>
<path d="M16.7423 9.7966C16.5664 10.6415 16.0877 11.3567 15.436 11.8526C14.7958 12.3486 13.9884 12.6341 13.1377 12.6341H12.2236C11.8516 12.6341 11.5488 12.3284 11.5488 11.9565V11.8699C11.5488 11.4951 11.8516 11.1952 12.2236 11.1952H13.1579C14.1153 11.1952 15.0005 10.5983 15.2831 9.68414C15.6811 8.38073 14.7122 7.18401 13.4693 7.18401H9.06886C8.64784 7.18401 8.30469 6.84086 8.30469 6.41985C8.30469 6.04785 8.61036 5.74219 8.97946 5.74219H13.4693C15.5456 5.74219 17.1892 7.6454 16.7394 9.79948L16.7423 9.7966Z" fill="#808080"/>
<path d="M10.231 12.6293H9.06886C8.64784 12.6293 8.30469 12.2862 8.30469 11.8652C8.30469 11.4903 8.60747 11.1875 8.97946 11.1875H10.231C10.6289 11.1875 10.9519 11.5105 10.9519 11.9084C10.9519 12.3064 10.6289 12.6293 10.231 12.6293Z" fill="#808080"/>
<path d="M10.231 9.93401H9.06886C8.64784 9.93401 8.30469 9.59086 8.30469 9.16985C8.30469 8.79497 8.60747 8.49219 8.97946 8.49219H10.231C10.6289 8.49219 10.9519 8.81516 10.9519 9.2131C10.9519 9.61104 10.6289 9.93401 10.231 9.93401Z" fill="#808080"/>
<path d="M10.231 15.3871H9.06886C8.64784 15.3871 8.30469 15.044 8.30469 14.623C8.30469 14.2481 8.60747 13.9453 8.97946 13.9453H10.231C10.6289 13.9453 10.9519 14.2683 10.9519 14.6662C10.9519 15.0642 10.6289 15.3871 10.231 15.3871Z" fill="#808080"/>
</g>
<path d="M28.2891 16.3893V7.69531H31.7365C32.3241 7.69531 32.8051 7.81405 33.1795 8.05153C33.5578 8.28497 33.8375 8.58484 34.0187 8.95111C34.2038 9.31739 34.2964 9.69574 34.2964 10.0862C34.2964 10.5651 34.1817 10.9717 33.9523 11.3057C33.7269 11.6398 33.4189 11.8652 33.0285 11.9819V11.6801C33.5759 11.8048 33.9905 12.0644 34.2722 12.4589C34.558 12.8533 34.7009 13.3021 34.7009 13.8053C34.7009 14.3205 34.6023 14.7713 34.4051 15.1577C34.2078 15.5441 33.914 15.8459 33.5236 16.0633C33.1372 16.2806 32.6582 16.3893 32.0867 16.3893H28.2891ZM29.7622 15.0188H31.9055C32.1591 15.0188 32.3865 14.9685 32.5878 14.8679C32.789 14.7632 32.946 14.6183 33.0587 14.4332C33.1754 14.244 33.2338 14.0206 33.2338 13.763C33.2338 13.5296 33.1835 13.3203 33.0828 13.1351C32.9822 12.95 32.8353 12.803 32.6421 12.6944C32.4489 12.5817 32.2175 12.5253 31.9478 12.5253H29.7622V15.0188ZM29.7622 11.1669H31.7184C31.9277 11.1669 32.1148 11.1266 32.2799 11.0461C32.4449 10.9656 32.5757 10.8469 32.6723 10.6899C32.7689 10.5329 32.8172 10.3397 32.8172 10.1103C32.8172 9.80844 32.7206 9.55688 32.5274 9.35562C32.3342 9.15438 32.0645 9.05375 31.7184 9.05375H29.7622V11.1669Z" fill="#808080"/>
<path d="M35.9067 16.3893V9.86881H37.1927V11.4567L37.0357 11.2514C37.1162 11.0341 37.2229 10.8368 37.3557 10.6597C37.4926 10.4786 37.6556 10.3297 37.8448 10.213C38.0058 10.1043 38.1829 10.0197 38.3761 9.95937C38.5733 9.89497 38.7745 9.85674 38.9798 9.84466C39.1851 9.82856 39.3843 9.83661 39.5775 9.86881V11.2273C39.3843 11.1709 39.1609 11.1528 38.9074 11.1729C38.6578 11.193 38.4324 11.2635 38.2312 11.3842C38.0299 11.4929 37.8649 11.6318 37.7361 11.8008C37.6113 11.9699 37.5187 12.1631 37.4584 12.3804C37.398 12.5937 37.3678 12.8252 37.3678 13.0747V16.3893H35.9067Z" fill="#808080"/>
<path d="M42.3997 16.5704C41.9288 16.5704 41.5303 16.4819 41.2043 16.3048C40.8782 16.1237 40.6307 15.8842 40.4616 15.5863C40.2966 15.2885 40.2141 14.9604 40.2141 14.6022C40.2141 14.2883 40.2664 14.0065 40.3711 13.757C40.4757 13.5034 40.6367 13.286 40.8541 13.1049C41.0714 12.9198 41.3532 12.7688 41.6993 12.6521C41.961 12.5676 42.2669 12.4911 42.617 12.4227C42.9712 12.3542 43.3536 12.2919 43.7642 12.2355C44.1787 12.1751 44.6114 12.1107 45.0622 12.0423L44.543 12.3382C44.547 11.8874 44.4464 11.5553 44.2411 11.342C44.0358 11.1286 43.6897 11.022 43.2027 11.022C42.9088 11.022 42.6251 11.0904 42.3514 11.2273C42.0777 11.3641 41.8865 11.5996 41.7778 11.9336L40.4496 11.5171C40.6106 10.9656 40.9165 10.5229 41.3673 10.1888C41.8221 9.85472 42.4339 9.68769 43.2027 9.68769C43.7823 9.68769 44.2914 9.78227 44.7302 9.97145C45.1729 10.1606 45.5009 10.4706 45.7143 10.9012C45.831 11.1306 45.9014 11.3661 45.9256 11.6076C45.9497 11.8451 45.9618 12.1047 45.9618 12.3864V16.3893H44.6879V14.9765L44.8992 15.206C44.6054 15.6769 44.2612 16.023 43.8668 16.2444C43.4764 16.4618 42.9873 16.5704 42.3997 16.5704ZM42.6895 15.4112C43.0195 15.4112 43.3013 15.3529 43.5347 15.2361C43.7682 15.1194 43.9533 14.9765 44.0902 14.8075C44.2311 14.6384 44.3256 14.4795 44.3739 14.3305C44.4504 14.1454 44.4927 13.9341 44.5007 13.6966C44.5128 13.4551 44.5188 13.2599 44.5188 13.1109L44.9656 13.2438C44.5269 13.3122 44.1506 13.3726 43.8366 13.4249C43.5227 13.4772 43.253 13.5275 43.0276 13.5758C42.8022 13.6201 42.6029 13.6704 42.4299 13.7268C42.2608 13.7871 42.1179 13.8576 42.0012 13.9381C41.8845 14.0186 41.7939 14.1112 41.7295 14.2158C41.6691 14.3205 41.639 14.4432 41.639 14.5841C41.639 14.7451 41.6792 14.888 41.7597 15.0128C41.8402 15.1335 41.9569 15.2301 42.1099 15.3026C42.2669 15.375 42.4601 15.4112 42.6895 15.4112Z" fill="#808080"/>
<path d="M52.0437 16.3893V13.2498C52.0437 13.0445 52.0296 12.8171 52.0014 12.5676C51.9732 12.318 51.9068 12.0785 51.8022 11.8491C51.7015 11.6157 51.5486 11.4245 51.3433 11.2755C51.1421 11.1266 50.8684 11.0522 50.5222 11.0522C50.3371 11.0522 50.1539 11.0824 49.9728 11.1427C49.7917 11.2031 49.6266 11.3077 49.4777 11.4567C49.3328 11.6016 49.2161 11.8028 49.1275 12.0604C49.039 12.314 48.9947 12.64 48.9947 13.0385L48.1314 12.6702C48.1314 12.1148 48.238 11.6116 48.4513 11.1608C48.6687 10.71 48.9867 10.3518 49.4053 10.0862C49.8239 9.81649 50.3391 9.68165 50.9509 9.68165C51.4339 9.68165 51.8324 9.76215 52.1463 9.92315C52.4603 10.0842 52.7098 10.2894 52.895 10.539C53.0801 10.7885 53.217 11.0542 53.3055 11.3359C53.3941 11.6177 53.4504 11.8853 53.4746 12.1389C53.5027 12.3885 53.5168 12.5917 53.5168 12.7487V16.3893H52.0437ZM47.5216 16.3893V9.86881H48.8196V11.8914H48.9947V16.3893H47.5216Z" fill="#808080"/>
<path d="M57.6004 16.5704C57.0007 16.5704 56.4775 16.4195 56.0307 16.1176C55.5839 15.8158 55.2378 15.4052 54.9922 14.886C54.7467 14.3668 54.6239 13.7811 54.6239 13.1291C54.6239 12.469 54.7467 11.8813 54.9922 11.3661C55.2418 10.8469 55.594 10.4383 56.0488 10.1405C56.5036 9.83862 57.039 9.68769 57.6548 9.68769C58.2746 9.68769 58.7939 9.83862 59.2125 10.1405C59.6351 10.4383 59.9551 10.8469 60.1724 11.3661C60.3898 11.8853 60.4985 12.473 60.4985 13.1291C60.4985 13.7771 60.3898 14.3627 60.1724 14.886C59.9551 15.4052 59.6311 15.8158 59.2004 16.1176C58.7697 16.4195 58.2364 16.5704 57.6004 16.5704ZM57.8238 15.2663C58.2143 15.2663 58.5282 15.1778 58.7657 15.0007C59.0072 14.8196 59.1823 14.568 59.291 14.246C59.4037 13.924 59.46 13.5517 59.46 13.1291C59.46 12.7024 59.4037 12.3301 59.291 12.0121C59.1823 11.6901 59.0112 11.4406 58.7778 11.2635C58.5443 11.0824 58.2424 10.9918 57.8721 10.9918C57.4817 10.9918 57.1597 11.0884 56.9061 11.2816C56.6526 11.4708 56.4654 11.7284 56.3446 12.0544C56.2239 12.3764 56.1635 12.7346 56.1635 13.1291C56.1635 13.5275 56.2219 13.8898 56.3386 14.2158C56.4594 14.5378 56.6425 14.7934 56.888 14.9826C57.1335 15.1718 57.4455 15.2663 57.8238 15.2663ZM59.46 16.3893V11.8129H59.2789V7.69531H60.746V16.3893H59.46Z" fill="#808080"/>
<path d="M70.197 16.3893L70.209 12.0061C70.209 11.4788 70.0581 11.0663 69.7562 10.7684C69.4584 10.4665 69.0861 10.3156 68.6393 10.3156C68.3857 10.3156 68.1342 10.3739 67.8846 10.4907C67.6391 10.6074 67.4338 10.7966 67.2688 11.0582C67.1037 11.3198 67.0212 11.674 67.0212 12.1208L66.5322 12.0423C66.5161 11.5674 66.6026 11.1548 66.7918 10.8046C66.985 10.4504 67.2507 10.1767 67.5888 9.98352C67.9309 9.79032 68.3193 9.69372 68.754 9.69372C69.394 9.69372 69.9112 9.89095 70.3056 10.2854C70.7041 10.6799 70.9034 11.2192 70.9034 11.9035L70.8913 16.3893H70.197ZM62.4388 16.3893V9.86881H63.0727V11.3359H63.1331V16.3893H62.4388ZM66.3209 16.3893L66.333 12.0725C66.333 11.5331 66.186 11.1065 65.8922 10.7926C65.5984 10.4746 65.216 10.3156 64.7451 10.3156C64.2661 10.3156 63.8777 10.4806 63.5798 10.8107C63.282 11.1367 63.1331 11.5734 63.1331 12.1208L62.6501 11.8793C62.6501 11.4567 62.7467 11.0824 62.9399 10.7563C63.1331 10.4263 63.3967 10.1667 63.7308 9.97749C64.0689 9.78831 64.4553 9.69372 64.89 9.69372C65.2804 9.69372 65.6366 9.77624 65.9586 9.94126C66.2806 10.1063 66.5382 10.3558 66.7314 10.6899C66.9246 11.02 67.0212 11.4345 67.0212 11.9336L67.0092 16.3893H66.3209Z" fill="#808080"/>
<path d="M74.3575 16.5704C73.8544 16.5704 73.4357 16.4819 73.1017 16.3048C72.7716 16.1277 72.5241 15.8942 72.3591 15.6044C72.194 15.3106 72.1115 14.9926 72.1115 14.6505C72.1115 14.2802 72.188 13.9703 72.3409 13.7207C72.4979 13.4712 72.7052 13.2699 72.9628 13.117C73.2244 12.964 73.5122 12.8493 73.8262 12.7729C74.1844 12.6924 74.5708 12.6239 74.9854 12.5676C75.4 12.5072 75.7944 12.4549 76.1687 12.4106C76.5471 12.3663 76.855 12.3281 77.0925 12.2959L76.8389 12.4468C76.855 11.7424 76.7222 11.2192 76.4404 10.8771C76.1627 10.5309 75.6716 10.3578 74.9673 10.3578C74.4722 10.3578 74.0637 10.4706 73.7416 10.696C73.4237 10.9173 73.2003 11.2615 73.0715 11.7284L72.3591 11.5291C72.508 10.9375 72.8078 10.4826 73.2586 10.1647C73.7094 9.84668 74.287 9.68769 74.9914 9.68769C75.5911 9.68769 76.0943 9.80441 76.5008 10.0379C76.9113 10.2713 77.1971 10.5994 77.3581 11.022C77.4265 11.1951 77.4728 11.3983 77.497 11.6318C77.5211 11.8612 77.5332 12.0926 77.5332 12.3261V16.3893H76.8993V14.6747L77.1347 14.735C76.9375 15.3227 76.5934 15.7755 76.1023 16.0935C75.6113 16.4115 75.0297 16.5704 74.3575 16.5704ZM74.3937 15.9305C74.8364 15.9305 75.2249 15.852 75.5589 15.695C75.893 15.534 76.1627 15.3106 76.368 15.0248C76.5773 14.735 76.7101 14.3949 76.7664 14.0045C76.8067 13.7872 76.8288 13.5517 76.8329 13.2981C76.8369 13.0445 76.8389 12.8574 76.8389 12.7366L77.1408 12.9298C76.8791 12.962 76.5652 12.9962 76.1989 13.0325C75.8367 13.0687 75.4664 13.113 75.088 13.1653C74.7097 13.2176 74.3675 13.284 74.0616 13.3645C73.8725 13.4169 73.6813 13.4933 73.4881 13.5939C73.2989 13.6905 73.1399 13.8254 73.0111 13.9985C72.8863 14.1715 72.8239 14.3909 72.8239 14.6566C72.8239 14.8538 72.8722 15.051 72.9688 15.2482C73.0695 15.4455 73.2345 15.6085 73.4639 15.7373C73.6933 15.8661 74.0033 15.9305 74.3937 15.9305Z" fill="#808080"/>
<path d="M79.1009 16.3893V9.86881H79.7348V11.4325L79.5779 11.2273C79.6503 11.0421 79.7409 10.871 79.8495 10.7141C79.9622 10.5531 80.077 10.4223 80.1937 10.3216C80.3668 10.1606 80.57 10.0399 80.8035 9.95937C81.0369 9.87485 81.2724 9.82655 81.5099 9.81447C81.7473 9.79837 81.9627 9.81649 82.1559 9.86881V10.5269C81.8983 10.4665 81.6246 10.4544 81.3348 10.4907C81.045 10.5269 80.7733 10.6517 80.5197 10.865C80.2983 11.0582 80.1373 11.2836 80.0367 11.5412C79.9361 11.7948 79.8717 12.0624 79.8435 12.3442C79.8153 12.6219 79.8012 12.8936 79.8012 13.1593V16.3893H79.1009Z" fill="#808080"/>
<path d="M85.8435 16.5704C85.1914 16.5704 84.642 16.4255 84.1952 16.1357C83.7485 15.8419 83.4083 15.4374 83.1749 14.9222C82.9455 14.403 82.8267 13.8053 82.8187 13.1291C82.8267 12.4408 82.9475 11.8391 83.1809 11.3238C83.4184 10.8046 83.7605 10.4021 84.2073 10.1164C84.6541 9.83058 85.2015 9.68769 85.8495 9.68769C86.4814 9.68769 87.0369 9.84064 87.5159 10.1465C87.9989 10.4484 88.3329 10.865 88.5181 11.3963L87.8419 11.6438C87.6769 11.2373 87.4173 10.9234 87.0631 10.702C86.7089 10.4766 86.3023 10.3639 85.8435 10.3639C85.3283 10.3639 84.9036 10.4826 84.5696 10.7201C84.2355 10.9536 83.9859 11.2776 83.8209 11.6921C83.6559 12.1067 83.5693 12.5857 83.5613 13.1291C83.5734 13.9622 83.7686 14.6324 84.1469 15.1396C84.5293 15.6427 85.0948 15.8942 85.8435 15.8942C86.3063 15.8942 86.7068 15.7876 87.0449 15.5743C87.3871 15.3609 87.6487 15.051 87.8298 14.6445L88.5181 14.8799C88.2645 15.4314 87.9103 15.852 87.4555 16.1418C87.0007 16.4276 86.4633 16.5704 85.8435 16.5704Z" fill="#808080"/>
<path d="M94.5601 16.3893V12.9962C94.5601 12.5857 94.5179 12.2194 94.4333 11.8974C94.3528 11.5754 94.2281 11.3017 94.059 11.0763C93.894 10.8509 93.6847 10.6799 93.4311 10.5631C93.1816 10.4464 92.8857 10.388 92.5436 10.388C92.1894 10.388 91.8815 10.4504 91.6199 10.5752C91.3623 10.696 91.1489 10.867 90.9799 11.0884C90.8149 11.3098 90.6901 11.5734 90.6056 11.8793C90.5251 12.1812 90.4848 12.5112 90.4848 12.8695L89.9354 12.803C89.9354 12.0987 90.0541 11.5191 90.2916 11.0642C90.5331 10.6054 90.8571 10.2673 91.2637 10.0499C91.6702 9.82856 92.127 9.71788 92.6342 9.71788C92.9924 9.71788 93.3124 9.7702 93.5941 9.87485C93.8799 9.9795 94.1274 10.1284 94.3367 10.3216C94.546 10.5108 94.7191 10.7362 94.856 10.9978C94.9928 11.2554 95.0935 11.5392 95.1579 11.8491C95.2263 12.159 95.2605 12.483 95.2605 12.8211V16.3893H94.5601ZM89.7845 16.3893V7.69531H90.4184V12.7185H90.4848V16.3893H89.7845Z" fill="#808080"/>
<defs>
<clipPath id="clip0_905_18628">
<rect x="0.515625" width="23.0001" height="23" rx="11.5" fill="white"/>
</clipPath>
</defs>
</svg>
