<svg width="132" height="29" viewBox="0 0 132 29" fill="none" xmlns="http://www.w3.org/2000/svg">
<g clip-path="url(#clip0_905_18628)">
<path d="M14.0953 28.8594C6.37479 28.8594 0.09375 22.579 0.09375 14.8594C0.09375 7.13972 6.37479 0.859375 14.0953 0.859375C21.8158 0.859375 28.0969 7.13972 28.0969 14.8594C28.0969 22.579 21.8158 28.8594 14.0953 28.8594ZM14.0953 2.61464C7.3438 2.61464 1.84921 8.10862 1.84921 14.8594C1.84921 21.6101 7.3438 27.1041 14.0953 27.1041C20.8468 27.1041 26.3414 21.6101 26.3414 14.8594C26.3414 8.10862 20.8503 2.61464 14.0953 2.61464Z" fill="#808080"/>
<path d="M19.8355 19.0999C19.4106 21.143 17.5323 22.5542 15.4468 22.5542H13.2946L10.4367 22.5507C9.95572 22.5507 9.5625 22.1575 9.5625 21.6766C9.5625 21.1957 9.95572 20.8025 10.4367 20.8025H15.4714C16.637 20.8025 17.7149 20.0758 18.0589 18.9594C18.5434 17.3762 17.3638 15.9193 15.8506 15.9193H14.4427C13.9301 15.9193 13.5123 15.5016 13.5123 14.989C13.5123 14.5327 13.8809 14.1641 14.3338 14.1641H15.8506C16.7423 14.1641 17.5709 14.4519 18.2415 14.9434C19.4738 15.8386 20.1866 17.4078 19.8319 19.1034L19.8355 19.0999Z" fill="#808080"/>
<path d="M19.8355 12.4202C19.6213 13.4488 19.0385 14.3194 18.245 14.9232C17.4656 15.527 16.4825 15.8745 15.4468 15.8745H14.3338C13.8809 15.8745 13.5123 15.5024 13.5123 15.0496V14.9443C13.5123 14.4879 13.8809 14.1228 14.3338 14.1228H15.4714C16.637 14.1228 17.7149 13.3961 18.0589 12.2833C18.5434 10.6965 17.3638 9.23964 15.8506 9.23964H10.4929C9.9803 9.23964 9.5625 8.82189 9.5625 8.30935C9.5625 7.85649 9.93466 7.48438 10.3841 7.48438H15.8506C18.3784 7.48438 20.3796 9.80133 19.8319 12.4237L19.8355 12.4202Z" fill="#808080"/>
<path d="M11.9078 15.8959H10.4929C9.9803 15.8959 9.5625 15.4781 9.5625 14.9656C9.5625 14.5092 9.93115 14.1406 10.3841 14.1406H11.9078C12.3923 14.1406 12.7855 14.5338 12.7855 15.0183C12.7855 15.5027 12.3923 15.8959 11.9078 15.8959Z" fill="#808080"/>
<path d="M11.9078 12.6146H10.4929C9.9803 12.6146 9.5625 12.1969 9.5625 11.6843C9.5625 11.228 9.93115 10.8594 10.3841 10.8594H11.9078C12.3923 10.8594 12.7855 11.2526 12.7855 11.737C12.7855 12.2215 12.3923 12.6146 11.9078 12.6146Z" fill="#808080"/>
<path d="M11.9078 19.2396H10.4929C9.9803 19.2396 9.5625 18.8219 9.5625 18.3094C9.5625 17.853 9.93115 17.4844 10.3841 17.4844H11.9078C12.3923 17.4844 12.7855 17.8776 12.7855 18.362C12.7855 18.8465 12.3923 19.2396 11.9078 19.2396Z" fill="#808080"/>
</g>
<path d="M32 20.8648V8H37.1018C37.9715 8 38.6833 8.1757 39.2373 8.5271C39.7972 8.87254 40.2112 9.31626 40.4792 9.85825C40.7532 10.4002 40.8902 10.9601 40.8902 11.5378C40.8902 12.2466 40.7204 12.8481 40.3809 13.3425C40.0473 13.8368 39.5917 14.1703 39.0139 14.3431V13.8964C39.824 14.081 40.4375 14.4652 40.8545 15.0488C41.2774 15.6325 41.4888 16.2966 41.4888 17.0411C41.4888 17.8035 41.3429 18.4705 41.051 19.0423C40.7592 19.6141 40.3243 20.0607 39.7465 20.3824C39.1747 20.704 38.4659 20.8648 37.62 20.8648H32ZM34.1801 18.8368H37.352C37.7273 18.8368 38.0638 18.7624 38.3616 18.6135C38.6595 18.4586 38.8918 18.2442 39.0586 17.9702C39.2313 17.6903 39.3177 17.3597 39.3177 16.9786C39.3177 16.6331 39.2432 16.3234 39.0943 16.0494C38.9454 15.7755 38.728 15.5581 38.442 15.3973C38.1561 15.2305 37.8136 15.1471 37.4145 15.1471H34.1801V18.8368ZM34.1801 13.137H37.075C37.3848 13.137 37.6617 13.0774 37.906 12.9583C38.1502 12.8392 38.3438 12.6635 38.4867 12.4312C38.6297 12.1989 38.7012 11.913 38.7012 11.5736C38.7012 11.1269 38.5582 10.7546 38.2723 10.4568C37.9864 10.159 37.5873 10.0101 37.075 10.0101H34.1801V13.137Z" fill="#808080"/>
<path d="M43.2733 20.8648V11.2162H45.1764V13.5658L44.9441 13.2621C45.0633 12.9404 45.2211 12.6486 45.4177 12.3865C45.6202 12.1185 45.8614 11.8982 46.1414 11.7254C46.3797 11.5646 46.6418 11.4395 46.9277 11.3502C47.2195 11.2549 47.5174 11.1983 47.8212 11.1805C48.1249 11.1566 48.4198 11.1686 48.7057 11.2162V13.2263C48.4198 13.1429 48.0892 13.1161 47.7139 13.1459C47.3446 13.1757 47.0111 13.2799 46.7132 13.4586C46.4154 13.6194 46.1712 13.8249 45.9806 14.075C45.7959 14.3252 45.6589 14.6111 45.5696 14.9327C45.4802 15.2484 45.4355 15.5908 45.4355 15.9601V20.8648H43.2733Z" fill="#808080"/>
<path d="M52.8822 21.1328C52.1853 21.1328 51.5956 21.0018 51.1131 20.7397C50.6306 20.4717 50.2643 20.1173 50.0141 19.6766C49.7699 19.2359 49.6478 18.7504 49.6478 18.2204C49.6478 17.7558 49.7252 17.3389 49.8801 16.9696C50.035 16.5944 50.2732 16.2728 50.5949 16.0048C50.9165 15.7308 51.3335 15.5074 51.8458 15.3347C52.2329 15.2096 52.6856 15.0965 53.2039 14.9952C53.728 14.894 54.2939 14.8017 54.9015 14.7183C55.515 14.6289 56.1554 14.5336 56.8225 14.4324L56.0541 14.8702C56.0601 14.2031 55.9111 13.7117 55.6074 13.3961C55.3036 13.0804 54.7913 12.9226 54.0706 12.9226C53.6357 12.9226 53.2158 13.0238 52.8107 13.2263C52.4057 13.4288 52.1227 13.7772 51.9619 14.2716L49.9962 13.6551C50.2345 12.8392 50.6872 12.184 51.3543 11.6897C52.0274 11.1954 52.9328 10.9482 54.0706 10.9482C54.9283 10.9482 55.6818 11.0881 56.3311 11.3681C56.9863 11.648 57.4718 12.1066 57.7875 12.7439C57.9602 13.0834 58.0644 13.4318 58.1002 13.7892C58.1359 14.1406 58.1538 14.5247 58.1538 14.9416V20.8648H56.2685V18.7743L56.5813 19.1138C56.1464 19.8106 55.6371 20.3228 55.0534 20.6504C54.4756 20.972 53.7519 21.1328 52.8822 21.1328ZM53.3111 19.4175C53.7995 19.4175 54.2165 19.3311 54.562 19.1584C54.9075 18.9857 55.1815 18.7743 55.384 18.5241C55.5925 18.274 55.7324 18.0387 55.8039 17.8183C55.9171 17.5444 55.9796 17.2317 55.9916 16.8803C56.0094 16.5229 56.0184 16.2341 56.0184 16.0137L56.6795 16.2102C56.0303 16.3115 55.4733 16.4008 55.0087 16.4783C54.5441 16.5557 54.145 16.6301 53.8114 16.7016C53.4779 16.7671 53.183 16.8416 52.9269 16.925C52.6767 17.0143 52.4653 17.1185 52.2925 17.2376C52.1198 17.3568 51.9857 17.4937 51.8904 17.6486C51.8011 17.8035 51.7564 17.9851 51.7564 18.1936C51.7564 18.4318 51.816 18.6432 51.9351 18.8279C52.0542 19.0065 52.227 19.1495 52.4533 19.2567C52.6856 19.3639 52.9716 19.4175 53.3111 19.4175Z" fill="#808080"/>
<path d="M67.1543 20.8648V16.2192C67.1543 15.9154 67.1334 15.5789 67.0917 15.2096C67.05 14.8404 66.9518 14.486 66.7969 14.1465C66.648 13.8011 66.4216 13.5182 66.1178 13.2978C65.82 13.0774 65.415 12.9672 64.9027 12.9672C64.6287 12.9672 64.3577 13.0119 64.0896 13.1012C63.8216 13.1906 63.5774 13.3454 63.357 13.5658C63.1425 13.7802 62.9698 14.078 62.8387 14.4592C62.7077 14.8344 62.6422 15.3169 62.6422 15.9065L61.3645 15.3615C61.3645 14.5396 61.5223 13.7951 61.838 13.1281C62.1597 12.461 62.6303 11.9309 63.2497 11.5378C63.8692 11.1388 64.6317 10.9392 65.5371 10.9392C66.2519 10.9392 66.8416 11.0584 67.3062 11.2966C67.7708 11.5348 68.1401 11.8386 68.4141 12.2079C68.6881 12.5771 68.8906 12.9702 69.0217 13.3871C69.1527 13.804 69.2361 14.2001 69.2719 14.5753C69.3135 14.9446 69.3344 15.2454 69.3344 15.4777V20.8648H67.1543ZM60.4621 20.8648V11.2162H62.3831V14.2091H62.6422V20.8648H60.4621Z" fill="#808080"/>
<path d="M75.3777 21.1328C74.4902 21.1328 73.7158 20.9095 73.0547 20.4628C72.3935 20.0161 71.8812 19.4086 71.5179 18.6403C71.1545 17.8719 70.9728 17.0054 70.9728 16.0405C70.9728 15.0637 71.1545 14.1942 71.5179 13.4318C71.8872 12.6635 72.4084 12.059 73.0815 11.6182C73.7546 11.1715 74.5468 10.9482 75.4581 10.9482C76.3755 10.9482 77.1439 11.1715 77.7633 11.6182C78.3888 12.059 78.8623 12.6635 79.184 13.4318C79.5056 14.2001 79.6665 15.0697 79.6665 16.0405C79.6665 16.9994 79.5056 17.866 79.184 18.6403C78.8623 19.4086 78.3828 20.0161 77.7455 20.4628C77.1081 20.9095 76.3189 21.1328 75.3777 21.1328ZM75.7083 19.2031C76.2861 19.2031 76.7507 19.0721 77.1022 18.81C77.4596 18.542 77.7187 18.1697 77.8795 17.6933C78.0463 17.2168 78.1297 16.6659 78.1297 16.0405C78.1297 15.4092 78.0463 14.8582 77.8795 14.3877C77.7187 13.9113 77.4655 13.542 77.12 13.2799C76.7745 13.0119 76.3278 12.8779 75.7798 12.8779C75.202 12.8779 74.7255 13.0208 74.3502 13.3067C73.975 13.5867 73.698 13.9678 73.5193 14.4503C73.3406 14.9267 73.2512 15.4568 73.2512 16.0405C73.2512 16.6301 73.3376 17.1662 73.5103 17.6486C73.689 18.1251 73.9601 18.5033 74.3234 18.7832C74.6868 19.0631 75.1484 19.2031 75.7083 19.2031ZM78.1297 20.8648V14.0929H77.8616V8H80.0328V20.8648H78.1297Z" fill="#808080"/>
<path d="M94.0192 20.8648L94.0371 14.3788C94.0371 13.5986 93.8137 12.9881 93.367 12.5473C92.9262 12.1007 92.3752 11.8773 91.714 11.8773C91.3388 11.8773 90.9665 11.9637 90.5972 12.1364C90.2338 12.3091 89.93 12.589 89.6858 12.9762C89.4416 13.3633 89.3195 13.8874 89.3195 14.5485L88.5958 14.4324C88.5719 13.7296 88.7 13.1191 88.98 12.601C89.2659 12.0768 89.659 11.6718 90.1594 11.3859C90.6657 11.1001 91.2405 10.9571 91.8838 10.9571C92.8309 10.9571 93.5963 11.249 94.1801 11.8326C94.7698 12.4163 95.0646 13.2144 95.0646 14.2269L95.0468 20.8648H94.0192ZM82.5379 20.8648V11.2162H83.4761V13.3871H83.5654V20.8648H82.5379ZM88.2831 20.8648L88.3009 14.4771C88.3009 13.679 88.0835 13.0476 87.6487 12.5831C87.2138 12.1126 86.648 11.8773 85.951 11.8773C85.2422 11.8773 84.6674 12.1215 84.2266 12.6099C83.7858 13.0923 83.5654 13.7385 83.5654 14.5485L82.8506 14.1912C82.8506 13.5658 82.9936 13.0119 83.2795 12.5295C83.5654 12.0411 83.9556 11.6569 84.45 11.377C84.9503 11.0971 85.5222 10.9571 86.1655 10.9571C86.7433 10.9571 87.2704 11.0792 87.747 11.3234C88.2235 11.5676 88.6047 11.9369 88.8906 12.4312C89.1765 12.9196 89.3195 13.5331 89.3195 14.2716L89.3016 20.8648H88.2831Z" fill="#808080"/>
<path d="M100.176 21.1328C99.4318 21.1328 98.8123 21.0018 98.3179 20.7397C97.8295 20.4777 97.4631 20.1322 97.2189 19.7034C96.9747 19.2686 96.8526 18.7981 96.8526 18.2918C96.8526 17.7439 96.9657 17.2853 97.1921 16.916C97.4244 16.5468 97.7312 16.249 98.1124 16.0226C98.4996 15.7963 98.9255 15.6266 99.3901 15.5134C99.9202 15.3943 100.492 15.293 101.106 15.2096C101.719 15.1203 102.303 15.0429 102.857 14.9774C103.417 14.9119 103.872 14.8553 104.224 14.8076L103.849 15.031C103.872 13.9887 103.676 13.2144 103.259 12.7082C102.848 12.1959 102.121 11.9398 101.079 11.9398C100.346 11.9398 99.7415 12.1066 99.265 12.4401C98.7944 12.7677 98.4638 13.2769 98.2732 13.9678L97.2189 13.673C97.4393 12.7975 97.8831 12.1245 98.5502 11.654C99.2173 11.1834 100.072 10.9482 101.115 10.9482C102.002 10.9482 102.747 11.1209 103.348 11.4663C103.956 11.8118 104.379 12.2972 104.617 12.9226C104.718 13.1787 104.787 13.4795 104.822 13.8249C104.858 14.1644 104.876 14.5068 104.876 14.8523V20.8648H103.938V18.3276L104.286 18.4169C103.995 19.2865 103.485 19.9565 102.759 20.427C102.032 20.8976 101.171 21.1328 100.176 21.1328ZM100.23 20.1858C100.885 20.1858 101.46 20.0697 101.954 19.8374C102.449 19.5992 102.848 19.2686 103.152 18.8457C103.461 18.4169 103.658 17.9136 103.741 17.3359C103.801 17.0143 103.834 16.6659 103.84 16.2906C103.846 15.9154 103.849 15.6385 103.849 15.4598L104.295 15.7457C103.908 15.7933 103.444 15.844 102.901 15.8976C102.365 15.9512 101.817 16.0167 101.257 16.0941C100.698 16.1715 100.191 16.2698 99.7385 16.3889C99.4586 16.4663 99.1756 16.5795 98.8897 16.7284C98.6098 16.8713 98.3745 17.0709 98.1839 17.327C97.9992 17.5831 97.9069 17.9077 97.9069 18.3008C97.9069 18.5926 97.9784 18.8845 98.1213 19.1763C98.2702 19.4681 98.5145 19.7093 98.854 19.8999C99.1935 20.0905 99.6522 20.1858 100.23 20.1858Z" fill="#808080"/>
<path d="M107.196 20.8648V11.2162H108.134V13.5301L107.902 13.2263C108.009 12.9524 108.143 12.6992 108.304 12.4669C108.471 12.2287 108.641 12.0351 108.813 11.8862C109.069 11.648 109.37 11.4693 109.716 11.3502C110.061 11.2251 110.41 11.1537 110.761 11.1358C111.113 11.112 111.431 11.1388 111.717 11.2162V12.19C111.336 12.1007 110.931 12.0828 110.502 12.1364C110.073 12.19 109.671 12.3746 109.296 12.6903C108.968 12.9762 108.73 13.3097 108.581 13.6909C108.432 14.0661 108.337 14.4622 108.295 14.8791C108.253 15.2901 108.233 15.6921 108.233 16.0852V20.8648H107.196Z" fill="#808080"/>
<path d="M117.174 21.1328C116.209 21.1328 115.396 20.9184 114.735 20.4896C114.074 20.0548 113.571 19.4562 113.225 18.6939C112.886 17.9255 112.71 17.0411 112.698 16.0405C112.71 15.022 112.889 14.1316 113.234 13.3693C113.586 12.601 114.092 12.0054 114.753 11.5825C115.414 11.1596 116.224 10.9482 117.183 10.9482C118.119 10.9482 118.941 11.1745 119.649 11.6272C120.364 12.0739 120.859 12.6903 121.133 13.4765L120.132 13.8428C119.888 13.2412 119.503 12.7767 118.979 12.4491C118.455 12.1155 117.853 11.9488 117.174 11.9488C116.412 11.9488 115.784 12.1245 115.289 12.4759C114.795 12.8213 114.425 13.3008 114.181 13.9142C113.937 14.5277 113.809 15.2364 113.797 16.0405C113.815 17.2734 114.104 18.265 114.664 19.0155C115.23 19.76 116.066 20.1322 117.174 20.1322C117.859 20.1322 118.452 19.9744 118.952 19.6587C119.459 19.3431 119.846 18.8845 120.114 18.2829L121.133 18.6313C120.757 19.4473 120.233 20.0697 119.56 20.4985C118.887 20.9214 118.092 21.1328 117.174 21.1328Z" fill="#808080"/>
<path d="M130.074 20.8648V15.844C130.074 15.2364 130.012 14.6945 129.887 14.218C129.767 13.7415 129.583 13.3365 129.333 13.003C129.088 12.6694 128.779 12.4163 128.403 12.2436C128.034 12.0709 127.596 11.9845 127.09 11.9845C126.566 11.9845 126.11 12.0768 125.723 12.2615C125.342 12.4401 125.026 12.6933 124.776 13.0208C124.532 13.3484 124.347 13.7385 124.222 14.1912C124.103 14.6379 124.043 15.1263 124.043 15.6563L123.23 15.5581C123.23 14.5158 123.406 13.6581 123.757 12.9851C124.115 12.3061 124.594 11.8058 125.196 11.4842C125.797 11.1566 126.473 10.9929 127.224 10.9929C127.754 10.9929 128.228 11.0703 128.645 11.2251C129.067 11.38 129.434 11.6004 129.744 11.8862C130.053 12.1662 130.309 12.4997 130.512 12.8868C130.714 13.268 130.863 13.6879 130.959 14.1465C131.06 14.6051 131.111 15.0846 131.111 15.5849V20.8648H130.074ZM123.007 20.8648V8H123.945V15.433H124.043V20.8648H123.007Z" fill="#808080"/>
<defs>
<clipPath id="clip0_905_18628">
<rect x="0.0625" y="0.5" width="28.0031" height="28" rx="14" fill="white"/>
</clipPath>
</defs>
</svg>
