<svg width="113" height="23" viewBox="0 0 113 23" fill="none" xmlns="http://www.w3.org/2000/svg">
<g clip-path="url(#clip0_905_18663)">
<path d="M27.1209 22.106C25.6889 22.106 24.428 21.3459 23.7045 20.2013C23.3412 20.4821 22.9119 20.7324 22.4046 20.9095C21.9393 21.0712 21.4529 21.1536 20.9606 21.1536C19.9639 21.1536 19.0002 20.8118 18.2406 20.1952C18.0335 20.0273 17.8504 19.8503 17.6912 19.6732C16.9707 20.534 15.8629 21.3856 14.1457 21.4864C14.0557 21.4925 13.9656 21.4955 13.8755 21.4955C12.2724 21.4955 10.7833 20.65 9.99077 19.2917C9.92173 19.1757 9.86168 19.0566 9.80464 18.9315C8.58578 20.1158 7.05469 21.001 5.0943 21.001C3.59924 21.001 2.24528 20.3661 1.27859 19.2154C0.266874 18.0127 -0.183446 16.34 0.0687331 14.7375C0.588102 11.4408 2.76465 8.62956 4.35878 6.80116C6.11803 4.78351 8.97305 2.11569 12.5936 0.867251C14.2358 0.302553 15.962 0.015625 17.7273 0.015625C19.6516 0.015625 21.552 0.354444 23.3713 1.02598C27.4362 2.52166 31.1738 6.04721 33.3684 10.4549C33.8937 11.5049 34.308 12.5855 34.6082 13.663C35.3648 16.3919 34.9535 18.4828 33.3894 19.8808C32.2216 20.9247 30.7955 21.1323 29.8228 21.1964C29.8228 21.1964 29.6938 21.2055 29.6487 21.2086C28.9402 21.7824 28.0546 22.106 27.1209 22.106Z" fill="#808080"/>
<path d="M32.5833 14.2365C32.3221 13.2933 31.9559 12.344 31.4935 11.4161C29.5331 7.48148 26.2278 4.34664 22.6553 3.03105C19.5991 1.90471 16.2667 1.85587 13.2676 2.88759C10.0823 3.98646 7.51851 6.39177 5.93038 8.21406C4.51037 9.841 2.577 12.3226 2.1447 15.0698C1.98858 16.0618 2.26178 17.0875 2.87421 17.82C3.43261 18.4885 4.21917 18.8548 5.08979 18.8548C7.87576 18.8548 9.62901 15.9825 10.9079 13.8824C11.1751 13.4429 11.4303 13.0247 11.6645 12.6798C11.7665 12.5302 11.8656 12.3806 11.9647 12.228C12.4 11.5687 12.8083 10.946 13.3607 10.5461C13.5738 10.3904 13.787 10.305 13.9671 10.305C14.1322 10.305 14.2913 10.421 14.3424 10.5766C14.4925 11.0284 14.1652 11.6633 13.847 12.2249C13.6098 12.6431 13.3336 13.046 13.0424 13.4703C12.8653 13.7298 12.6852 13.9892 12.502 14.2762C12.1748 14.7859 11.8026 15.3628 11.6014 16.0344C11.3732 16.8036 11.4423 17.5881 11.7905 18.1894C12.2078 18.9036 13.0124 19.3462 13.868 19.3462C13.916 19.3462 13.9671 19.3462 14.0151 19.3432C15.6783 19.2425 16.3838 17.936 16.8041 17.1546C17.1223 16.5655 17.4105 15.9489 17.6897 15.3537C18.1701 14.325 18.6264 13.3513 19.2238 12.4997C19.3709 12.289 19.542 12.1456 19.6681 12.1242C19.7372 12.112 19.8333 12.1303 19.9293 12.1731C20.0254 12.2158 20.1034 12.2738 20.1425 12.3318C20.1965 12.4172 20.2145 12.576 20.1875 12.753C20.1455 13.0216 19.8873 13.5436 19.6561 14.0015C19.0047 15.3018 18.023 17.2675 19.5541 18.519C20.1425 19.0013 20.9741 19.1387 21.7246 18.8792C22.6493 18.5587 23.1446 17.762 23.5439 17.121C23.6039 17.0234 23.664 16.9257 23.727 16.8341C24.3034 15.955 24.8708 15.0545 25.4262 14.1541C25.4893 14.1602 25.5553 14.1632 25.6184 14.1632C26.6961 14.1632 27.5697 13.275 27.5697 12.1792C27.5697 11.0833 26.6961 10.1951 25.6184 10.1951C24.5406 10.1951 23.667 11.0833 23.667 12.1792C23.667 12.5332 23.76 12.8629 23.9191 13.1498C23.3668 14.0472 22.8024 14.9416 22.229 15.8176C22.1599 15.9214 22.0939 16.0313 22.0248 16.1412C21.7516 16.5808 21.4694 17.0356 21.1452 17.1455C20.9861 17.2004 20.7939 17.179 20.6859 17.0905C20.3256 16.7975 20.7339 15.894 21.2653 14.8317C21.5835 14.1938 21.8867 13.5894 21.9708 13.0338C22.0668 12.402 21.9528 11.7976 21.6525 11.3275C21.4184 10.9673 21.0701 10.6774 20.6438 10.4912C20.2295 10.3111 19.7942 10.25 19.3829 10.3172C18.7615 10.421 18.2001 10.8086 17.7588 11.4374C17.0713 12.4203 16.5609 13.5131 16.0686 14.5662C15.7894 15.1644 15.5252 15.7291 15.231 16.2725C14.7236 17.2157 14.4414 17.4812 13.916 17.5117C13.6789 17.524 13.4387 17.4141 13.3456 17.2523C13.2556 17.0966 13.2496 16.8341 13.3306 16.5655C13.4567 16.1473 13.7389 15.7047 14.0301 15.256C14.1922 15.0057 14.3574 14.7615 14.5255 14.5173C14.8257 14.0778 15.1379 13.626 15.4141 13.1376C15.7834 12.4844 16.4739 11.2665 16.0566 9.99668C15.7594 9.09011 14.9248 8.47657 13.9821 8.47352C13.4297 8.47352 12.8443 8.67193 12.3189 9.05348C11.4993 9.6487 10.9529 10.4759 10.4726 11.2054C10.3795 11.3489 10.2835 11.4924 10.1874 11.6328C9.92622 12.0143 9.66203 12.4508 9.37983 12.9117C8.26304 14.7401 6.87605 17.0172 5.09279 17.0172C4.75055 17.0172 4.46534 16.886 4.24919 16.6265C3.97299 16.2999 3.85591 15.8238 3.92796 15.3537C4.19815 13.6443 5.29393 11.706 7.28434 9.42282C8.72837 7.76536 11.043 5.58287 13.853 4.61526C16.4258 3.727 19.413 3.77584 22.0488 4.74651C25.2011 5.90643 28.1341 8.70856 29.8934 12.2372C30.3047 13.0583 30.6289 13.8977 30.8571 14.7279C31.1753 15.8756 31.1633 16.5808 30.818 16.886C30.5419 17.1332 29.9714 17.1973 29.5662 17.2248H29.5271C29.341 17.2401 29.1339 17.2523 28.9387 17.2523C28.6535 16.5136 27.948 15.9916 27.1224 15.9916C26.0447 15.9916 25.171 16.8799 25.171 17.9757C25.171 19.0715 26.0447 19.9598 27.1224 19.9598C27.7979 19.9598 28.3923 19.6118 28.7436 19.0807C29.0618 19.0959 29.374 19.0746 29.6472 19.0563H29.6862C30.4098 19.0044 31.3254 18.8701 32.0039 18.2626C33.3669 17.0447 32.7995 14.9996 32.5863 14.2304L32.5833 14.2365Z" fill="black" fill-opacity="0.4"/>
</g>
<path d="M106.942 5.80897H110.703C111.086 5.80897 111.316 5.92573 111.392 6.15926C111.469 6.39278 111.507 6.66523 111.507 6.9766C111.507 7.65772 111.239 7.99828 110.703 7.99828H106.942V12.8148C106.942 14.2743 107.296 15.4809 108.005 16.4344C108.713 17.3685 109.785 17.9329 111.22 18.1275C111.622 18.1664 111.861 18.3026 111.938 18.5362C112.014 18.7697 112.053 19.0519 112.053 19.3827C112.053 20.1027 111.718 20.4141 111.048 20.3168C109.019 20.1027 107.469 19.3924 106.397 18.1859C105.325 16.9599 104.789 15.2862 104.789 13.165V7.99828C104.789 7.91629 104.789 7.67691 104.789 6.99579C104.789 6.70389 104.789 6.35144 104.789 6.35144V5.80897V1.02168C104.789 0.613007 104.885 0.340559 105.076 0.204336C105.268 0.0681121 105.555 0 105.937 0C106.607 0 106.942 0.34056 106.942 1.02168V5.80897Z" fill="#808080"/>
<path d="M101.745 9.63359L93.9362 17.4567C94.3572 17.7875 94.8357 18.0503 95.3717 18.2449C95.9076 18.4395 96.4913 18.5368 97.123 18.5368C97.678 18.5368 98.1661 18.4784 98.5872 18.3616C99.0082 18.2449 99.4963 18.0113 100.051 17.6611C100.396 17.447 100.664 17.3983 100.855 17.5151C101.047 17.6124 101.257 17.7973 101.487 18.0697C101.927 18.6146 101.87 19.0525 101.315 19.3833C100.913 19.6363 100.549 19.8504 100.224 20.0255C99.8982 20.1812 99.5729 20.3174 99.2475 20.4342C98.9221 20.5315 98.5872 20.5996 98.2426 20.6385C97.8981 20.6969 97.5249 20.7261 97.123 20.7261C96.032 20.7261 95.0367 20.5509 94.1371 20.2007C93.2567 19.8309 92.4911 19.3152 91.8404 18.6535C91.2087 17.9724 90.7207 17.1648 90.3762 16.2307C90.0316 15.2966 89.8594 14.2652 89.8594 13.1365C89.8594 11.9883 90.0316 10.9569 90.3762 10.0423C90.7207 9.10815 91.2087 8.31027 91.8404 7.64861C92.4911 6.96749 93.2567 6.45179 94.1371 6.1015C95.0367 5.73175 96.032 5.54688 97.123 5.54688C97.8503 5.54688 98.5872 5.67337 99.3336 5.92636C100.08 6.15988 100.712 6.48098 101.228 6.88965C101.745 7.27886 102.071 7.71672 102.205 8.20324C102.358 8.68975 102.205 9.16653 101.745 9.63359ZM99.1614 9.16653C99.3719 8.95247 99.4389 8.75786 99.3623 8.58272C99.3049 8.40757 99.1518 8.26162 98.903 8.14486C98.6733 8.00863 98.3958 7.91133 98.0704 7.85295C97.745 7.77511 97.4292 7.73619 97.123 7.73619C96.3574 7.73619 95.6588 7.87241 95.0271 8.14486C94.3955 8.4173 93.8596 8.79678 93.4194 9.2833C92.9792 9.75035 92.6347 10.3147 92.3858 10.9764C92.137 11.638 92.0126 12.3581 92.0126 13.1365C92.0126 14.1095 92.204 14.9852 92.5868 15.7637L99.1614 9.16653Z" fill="#808080"/>
<path d="M84.4423 12.8148C84.4423 13.5153 84.538 14.177 84.7294 14.7997C84.9399 15.4225 85.227 15.9771 85.5907 16.4636C85.9544 16.9307 86.4041 17.3199 86.9401 17.6312C87.476 17.9231 88.0693 18.0983 88.7201 18.1567C89.1029 18.1956 89.3325 18.3318 89.4091 18.5653C89.5048 18.7794 89.5527 19.0519 89.5527 19.3827C89.5527 20.0638 89.189 20.3849 88.4617 20.346C87.543 20.2876 86.7104 20.0735 85.9639 19.7038C85.2175 19.3146 84.5763 18.8086 84.0404 18.1859C83.5236 17.5437 83.1121 16.7944 82.8058 15.9382C82.4996 15.0819 82.3273 14.1575 82.2891 13.165V1.02168C82.2891 0.632467 82.3848 0.36975 82.5762 0.233527C82.7867 0.0778423 83.0738 0 83.4375 0C84.1074 0 84.4423 0.340559 84.4423 1.02168V12.8148Z" fill="#808080"/>
<path d="M55.872 19.3229C55.872 20.0429 55.537 20.4029 54.8671 20.4029C54.4843 20.4029 54.1972 20.3251 54.0058 20.1694C53.8144 20.0137 53.7188 19.7315 53.7188 19.3229L53.7475 12.5214C53.7475 11.4705 53.9293 10.517 54.2929 9.66072C54.6566 8.78499 55.1638 8.04549 55.8146 7.44222C56.4653 6.81948 57.2309 6.3427 58.1114 6.01187C58.9918 5.68104 59.9488 5.51562 60.9823 5.51562C62.3604 5.51562 63.5758 5.80753 64.6285 6.39135C65.7003 6.9557 66.5425 7.76332 67.155 8.81418C67.7674 7.76332 68.6 6.9557 69.6527 6.39135C70.7054 5.80753 71.9304 5.51562 73.3276 5.51562C74.3611 5.51562 75.3181 5.68104 76.1986 6.01187C77.079 6.3427 77.8446 6.81948 78.4953 7.44222C79.1461 8.04549 79.6533 8.78499 80.017 9.66072C80.3806 10.517 80.5625 11.4705 80.5625 12.5214V19.3229C80.5625 20.0429 80.2275 20.4029 79.5576 20.4029C79.1748 20.4029 78.8877 20.3251 78.6963 20.1694C78.5049 20.0137 78.4092 19.7315 78.4092 19.3229V13.1052C78.4092 12.3268 78.2848 11.6068 78.036 10.9451C77.8063 10.2835 77.4618 9.7191 77.0024 9.25205C76.5622 8.76553 76.0263 8.38605 75.3947 8.11361C74.7822 7.84116 74.0932 7.70493 73.3276 7.70493C72.562 7.70493 71.8634 7.84116 71.2318 8.11361C70.6001 8.38605 70.0642 8.76553 69.624 9.25205C69.1838 9.7191 68.8393 10.2835 68.5904 10.9451C68.3416 11.6068 68.2172 12.3268 68.2172 13.1052V19.3229C68.2172 20.0429 67.8823 20.4029 67.2124 20.4029C66.8296 20.4029 66.5425 20.3251 66.3511 20.1694C66.1597 20.0137 66.064 19.7315 66.064 19.3229V13.1052C66.064 12.3268 65.9396 11.6068 65.6908 10.9451C65.4611 10.2835 65.1166 9.7191 64.6572 9.25205C64.217 8.76553 63.6811 8.38605 63.0494 8.11361C62.437 7.84116 61.7479 7.70493 60.9823 7.70493C60.2167 7.70493 59.5181 7.84116 58.8865 8.11361C58.2549 8.38605 57.719 8.76553 57.2788 9.25205C56.8386 9.7191 56.494 10.2835 56.2452 10.9451C55.9964 11.6068 55.872 12.3268 55.872 13.1052V19.3229Z" fill="#808080"/>
<path d="M39.6376 13.1365C39.6376 13.9149 39.762 14.6349 40.0108 15.2966C40.2597 15.9388 40.6042 16.5032 41.0444 16.9897C41.4846 17.4762 42.0205 17.8557 42.6521 18.1281C43.2838 18.4006 43.9824 18.5368 44.748 18.5368C45.5136 18.5368 46.2026 18.4006 46.8151 18.1281C47.4467 17.8557 47.9826 17.4762 48.4228 16.9897C48.8822 16.5032 49.2267 15.9388 49.4564 15.2966C49.7052 14.6349 49.8296 13.9149 49.8296 13.1365C49.8296 12.3581 49.7052 11.638 49.4564 10.9764C49.2267 10.3147 48.8822 9.75035 48.4228 9.2833C47.9826 8.79678 47.4467 8.4173 46.8151 8.14486C46.2026 7.87241 45.5136 7.73619 44.748 7.73619C43.9824 7.73619 43.2838 7.87241 42.6521 8.14486C42.0205 8.4173 41.4846 8.79678 41.0444 9.2833C40.6042 9.75035 40.2597 10.3147 40.0108 10.9764C39.762 11.638 39.6376 12.3581 39.6376 13.1365ZM37.4844 13.1365C37.4844 11.9883 37.6566 10.9569 38.0012 10.0423C38.3457 9.10815 38.8337 8.31027 39.4654 7.64861C40.1161 6.96749 40.8817 6.45179 41.7621 6.1015C42.6617 5.73175 43.657 5.54688 44.748 5.54688C45.8389 5.54688 46.8246 5.73175 47.7051 6.1015C48.6047 6.45179 49.3702 6.96749 50.0019 7.64861C50.6335 8.31027 51.1216 9.10815 51.4661 10.0423C51.8106 10.9569 51.9828 11.9883 51.9828 13.1365C51.9828 14.2652 51.8106 15.2966 51.4661 16.2307C51.1216 17.1648 50.6335 17.9724 50.0019 18.6535C49.3702 19.3152 48.6047 19.8309 47.7051 20.2007C46.8246 20.5509 45.8389 20.7261 44.748 20.7261C43.657 20.7261 42.6617 20.5509 41.7621 20.2007C40.8817 19.8309 40.1161 19.3152 39.4654 18.6535C38.8337 17.9724 38.3457 17.1648 38.0012 16.2307C37.6566 15.2966 37.4844 14.2652 37.4844 13.1365Z" fill="#808080"/>
<defs>
<clipPath id="clip0_905_18663">
<rect width="34.9459" height="22.092" fill="white"/>
</clipPath>
</defs>
</svg>
