<svg width="112" height="29" viewBox="0 0 112 29" fill="none" xmlns="http://www.w3.org/2000/svg">
<ellipse cx="15.1748" cy="15.5652" rx="11.542" ry="11.5652" fill="#808080"/>
<path d="M14.1869 9.34146C15.2616 7.56937 17.5663 7.00558 19.3345 8.08218C21.1028 9.15879 21.6651 11.4681 20.5904 13.2402L17.1778 18.8673C16.1031 20.6394 13.7984 21.2032 12.0301 20.1266C10.2618 19.05 9.69959 16.7407 10.7743 14.9686L14.1869 9.34146Z" fill="#808080"/>
<path fill-rule="evenodd" clip-rule="evenodd" d="M16.5861 18.5071L19.9987 12.88C20.8748 11.4354 20.4164 9.55279 18.9749 8.67514C17.5334 7.79749 15.6547 8.2571 14.7786 9.70171L11.366 15.3288C10.4899 16.7734 10.9482 18.656 12.3897 19.5336C13.8312 20.4113 15.71 19.9517 16.5861 18.5071ZM19.3345 8.08218C17.5663 7.00558 15.2616 7.56937 14.1869 9.34146L10.7743 14.9686C9.69959 16.7407 10.2618 19.05 12.0301 20.1266C13.7984 21.2032 16.1031 20.6394 17.1778 18.8673L20.5904 13.2402C21.6651 11.4681 21.1028 9.15879 19.3345 8.08218Z" fill="black"/>
<path fill-rule="evenodd" clip-rule="evenodd" d="M17.0743 12.4245C17.2361 12.5266 17.2846 12.7408 17.1826 12.9029L10.5206 23.4969C10.4187 23.659 10.2049 23.7076 10.0432 23.6055C9.88145 23.5034 9.83297 23.2892 9.9349 23.1271L16.5969 12.5331C16.6988 12.371 16.9126 12.3224 17.0743 12.4245Z" fill="black"/>
<path fill-rule="evenodd" clip-rule="evenodd" d="M17.7908 17.2742C17.8217 17.4309 17.7201 17.583 17.5638 17.6141C15.4933 18.0253 14.4574 17.7647 14.0107 17.4498C13.8803 17.358 13.849 17.1776 13.9407 17.0469C14.0323 16.9163 14.2123 16.8848 14.3426 16.9767C14.5918 17.1523 15.4277 17.4488 17.4517 17.0467C17.608 17.0157 17.7598 17.1175 17.7908 17.2742Z" fill="black"/>
<path d="M108.922 19.1016H109.998C110.2 19.1016 110.401 19.1352 110.603 19.2025C110.808 19.2699 110.991 19.3724 111.153 19.5101C111.318 19.6447 111.45 19.8145 111.551 20.0196C111.652 20.2215 111.702 20.4571 111.702 20.7264C111.702 20.9988 111.652 21.2359 111.551 21.4379C111.45 21.6398 111.318 21.8096 111.153 21.9473C110.991 22.082 110.808 22.183 110.603 22.2503C110.401 22.3176 110.2 22.3513 109.998 22.3513H108.922V19.1016ZM109.252 22.0575H109.907C110.151 22.0575 110.363 22.0193 110.543 21.9428C110.727 21.8663 110.878 21.7668 110.997 21.6444C111.116 21.5189 111.205 21.3767 111.263 21.2175C111.324 21.0584 111.354 20.8947 111.354 20.7264C111.354 20.5581 111.324 20.3944 111.263 20.2353C111.205 20.0762 111.116 19.9354 110.997 19.813C110.878 19.6875 110.727 19.5866 110.543 19.5101C110.363 19.4336 110.151 19.3953 109.907 19.3953H109.252V22.0575Z" fill="#808080"/>
<path d="M104.48 22.4339C104.235 22.4339 104.035 22.3926 103.879 22.31C103.724 22.2243 103.6 22.1172 103.508 21.9887C103.417 21.8601 103.353 21.7209 103.316 21.571C103.282 21.418 103.266 21.2742 103.266 21.1395V19.1016H103.595V21.1028C103.595 21.2344 103.611 21.3629 103.641 21.4884C103.672 21.6108 103.721 21.7209 103.788 21.8188C103.858 21.9137 103.95 21.9917 104.063 22.0529C104.176 22.1111 104.315 22.1401 104.48 22.1401C104.644 22.1401 104.783 22.1111 104.896 22.0529C105.009 21.9917 105.099 21.9137 105.167 21.8188C105.237 21.7209 105.287 21.6108 105.318 21.4884C105.348 21.3629 105.364 21.2344 105.364 21.1028V19.1016H105.693V21.1395C105.693 21.2742 105.675 21.418 105.638 21.571C105.605 21.7209 105.542 21.8601 105.451 21.9887C105.359 22.1172 105.234 22.2243 105.075 22.31C104.919 22.3926 104.721 22.4339 104.48 22.4339Z" fill="#808080"/>
<path d="M100.224 20.7387C100.224 20.9866 100.182 21.2145 100.096 21.4226C100.011 21.6307 99.8915 21.8112 99.7388 21.9642C99.5892 22.1142 99.4105 22.232 99.2028 22.3177C98.9982 22.4034 98.7753 22.4462 98.5341 22.4462C98.2928 22.4462 98.0683 22.4034 97.8607 22.3177C97.6561 22.232 97.4774 22.1142 97.3247 21.9642C97.1751 21.8112 97.0575 21.6307 96.972 21.4226C96.8865 21.2145 96.8438 20.9866 96.8438 20.7387C96.8438 20.4909 96.8865 20.2629 96.972 20.0548C97.0575 19.8467 97.1751 19.6677 97.3247 19.5178C97.4774 19.3648 97.6561 19.2454 97.8607 19.1598C98.0683 19.0741 98.2928 19.0312 98.5341 19.0312C98.7753 19.0312 98.9982 19.0741 99.2028 19.1598C99.4105 19.2454 99.5892 19.3648 99.7388 19.5178C99.8915 19.6677 100.011 19.8467 100.096 20.0548C100.182 20.2629 100.224 20.4909 100.224 20.7387ZM99.8762 20.7387C99.8762 20.549 99.8457 20.3685 99.7846 20.1971C99.7235 20.0257 99.635 19.8758 99.5189 19.7473C99.4029 19.6157 99.2609 19.5117 99.0929 19.4352C98.928 19.3587 98.7417 19.3204 98.5341 19.3204C98.3264 19.3204 98.1386 19.3587 97.9706 19.4352C97.8057 19.5117 97.6652 19.6157 97.5492 19.7473C97.4331 19.8758 97.3446 20.0257 97.2835 20.1971C97.2224 20.3685 97.1919 20.549 97.1919 20.7387C97.1919 20.9284 97.2224 21.109 97.2835 21.2803C97.3446 21.4517 97.4331 21.6016 97.5492 21.7302C97.6652 21.8587 97.8057 21.9612 97.9706 22.0377C98.1386 22.1142 98.3264 22.1524 98.5341 22.1524C98.7417 22.1524 98.928 22.1142 99.0929 22.0377C99.2609 21.9612 99.4029 21.8587 99.5189 21.7302C99.635 21.6016 99.7235 21.4517 99.7846 21.2803C99.8457 21.109 99.8762 20.9284 99.8762 20.7387Z" fill="#808080"/>
<path d="M92.7751 22.0575H94.2868V22.3513H92.4453V19.1016H92.7751V22.0575Z" fill="#808080"/>
<path d="M89.4901 21.8403C89.4352 21.9229 89.368 22.001 89.2886 22.0744C89.2122 22.1478 89.1222 22.2121 89.0183 22.2672C88.9175 22.3223 88.8046 22.3651 88.6793 22.3957C88.5572 22.4294 88.4228 22.4462 88.2762 22.4462C88.0319 22.4462 87.8059 22.4034 87.5983 22.3177C87.3906 22.232 87.212 22.1142 87.0623 21.9642C86.9127 21.8112 86.7951 21.6307 86.7096 21.4226C86.6272 21.2145 86.5859 20.9866 86.5859 20.7387C86.5859 20.4909 86.6287 20.2629 86.7142 20.0548C86.7997 19.8467 86.9173 19.6677 87.0669 19.5178C87.2196 19.3648 87.3983 19.2454 87.6029 19.1598C87.8105 19.0741 88.035 19.0312 88.2762 19.0312C88.3953 19.0312 88.5114 19.0435 88.6244 19.068C88.7404 19.0924 88.8488 19.1276 88.9496 19.1735C89.0504 19.2164 89.142 19.2699 89.2245 19.3342C89.3069 19.3954 89.3756 19.4658 89.4306 19.5453L89.1557 19.7473C89.1222 19.6953 89.0763 19.6432 89.0183 19.5912C88.9634 19.5392 88.8977 19.4933 88.8213 19.4535C88.745 19.4137 88.661 19.3816 88.5694 19.3571C88.4808 19.3327 88.3847 19.3204 88.2808 19.3204C88.0701 19.3204 87.8808 19.3587 87.7128 19.4352C87.5479 19.5117 87.4074 19.6157 87.2914 19.7473C87.1753 19.8758 87.0868 20.0257 87.0257 20.1971C86.9646 20.3685 86.9341 20.549 86.9341 20.7387C86.9341 20.9284 86.9646 21.109 87.0257 21.2803C87.0898 21.4517 87.1799 21.6032 87.296 21.7347C87.412 21.8633 87.5525 21.9658 87.7174 22.0423C87.8853 22.1188 88.0732 22.157 88.2808 22.157C88.4671 22.157 88.6442 22.1188 88.8122 22.0423C88.9801 21.9658 89.1206 21.8434 89.2336 21.6751L89.4901 21.8403Z" fill="#808080"/>
<path d="M73.8709 18.3434C73.8855 19.5318 74.3386 20.5443 75.2149 21.4095L75.215 21.4096C76.0913 22.2603 77.0998 22.6713 78.2397 22.6566L78.2397 22.6566C79.1455 22.642 79.9638 22.3779 80.7089 21.8497C81.3645 21.385 81.8505 20.7727 82.1668 20.0229C82.2348 19.8616 82.1119 19.6901 81.9385 19.6901H81.246C81.1482 19.6901 81.0599 19.747 81.0152 19.8335C80.7296 20.3866 80.3602 20.8041 79.9058 21.0852C79.4514 21.3663 78.9112 21.5114 78.283 21.5184L78.283 21.5184C77.4415 21.5329 76.7164 21.2563 76.0924 20.7172C75.5357 20.2362 75.1987 19.6277 75.0707 18.9121C75.0472 18.7805 75.1519 18.6636 75.2866 18.6636H82.2386C82.3783 18.6636 82.4916 18.5501 82.4916 18.4101V18.0506C82.4916 17.0084 82.0967 16.0691 81.3081 15.2332L81.308 15.2331C80.4901 14.3825 79.5257 13.9275 78.4152 13.8542V13.8542L78.4151 13.8541C77.1729 13.7808 76.1059 14.2065 75.1858 15.1158L75.1858 15.1158C74.2801 16.0106 73.8417 17.0965 73.8709 18.3434ZM73.8709 18.3434C73.8709 18.3434 73.8709 18.3434 73.8709 18.3435L73.8842 18.3431L73.8709 18.3433C73.8709 18.3433 73.8709 18.3434 73.8709 18.3434ZM75.3137 17.6131C75.1702 17.6131 75.0635 17.4814 75.1019 17.3443C75.2862 16.6863 75.6291 16.142 76.1503 15.7207C76.7451 15.24 77.4413 14.9924 78.2392 15.007C79.0376 15.0216 79.7191 15.2693 80.2847 15.7498C80.779 16.1698 81.1183 16.701 81.3026 17.3437C81.3419 17.4808 81.2352 17.6131 81.0914 17.6131H75.3137Z" fill="#808080" stroke="#808080" stroke-width="0.02665"/>
<path d="M73.0201 21.549C73.2105 21.5655 73.3661 21.7214 73.3661 21.9164V22.3112C73.3661 22.5062 73.2104 22.6652 73.0195 22.6565C70.8714 22.559 69.8047 21.5306 69.8047 19.5714V9.353C69.8047 9.15804 69.9596 9 70.1506 9H70.7772C70.9682 9 71.1231 9.15804 71.1231 9.353V12.1242C71.1231 12.3192 71.278 12.4772 71.469 12.4772H73.0202C73.2113 12.4772 73.3661 12.6352 73.3661 12.8302V13.3648C73.3661 13.5598 73.2113 13.7178 73.0202 13.7178H71.469C71.278 13.7178 71.1231 13.8759 71.1231 14.0708V19.3443C71.1231 20.7097 71.7599 21.4401 73.0201 21.549Z" fill="#808080"/>
<path d="M66.467 9.01562C66.6576 9.01562 66.812 9.17039 66.812 9.3613V10.9457C66.812 11.1366 66.6576 11.2914 66.467 11.2914H65.8762C65.6857 11.2914 65.5312 11.1366 65.5312 10.9457V9.3613C65.5312 9.17039 65.6857 9.01562 65.8762 9.01562H66.467ZM66.467 12.5922C66.6576 12.5922 66.812 12.747 66.812 12.9379V21.9999C66.812 22.1908 66.6576 22.3455 66.467 22.3455H65.8762C65.6857 22.3455 65.5312 22.1908 65.5312 21.9999V12.9379C65.5312 12.747 65.6857 12.5922 65.8762 12.5922H66.467Z" fill="#808080"/>
<path d="M64.235 21.098C64.4255 21.098 64.5799 21.2528 64.5799 21.4437V22.0014C64.5799 22.1924 64.4255 22.3471 64.235 22.3471H60.806C58.808 22.3471 57.3906 21.2007 57.3906 19.096V9.34568C57.3906 9.15477 57.5451 9 57.7356 9H58.3606C58.5511 9 58.7055 9.15477 58.7055 9.34568V19.3356C58.7055 19.7976 58.9275 20.2425 59.3545 20.6873C59.6277 20.9611 60.1058 21.098 60.806 21.098H64.235Z" fill="#808080"/>
<path d="M55.3293 21.4918C55.5129 21.501 55.657 21.6528 55.657 21.837V22.3296C55.657 22.5186 55.5041 22.6718 55.3155 22.6718C54.2694 22.6718 53.4312 22.3663 52.7884 21.7553C52.6651 21.638 52.4781 21.6111 52.3316 21.6976C51.2592 22.3311 50.1112 22.6547 48.8605 22.6547C46.9821 22.6547 45.3768 21.9873 44.0449 20.6527C42.7129 19.318 42.0469 17.7096 42.0469 15.8273C42.0469 13.9451 42.7129 12.3367 44.0449 11.002C45.3768 9.66733 46.9821 9 48.8605 9C50.7389 9 52.3442 9.66733 53.6591 11.002C54.9911 12.3367 55.657 13.9451 55.657 15.8273C55.657 17.64 55.0459 19.1925 53.8237 20.4847C53.7032 20.6121 53.686 20.8114 53.8047 20.9405C54.1736 21.3415 54.5151 21.4474 55.3155 21.4911L55.3293 21.4918ZM52.7711 19.7116C53.864 18.6336 54.4104 17.316 54.4104 15.776C54.4104 14.236 53.864 12.9184 52.7711 11.8404C51.6952 10.7453 50.3803 10.1978 48.8434 10.1978C47.3065 10.1978 45.9916 10.7453 44.8987 11.8404C43.8229 12.9184 43.2764 14.236 43.2764 15.776C43.2764 17.316 43.8229 18.6336 44.8987 19.7116C45.9916 20.7896 47.3065 21.3371 48.8434 21.3371C50.3803 21.3371 51.6952 20.7896 52.7711 19.7116Z" fill="#808080"/>
<path fill-rule="evenodd" clip-rule="evenodd" d="M31.8547 18.8525C31.8863 18.818 31.9317 18.7986 31.9793 18.7986V18.7989H33.0615C33.1587 18.7989 33.2413 18.8796 33.2535 18.9871C33.3195 19.567 33.6559 20.1191 34.2822 20.6744C34.8856 21.2098 35.647 21.4902 36.5463 21.5083C37.4517 21.5257 38.2485 21.2637 38.9144 20.7286C39.5783 20.1957 39.9039 19.534 39.8824 18.7613C39.8609 18.1268 39.5932 17.5799 39.087 17.1349C38.586 16.6949 37.8361 16.3435 36.8577 16.0902L35.1408 15.6561C34.2503 15.4268 33.5489 15.0271 33.0559 14.468C32.5671 13.9135 32.3143 13.2368 32.3039 12.4562C32.2834 11.4977 32.7146 10.6774 33.5858 10.0185L33.5958 10.0112C34.486 9.32412 35.5356 8.98389 36.7133 9.00059C37.8913 9.01763 38.9051 9.38048 39.7262 10.079C40.4758 10.7171 40.8875 11.4783 40.9493 12.3414C40.9525 12.3842 40.9375 12.4252 40.908 12.4572C40.8768 12.4906 40.8316 12.5101 40.7844 12.5101H39.7047C39.6081 12.5101 39.5241 12.4277 39.5095 12.3188C39.4436 11.8352 39.1457 11.3617 38.6242 10.9119C38.1124 10.452 37.4712 10.2005 36.7178 10.1646C35.9227 10.1295 35.2099 10.3504 34.5999 10.8221C33.9965 11.2869 33.7139 11.8397 33.7354 12.5115C33.7462 13.0465 33.9152 13.496 34.2378 13.847C34.5572 14.1942 35.0325 14.451 35.6509 14.61L37.5979 15.1137C38.8252 15.4303 39.7602 15.902 40.3765 16.5157C40.9882 17.1252 41.3038 17.8933 41.3139 18.7999C41.334 19.8593 40.8834 20.7561 39.9366 21.5417C38.9985 22.3025 37.8968 22.6723 36.5681 22.6723C35.2394 22.6723 34.1374 22.3022 33.1993 21.5413C32.3452 20.8487 31.8918 20.0082 31.813 18.9715C31.8095 18.9273 31.8245 18.8852 31.8547 18.8525Z" fill="#808080"/>
</svg>
