<svg width="73" height="17" viewBox="0 0 73 17" fill="none" xmlns="http://www.w3.org/2000/svg">
<path d="M9.20091 17C6.36177 17 4.07469 14.9169 4.07469 12.331V7.70986H0V4.59718H4.07469V1.48451H7.49217V4.59718H12.3555V7.70986H7.49217V12.331C7.49217 13.2169 8.22824 13.8873 9.20091 13.8873H12.3555V17H9.20091Z" fill="#808080"/>
<path d="M26.9223 9.21831V11.1817H17.9843V12.307C17.9843 13.169 18.7467 13.8634 19.6931 13.8634H21.7961C22.7425 13.8634 23.5049 13.169 23.5049 12.307V12.0676H26.9223V12.307C26.9223 14.893 24.6353 17 21.7961 17H19.6931C16.8802 17 14.5668 14.869 14.5668 12.307V9.2662C14.5668 6.70423 16.8802 4.59718 19.6931 4.59718H21.7961C24.609 4.59718 26.896 6.65634 26.9223 9.21831ZM17.9843 9.62535H23.5049V9.2662C23.5049 8.40423 22.7688 7.70986 21.7961 7.70986H19.6931C18.7204 7.70986 17.9843 8.42817 17.9843 9.2662V9.62535Z" fill="#808080"/>
<path d="M29.2883 4.59718H32.7058V6.12958L34.5985 4.59718H34.6774C36.2284 4.59718 37.1222 5.21972 37.5691 6.4169L39.8036 4.59718H39.8825C42.2222 4.59718 43.0897 6.00986 43.0897 8.78732V17H39.6722V8.85915L37.8846 10.3197V17H34.4671V8.85915L32.7058 10.2958V17H29.2883V4.59718Z" fill="#808080"/>
<path d="M46.0777 0H49.4951V5.8662L51.5719 4.59718H53.3069C56.1198 4.59718 58.4332 6.70423 58.4332 9.2662V12.331C58.4332 14.893 56.1198 17 53.3069 17H51.5719L49.4951 15.731V17H46.0777V0ZM49.4951 11.9718L52.6234 13.8873H53.3069C54.2533 13.8873 55.0157 13.193 55.0157 12.331V9.2662C55.0157 8.42817 54.2533 7.70986 53.3069 7.70986H52.6234L49.4951 9.62535V11.9718Z" fill="#808080"/>
<path d="M67.8738 13.8634C68.8202 13.8634 69.5825 13.169 69.5825 12.307V9.2662C69.5825 8.40423 68.8465 7.70986 67.8738 7.70986H65.7707C64.798 7.70986 64.062 8.40423 64.062 9.2662V12.307C64.062 13.169 64.8243 13.8634 65.7707 13.8634H67.8738ZM60.6445 12.307V9.2662C60.6445 6.70423 62.9579 4.59718 65.7707 4.59718H67.8738C70.7129 4.59718 73 6.68028 73 9.2662V12.307C73 14.9169 70.7129 17 67.8738 17H65.7707C62.9579 17 60.6445 14.893 60.6445 12.307Z" fill="#808080"/>
</svg>
