<svg width="349" height="251" viewBox="0 0 349 251" fill="none" xmlns="http://www.w3.org/2000/svg">
<rect width="349" height="251" fill="#C5E8F9"/>
<g clip-path="url(#clip0_646_48059)">
<path d="M125.988 143.473C123.559 143.473 121.421 142.184 120.195 140.243C119.579 140.72 118.851 141.144 117.99 141.444C117.201 141.719 116.377 141.858 115.542 141.858C113.852 141.858 112.218 141.279 110.93 140.233C110.579 139.948 110.268 139.648 109.998 139.348C108.776 140.808 106.898 142.252 103.986 142.423C103.834 142.433 103.681 142.438 103.528 142.438C100.81 142.438 98.2848 141.004 96.9409 138.701C96.8238 138.504 96.722 138.303 96.6253 138.09C94.5585 140.099 91.9623 141.6 88.6382 141.6C86.1031 141.6 83.8072 140.523 82.168 138.572C80.4525 136.532 79.6889 133.696 80.1165 130.979C80.9972 125.389 84.6879 120.622 87.391 117.522C90.374 114.1 95.2152 109.577 101.354 107.46C104.139 106.502 107.066 106.016 110.059 106.016C113.322 106.016 116.545 106.59 119.63 107.729C126.522 110.265 132.86 116.243 136.581 123.717C137.472 125.498 138.174 127.33 138.684 129.157C139.966 133.784 139.269 137.329 136.617 139.7C134.637 141.47 132.219 141.822 130.569 141.931C130.569 141.931 130.35 141.946 130.274 141.952C129.073 142.925 127.571 143.473 125.988 143.473Z" fill="#FFBF0C"/>
<path d="M135.249 130.138C134.806 128.538 134.185 126.929 133.401 125.355C130.077 118.684 124.472 113.368 118.414 111.137C113.232 109.227 107.582 109.145 102.496 110.894C97.0951 112.757 92.7478 116.836 90.0548 119.926C87.647 122.685 84.3687 126.893 83.6356 131.551C83.3709 133.233 83.8342 134.972 84.8726 136.214C85.8195 137.348 87.1532 137.969 88.6295 137.969C93.3535 137.969 96.3264 133.098 98.495 129.537C98.9481 128.792 99.3808 128.083 99.7778 127.498C99.9509 127.244 100.119 126.991 100.287 126.732C101.025 125.614 101.717 124.558 102.654 123.88C103.015 123.616 103.377 123.471 103.682 123.471C103.962 123.471 104.232 123.668 104.319 123.932C104.573 124.698 104.018 125.775 103.479 126.727C103.077 127.436 102.608 128.119 102.114 128.839C101.814 129.279 101.509 129.719 101.198 130.205C100.643 131.069 100.012 132.048 99.6709 133.186C99.284 134.491 99.4011 135.821 99.9916 136.84C100.699 138.052 102.063 138.802 103.514 138.802C103.596 138.802 103.682 138.802 103.764 138.797C106.584 138.626 107.78 136.411 108.493 135.086C109.032 134.087 109.521 133.041 109.995 132.032C110.809 130.288 111.583 128.637 112.596 127.193C112.845 126.836 113.135 126.592 113.349 126.556C113.466 126.535 113.629 126.566 113.792 126.639C113.955 126.711 114.087 126.81 114.154 126.908C114.245 127.053 114.276 127.322 114.23 127.622C114.159 128.078 113.721 128.963 113.329 129.739C112.224 131.944 110.56 135.277 113.156 137.399C114.154 138.217 115.564 138.45 116.836 138.01C118.404 137.467 119.244 136.116 119.921 135.029C120.023 134.863 120.125 134.698 120.232 134.542C121.209 133.052 122.171 131.525 123.113 129.998C123.22 130.008 123.332 130.014 123.439 130.014C125.266 130.014 126.748 128.507 126.748 126.649C126.748 124.791 125.266 123.285 123.439 123.285C121.611 123.285 120.13 124.791 120.13 126.649C120.13 127.25 120.288 127.809 120.558 128.295C119.621 129.817 118.664 131.333 117.692 132.819C117.574 132.995 117.462 133.181 117.345 133.367C116.882 134.113 116.404 134.884 115.854 135.07C115.584 135.164 115.258 135.127 115.075 134.977C114.464 134.48 115.156 132.948 116.057 131.147C116.597 130.065 117.111 129.04 117.254 128.098C117.417 127.027 117.223 126.002 116.714 125.205C116.317 124.594 115.727 124.103 115.004 123.787C114.301 123.482 113.563 123.378 112.866 123.492C111.812 123.668 110.86 124.325 110.112 125.392C108.946 127.058 108.081 128.911 107.246 130.697C106.772 131.711 106.324 132.669 105.825 133.59C104.965 135.189 104.487 135.64 103.596 135.691C103.194 135.712 102.786 135.526 102.629 135.251C102.476 134.988 102.466 134.542 102.603 134.087C102.817 133.378 103.295 132.627 103.789 131.866C104.064 131.442 104.344 131.028 104.629 130.614C105.138 129.869 105.668 129.103 106.136 128.274C106.762 127.167 107.933 125.102 107.225 122.949C106.721 121.411 105.306 120.371 103.708 120.366C102.771 120.366 101.778 120.702 100.888 121.349C99.4979 122.358 98.5714 123.761 97.7569 124.998C97.5991 125.241 97.4362 125.485 97.2733 125.723C96.8304 126.37 96.3824 127.11 95.9039 127.891C94.0102 130.992 91.6584 134.853 88.6346 134.853C88.0543 134.853 87.5706 134.63 87.2041 134.19C86.7358 133.637 86.5373 132.829 86.6594 132.032C87.1176 129.134 88.9756 125.847 92.3507 121.975C94.7993 119.165 98.7241 115.464 103.489 113.823C107.851 112.317 112.917 112.4 117.386 114.046C122.731 116.013 127.705 120.764 130.688 126.748C131.385 128.14 131.935 129.563 132.322 130.971C132.861 132.917 132.841 134.113 132.256 134.63C131.787 135.05 130.82 135.158 130.133 135.205H130.067C129.751 135.231 129.4 135.251 129.069 135.251C128.585 133.999 127.389 133.114 125.989 133.114C124.162 133.114 122.68 134.62 122.68 136.478C122.68 138.336 124.162 139.842 125.989 139.842C127.135 139.842 128.142 139.252 128.738 138.352C129.278 138.378 129.807 138.341 130.27 138.31H130.337C131.563 138.222 133.116 137.995 134.266 136.965C136.578 134.9 135.615 131.432 135.254 130.127L135.249 130.138Z" fill="white"/>
</g>
<path d="M261.331 115.85H267.708C268.357 115.85 268.747 116.048 268.877 116.444C269.006 116.84 269.071 117.302 269.071 117.83C269.071 118.985 268.617 119.562 267.708 119.562H261.331V127.729C261.331 130.204 261.931 132.25 263.132 133.867C264.333 135.451 266.15 136.408 268.584 136.738C269.266 136.804 269.672 137.035 269.801 137.431C269.931 137.827 269.996 138.305 269.996 138.866C269.996 140.087 269.428 140.615 268.292 140.45C264.852 140.087 262.223 138.883 260.406 136.837C258.588 134.758 257.68 131.92 257.68 128.323V119.562C257.68 119.423 257.68 119.017 257.68 117.862C257.68 117.367 257.68 116.77 257.68 116.77V115.85V107.732C257.68 107.039 257.842 106.577 258.167 106.346C258.491 106.115 258.978 106 259.627 106C260.763 106 261.331 106.577 261.331 107.732V115.85Z" fill="black"/>
<path d="M252.514 122.336L239.272 135.601C239.986 136.162 240.798 136.608 241.706 136.938C242.615 137.268 243.605 137.433 244.676 137.433C245.617 137.433 246.445 137.334 247.159 137.136C247.873 136.938 248.7 136.542 249.641 135.948C250.226 135.585 250.68 135.502 251.005 135.7C251.329 135.865 251.686 136.179 252.076 136.641C252.822 137.565 252.725 138.307 251.783 138.868C251.102 139.297 250.485 139.66 249.934 139.957C249.382 140.221 248.83 140.452 248.278 140.65C247.727 140.815 247.159 140.93 246.574 140.996C245.99 141.095 245.357 141.145 244.676 141.145C242.826 141.145 241.138 140.848 239.613 140.254C238.12 139.627 236.822 138.753 235.718 137.631C234.647 136.476 233.82 135.106 233.236 133.522C232.651 131.938 232.359 130.189 232.359 128.276C232.359 126.329 232.651 124.58 233.236 123.029C233.82 121.445 234.647 120.092 235.718 118.97C236.822 117.815 238.12 116.941 239.613 116.347C241.138 115.72 242.826 115.406 244.676 115.406C245.909 115.406 247.159 115.621 248.424 116.05C249.69 116.446 250.761 116.99 251.637 117.683C252.514 118.343 253.065 119.086 253.293 119.911C253.552 120.735 253.293 121.544 252.514 122.336ZM248.132 121.544C248.489 121.181 248.603 120.851 248.473 120.554C248.376 120.257 248.116 120.01 247.694 119.812C247.305 119.581 246.834 119.416 246.282 119.317C245.731 119.185 245.195 119.119 244.676 119.119C243.378 119.119 242.193 119.35 241.122 119.812C240.051 120.273 239.142 120.917 238.396 121.742C237.649 122.534 237.065 123.491 236.643 124.613C236.221 125.735 236.011 126.956 236.011 128.276C236.011 129.925 236.335 131.41 236.984 132.73L248.132 121.544Z" fill="black"/>
<path d="M223.175 127.729C223.175 128.917 223.337 130.039 223.661 131.095C224.018 132.151 224.505 133.092 225.122 133.917C225.738 134.709 226.501 135.368 227.41 135.896C228.319 136.391 229.325 136.688 230.428 136.787C231.077 136.853 231.467 137.084 231.597 137.48C231.759 137.843 231.84 138.305 231.84 138.866C231.84 140.021 231.223 140.566 229.99 140.5C228.432 140.401 227.02 140.038 225.755 139.411C224.489 138.751 223.402 137.893 222.493 136.837C221.617 135.748 220.919 134.478 220.4 133.026C219.88 131.574 219.588 130.006 219.523 128.323V107.732C219.523 107.072 219.686 106.627 220.01 106.396C220.367 106.132 220.854 106 221.471 106C222.607 106 223.175 106.577 223.175 107.732V127.729Z" fill="black"/>
<path d="M174.729 138.764C174.729 139.985 174.161 140.595 173.025 140.595C172.376 140.595 171.889 140.463 171.565 140.199C171.24 139.935 171.078 139.457 171.078 138.764L171.127 127.231C171.127 125.449 171.435 123.832 172.052 122.38C172.668 120.895 173.528 119.641 174.632 118.618C175.735 117.562 177.034 116.754 178.526 116.193C180.019 115.632 181.642 115.352 183.395 115.352C185.731 115.352 187.792 115.847 189.577 116.836C191.395 117.793 192.823 119.163 193.861 120.945C194.9 119.163 196.312 117.793 198.097 116.836C199.882 115.847 201.959 115.352 204.328 115.352C206.08 115.352 207.703 115.632 209.196 116.193C210.689 116.754 211.987 117.562 213.091 118.618C214.194 119.641 215.054 120.895 215.671 122.38C216.287 123.832 216.596 125.449 216.596 127.231V138.764C216.596 139.985 216.028 140.595 214.892 140.595C214.243 140.595 213.756 140.463 213.431 140.199C213.107 139.935 212.945 139.457 212.945 138.764V128.221C212.945 126.901 212.734 125.68 212.312 124.558C211.922 123.436 211.338 122.479 210.559 121.687C209.813 120.862 208.904 120.219 207.833 119.757C206.794 119.295 205.626 119.064 204.328 119.064C203.03 119.064 201.845 119.295 200.774 119.757C199.703 120.219 198.794 120.862 198.048 121.687C197.301 122.479 196.717 123.436 196.295 124.558C195.873 125.68 195.662 126.901 195.662 128.221V138.764C195.662 139.985 195.095 140.595 193.959 140.595C193.31 140.595 192.823 140.463 192.498 140.199C192.174 139.935 192.011 139.457 192.011 138.764V128.221C192.011 126.901 191.8 125.68 191.378 124.558C190.989 123.436 190.405 122.479 189.626 121.687C188.879 120.862 187.971 120.219 186.9 119.757C185.861 119.295 184.693 119.064 183.395 119.064C182.096 119.064 180.912 119.295 179.841 119.757C178.77 120.219 177.861 120.862 177.115 121.687C176.368 122.479 175.784 123.436 175.362 124.558C174.94 125.68 174.729 126.901 174.729 128.221V138.764Z" fill="black"/>
<path d="M147.206 128.276C147.206 129.596 147.417 130.816 147.839 131.938C148.261 133.027 148.845 133.984 149.591 134.809C150.338 135.634 151.246 136.278 152.317 136.74C153.388 137.202 154.573 137.433 155.871 137.433C157.169 137.433 158.338 137.202 159.376 136.74C160.447 136.278 161.356 135.634 162.102 134.809C162.881 133.984 163.466 133.027 163.855 131.938C164.277 130.816 164.488 129.596 164.488 128.276C164.488 126.956 164.277 125.735 163.855 124.613C163.466 123.491 162.881 122.534 162.102 121.742C161.356 120.917 160.447 120.273 159.376 119.812C158.338 119.35 157.169 119.119 155.871 119.119C154.573 119.119 153.388 119.35 152.317 119.812C151.246 120.273 150.338 120.917 149.591 121.742C148.845 122.534 148.261 123.491 147.839 124.613C147.417 125.735 147.206 126.956 147.206 128.276ZM143.555 128.276C143.555 126.329 143.847 124.58 144.431 123.029C145.015 121.445 145.843 120.092 146.914 118.97C148.017 117.815 149.315 116.941 150.808 116.347C152.334 115.72 154.021 115.406 155.871 115.406C157.721 115.406 159.393 115.72 160.885 116.347C162.411 116.941 163.709 117.815 164.78 118.97C165.851 120.092 166.679 121.445 167.263 123.029C167.847 124.58 168.139 126.329 168.139 128.276C168.139 130.189 167.847 131.938 167.263 133.522C166.679 135.106 165.851 136.476 164.78 137.631C163.709 138.753 162.411 139.627 160.885 140.254C159.393 140.848 157.721 141.145 155.871 141.145C154.021 141.145 152.334 140.848 150.808 140.254C149.315 139.627 148.017 138.753 146.914 137.631C145.843 136.476 145.015 135.106 144.431 133.522C143.847 131.938 143.555 130.189 143.555 128.276Z" fill="black"/>
<defs>
<clipPath id="clip0_646_48059">
<rect width="59.256" height="37.4603" fill="white" transform="translate(80 106)"/>
</clipPath>
</defs>
</svg>
