<svg width="344" height="252" viewBox="0 0 344 252" fill="none" xmlns="http://www.w3.org/2000/svg">
<rect width="344" height="251" transform="translate(0 0.144531)" fill="#171717"/>
<path d="M50.5 127.019C50.5 120.466 54.1295 112.569 62.0822 112.569C66.192 112.569 68.5405 114.933 70.5154 119.767V113.912C70.5154 113.59 70.7289 113.375 71.0491 113.375H78.308C78.6283 113.375 78.8418 113.59 78.8418 113.912V140.179C78.8418 140.502 78.6283 140.716 78.308 140.716H71.0491C70.7289 140.716 70.5154 140.502 70.5154 140.179V134.324C68.9675 138.084 67.046 141.415 62.0822 141.415C54.7166 141.415 50.5 134.432 50.5 127.019ZM59.1466 127.019C59.1466 130.994 61.1749 134.378 65.1246 134.378C69.5546 134.378 71.0491 130.403 71.0491 127.019C71.0491 123.098 69.0209 119.606 65.1246 119.606C60.5877 119.606 59.1466 123.903 59.1466 127.019ZM84.8348 149.9V113.912C84.8348 113.59 85.0483 113.375 85.3685 113.375H92.559C92.8792 113.375 93.0927 113.59 93.0927 113.912V119.767C94.6939 115.148 97.4694 112.569 101.472 112.569C109.318 112.569 113.001 119.982 113.001 127.019C113.001 134.647 108.625 141.522 101.472 141.522C97.0424 141.522 94.3203 138.084 93.0927 134.217V150.112C93.0927 150.541 92.7777 150.632 92.4522 150.632H85.543C85.0642 150.632 84.8348 150.323 84.8348 149.9ZM92.5056 127.019C92.5056 130.403 93.9467 134.378 98.4835 134.378C102.22 134.378 104.408 131.209 104.408 127.019C104.408 123.42 102.753 119.606 98.4835 119.606C94.5872 119.606 92.5056 123.044 92.5056 127.019ZM117.591 126.965C117.591 117.834 123.996 112.462 131.842 112.462C139.955 112.462 146.147 118.102 146.147 126.965C146.147 134.647 140.863 141.522 131.842 141.522C124.103 141.522 117.591 135.936 117.591 126.965ZM125.865 126.965C125.865 129.812 127.252 134.378 131.842 134.378C136.433 134.378 137.82 129.812 137.82 126.965C137.82 123.151 135.685 119.499 131.842 119.499C127.999 119.499 125.865 123.151 125.865 126.965ZM151.057 140.126C151.057 140.448 151.271 140.663 151.591 140.663H158.85C159.17 140.663 159.384 140.448 159.384 140.126V102.686C159.384 102.363 159.17 102.149 158.85 102.149H151.591C151.271 102.149 151.057 102.363 151.057 102.686V140.126ZM164.828 105.21C164.828 107.789 166.909 109.83 169.525 109.83C172.087 109.83 174.168 107.789 174.168 105.21C174.168 102.686 172.087 100.645 169.525 100.645C166.909 100.645 164.828 102.686 164.828 105.21ZM165.362 140.126C165.362 140.448 165.575 140.663 165.895 140.663H173.208C173.528 140.663 173.741 140.448 173.741 140.126V113.912C173.741 113.59 173.528 113.375 173.208 113.375H165.895C165.575 113.375 165.362 113.59 165.362 113.912V140.126ZM178.545 119.875V113.912C178.545 113.59 178.758 113.375 179.079 113.375L183.669 113.375V106.338C183.669 106.016 183.882 105.801 184.203 105.801H191.515C191.835 105.801 192.049 106.016 192.049 106.338V113.375H198.827C199.147 113.375 199.361 113.59 199.361 113.912V119.875C199.361 120.197 199.147 120.412 198.827 120.412L191.942 120.412V129.758C191.942 133.196 193.703 134.002 196.265 134.002C196.959 134.002 197.76 133.948 198.4 133.894C198.934 133.787 199.254 134.056 199.254 134.593V139.803C199.254 140.287 199.041 140.555 198.56 140.663C197.546 140.878 196.265 141.039 194.077 141.039C187.512 141.039 183.669 138.353 183.669 131.101V120.412H179.079C178.758 120.412 178.545 120.197 178.545 119.875ZM205.072 105.21C205.072 107.789 207.154 109.83 209.769 109.83C212.331 109.83 214.413 107.789 214.413 105.21C214.413 102.686 212.331 100.645 209.769 100.645C207.154 100.645 205.072 102.686 205.072 105.21ZM205.552 140.126C205.552 140.448 205.766 140.663 206.086 140.663H213.345C213.665 140.663 213.879 140.448 213.879 140.126V113.912C213.879 113.59 213.665 113.375 213.345 113.375H206.086C205.766 113.375 205.552 113.59 205.552 113.912V140.126ZM219.109 126.965C219.109 118.8 224.287 112.462 233.254 112.462C240.406 112.462 244.409 116.383 246.224 120.949C246.384 121.325 246.224 121.54 245.903 121.647L239.392 123.903C239.071 124.011 238.858 123.903 238.751 123.581C237.951 121.325 235.976 119.499 233.254 119.499C229.517 119.499 227.436 122.883 227.436 126.965C227.436 130.403 228.93 134.378 233.254 134.378C235.282 134.378 237.897 133.142 238.698 130.403C238.805 130.134 238.965 129.973 239.178 130.027L245.903 132.229C246.17 132.337 246.33 132.444 246.33 132.713C244.889 137.225 240.192 141.522 233.254 141.522C225.247 141.522 219.109 135.936 219.109 126.965ZM250.12 127.019C250.12 120.466 253.749 112.569 261.702 112.569C265.812 112.569 268.16 114.933 270.135 119.767V113.912C270.135 113.59 270.349 113.375 270.669 113.375H277.928C278.248 113.375 278.462 113.59 278.462 113.912V140.179C278.462 140.502 278.248 140.716 277.928 140.716H270.669C270.349 140.716 270.135 140.502 270.135 140.179V134.324C268.587 138.084 266.666 141.415 261.702 141.415C254.336 141.415 250.12 134.432 250.12 127.019ZM258.767 127.019C258.767 130.994 260.795 134.378 264.744 134.378C269.175 134.378 270.669 130.403 270.669 127.019C270.669 123.098 268.641 119.606 264.744 119.606C260.208 119.606 258.767 123.903 258.767 127.019ZM285.187 140.126C285.187 140.448 285.4 140.663 285.721 140.663H292.926C293.246 140.663 293.46 140.448 293.46 140.126V102.686C293.46 102.363 293.246 102.149 292.926 102.149H285.721C285.4 102.149 285.187 102.363 285.187 102.686V140.126Z" fill="white"/>
<path fill-rule="evenodd" clip-rule="evenodd" d="M78.6256 149.664C78.7039 149.732 78.7482 149.831 78.7482 149.934V150.284C78.7482 150.483 78.5866 150.645 78.3873 150.645H53.2781C53.0788 150.645 52.9172 150.483 52.9172 150.284V150.008C52.9172 149.905 52.9613 149.807 53.0392 149.739C54.5286 148.442 56.1998 147.423 58.1121 146.623C60.4462 145.646 63.0676 145.248 65.8686 145.248C68.6696 145.248 71.2192 145.646 73.6252 146.623C75.5007 147.408 77.1674 148.403 78.6256 149.664Z" fill="white"/>
</svg>
