<svg width="344" height="274" viewBox="0 0 344 274" fill="none" xmlns="http://www.w3.org/2000/svg">
<rect width="344" height="273" transform="translate(0 0.144531)" fill="url(#paint0_linear_1543_84574)"/>
<path d="M181.19 172.658C180.668 174.089 179.941 175.111 179.009 175.725C178.078 176.338 176.783 176.645 175.125 176.645C174.625 176.645 174.125 176.622 173.625 176.577C173.148 176.554 172.66 176.52 172.16 176.474V172.487C172.614 172.533 173.08 172.578 173.557 172.624C174.034 172.669 174.511 172.681 174.988 172.658C175.624 172.59 176.09 172.34 176.385 171.908C176.704 171.477 176.863 170.999 176.863 170.477C176.863 170.091 176.794 169.727 176.658 169.386L170.49 152.859H175.636L179.623 164.922H179.691L183.542 152.859H188.551L181.19 172.658Z" fill="#B388C8"/>
<path d="M152.729 158.278C152.797 157.142 153.081 156.199 153.581 155.45C154.081 154.7 154.717 154.098 155.49 153.644C156.262 153.189 157.125 152.871 158.079 152.69C159.056 152.485 160.033 152.383 161.01 152.383C161.896 152.383 162.793 152.451 163.702 152.587C164.611 152.701 165.44 152.939 166.19 153.303C166.939 153.666 167.553 154.178 168.03 154.836C168.507 155.472 168.745 156.324 168.745 157.392V166.559C168.745 167.354 168.791 168.115 168.882 168.842C168.972 169.569 169.131 170.114 169.359 170.477H164.452C164.361 170.205 164.281 169.932 164.213 169.66C164.168 169.364 164.134 169.069 164.111 168.774C163.338 169.569 162.43 170.125 161.385 170.443C160.34 170.761 159.272 170.92 158.182 170.92C157.341 170.92 156.557 170.818 155.83 170.614C155.103 170.409 154.467 170.091 153.922 169.66C153.377 169.228 152.945 168.683 152.627 168.024C152.332 167.365 152.184 166.581 152.184 165.673C152.184 164.673 152.354 163.855 152.695 163.219C153.059 162.56 153.513 162.038 154.058 161.652C154.626 161.265 155.262 160.981 155.967 160.8C156.694 160.595 157.421 160.436 158.147 160.323C158.874 160.209 159.59 160.118 160.294 160.05C160.999 159.982 161.623 159.88 162.168 159.743C162.714 159.607 163.145 159.414 163.463 159.164C163.781 158.891 163.929 158.505 163.906 158.005C163.906 157.483 163.816 157.074 163.634 156.779C163.475 156.461 163.248 156.222 162.952 156.063C162.68 155.881 162.35 155.768 161.964 155.722C161.601 155.654 161.203 155.62 160.771 155.62C159.817 155.62 159.068 155.825 158.522 156.233C157.977 156.642 157.659 157.324 157.568 158.278H152.729ZM163.906 161.856C163.702 162.038 163.441 162.185 163.123 162.299C162.827 162.39 162.498 162.469 162.134 162.538C161.794 162.606 161.43 162.663 161.044 162.708C160.658 162.753 160.272 162.81 159.885 162.878C159.522 162.947 159.158 163.037 158.795 163.151C158.454 163.265 158.147 163.424 157.875 163.628C157.625 163.81 157.421 164.048 157.261 164.344C157.102 164.639 157.023 165.014 157.023 165.468C157.023 165.9 157.102 166.263 157.261 166.559C157.421 166.854 157.636 167.093 157.909 167.274C158.182 167.433 158.5 167.547 158.863 167.615C159.227 167.683 159.601 167.717 159.988 167.717C160.942 167.717 161.68 167.558 162.203 167.24C162.725 166.922 163.111 166.547 163.361 166.116C163.611 165.661 163.759 165.207 163.804 164.753C163.872 164.298 163.906 163.935 163.906 163.662V161.856Z" fill="#B388C8"/>
<path d="M144.608 161.617C144.608 160.89 144.54 160.197 144.404 159.539C144.268 158.857 144.029 158.266 143.688 157.767C143.37 157.244 142.95 156.824 142.427 156.506C141.905 156.188 141.246 156.029 140.451 156.029C139.656 156.029 138.986 156.188 138.44 156.506C137.895 156.824 137.452 157.244 137.111 157.767C136.793 158.289 136.555 158.891 136.396 159.573C136.26 160.231 136.191 160.924 136.191 161.651C136.191 162.333 136.271 163.014 136.43 163.696C136.589 164.377 136.839 164.991 137.18 165.536C137.543 166.059 137.986 166.49 138.509 166.831C139.054 167.149 139.701 167.308 140.451 167.308C141.246 167.308 141.905 167.149 142.427 166.831C142.973 166.513 143.404 166.093 143.722 165.57C144.04 165.025 144.268 164.411 144.404 163.73C144.54 163.048 144.608 162.344 144.608 161.617ZM144.676 168.228H144.608C144.04 169.182 143.291 169.875 142.359 170.307C141.451 170.716 140.417 170.92 139.258 170.92C137.941 170.92 136.782 170.67 135.782 170.17C134.783 169.648 133.954 168.955 133.295 168.092C132.659 167.206 132.17 166.195 131.83 165.059C131.512 163.923 131.353 162.742 131.353 161.515C131.353 160.334 131.512 159.198 131.83 158.107C132.17 156.994 132.659 156.017 133.295 155.177C133.954 154.336 134.772 153.666 135.748 153.166C136.725 152.644 137.861 152.382 139.156 152.382C140.201 152.382 141.189 152.61 142.121 153.064C143.075 153.496 143.825 154.143 144.37 155.006H144.438V146.146H149.277V170.477H144.676V168.228Z" fill="#B388C8"/>
<path d="M133.528 125.19C133.528 121.096 135.801 116.163 140.782 116.163C143.356 116.163 144.827 117.639 146.064 120.66V117.002C146.064 116.8 146.198 116.666 146.398 116.666H150.945C151.145 116.666 151.279 116.8 151.279 117.002V133.412C151.279 133.613 151.145 133.747 150.945 133.747H146.398C146.198 133.747 146.064 133.613 146.064 133.412V129.754C145.095 132.103 143.891 134.183 140.782 134.183C136.169 134.183 133.528 129.821 133.528 125.19ZM138.944 125.19C138.944 127.673 140.214 129.787 142.688 129.787C145.462 129.787 146.398 127.304 146.398 125.19C146.398 122.74 145.128 120.559 142.688 120.559C139.846 120.559 138.944 123.244 138.944 125.19ZM155.033 139.485V117.002C155.033 116.8 155.166 116.666 155.367 116.666H159.871C160.071 116.666 160.205 116.8 160.205 117.002V120.66C161.208 117.774 162.946 116.163 165.453 116.163C170.367 116.163 172.674 120.794 172.674 125.19C172.674 129.955 169.933 134.251 165.453 134.251C162.679 134.251 160.974 132.103 160.205 129.687V139.617C160.205 139.885 160.008 139.942 159.804 139.942H155.476C155.176 139.942 155.033 139.749 155.033 139.485ZM159.837 125.19C159.837 127.304 160.74 129.787 163.581 129.787C165.921 129.787 167.292 127.807 167.292 125.19C167.292 122.942 166.256 120.559 163.581 120.559C161.141 120.559 159.837 122.707 159.837 125.19ZM175.549 125.156C175.549 119.451 179.561 116.096 184.475 116.096C189.556 116.096 193.434 119.619 193.434 125.156C193.434 129.955 190.124 134.251 184.475 134.251C179.627 134.251 175.549 130.761 175.549 125.156ZM180.731 125.156C180.731 126.935 181.6 129.787 184.475 129.787C187.35 129.787 188.219 126.935 188.219 125.156C188.219 122.774 186.882 120.492 184.475 120.492C182.068 120.492 180.731 122.774 180.731 125.156ZM196.509 133.378C196.509 133.579 196.643 133.714 196.844 133.714H201.39C201.591 133.714 201.724 133.579 201.724 133.378V109.988C201.724 109.787 201.591 109.653 201.39 109.653H196.844C196.643 109.653 196.509 109.787 196.509 109.988V133.378ZM205.134 111.565C205.134 113.176 206.438 114.451 208.076 114.451C209.681 114.451 210.984 113.176 210.984 111.565C210.984 109.988 209.681 108.713 208.076 108.713C206.438 108.713 205.134 109.988 205.134 111.565ZM205.468 133.378C205.468 133.579 205.602 133.714 205.803 133.714H210.383C210.583 133.714 210.717 133.579 210.717 133.378V117.002C210.717 116.8 210.583 116.666 210.383 116.666H205.803C205.602 116.666 205.468 116.8 205.468 117.002V133.378ZM213.725 120.727V117.002C213.725 116.8 213.859 116.666 214.06 116.666H216.935V112.27C216.935 112.069 217.068 111.934 217.269 111.934H221.849C222.049 111.934 222.183 112.069 222.183 112.27V116.666H226.429C226.629 116.666 226.763 116.8 226.763 117.002V120.727C226.763 120.928 226.629 121.062 226.429 121.062H222.116V126.901C222.116 129.049 223.219 129.552 224.824 129.552C225.259 129.552 225.76 129.519 226.161 129.485C226.496 129.418 226.696 129.586 226.696 129.922V133.177C226.696 133.479 226.562 133.647 226.262 133.714C225.626 133.848 224.824 133.949 223.453 133.949C219.342 133.949 216.935 132.271 216.935 127.74V121.062H214.06C213.859 121.062 213.725 120.928 213.725 120.727ZM230.34 111.565C230.34 113.176 231.644 114.451 233.282 114.451C234.886 114.451 236.19 113.176 236.19 111.565C236.19 109.988 234.886 108.713 233.282 108.713C231.644 108.713 230.34 109.988 230.34 111.565ZM230.641 133.378C230.641 133.579 230.775 133.714 230.975 133.714H235.522C235.722 133.714 235.856 133.579 235.856 133.378V117.002C235.856 116.8 235.722 116.666 235.522 116.666H230.975C230.775 116.666 230.641 116.8 230.641 117.002V133.378ZM239.132 125.156C239.132 120.056 242.375 116.096 247.991 116.096C252.47 116.096 254.978 118.545 256.114 121.398C256.214 121.633 256.114 121.767 255.914 121.834L251.835 123.244C251.635 123.311 251.501 123.244 251.434 123.042C250.933 121.633 249.696 120.492 247.991 120.492C245.651 120.492 244.347 122.606 244.347 125.156C244.347 127.304 245.283 129.787 247.991 129.787C249.261 129.787 250.899 129.016 251.401 127.304C251.467 127.136 251.568 127.036 251.701 127.069L255.914 128.445C256.081 128.512 256.181 128.579 256.181 128.747C255.278 131.566 252.337 134.251 247.991 134.251C242.976 134.251 239.132 130.761 239.132 125.156ZM258.554 125.19C258.554 121.096 260.828 116.163 265.809 116.163C268.383 116.163 269.854 117.639 271.091 120.66V117.002C271.091 116.8 271.224 116.666 271.425 116.666H275.971C276.172 116.666 276.306 116.8 276.306 117.002V133.412C276.306 133.613 276.172 133.747 275.971 133.747H271.425C271.224 133.747 271.091 133.613 271.091 133.412V129.754C270.121 132.103 268.918 134.183 265.809 134.183C261.195 134.183 258.554 129.821 258.554 125.19ZM263.97 125.19C263.97 127.673 265.24 129.787 267.714 129.787C270.489 129.787 271.425 127.304 271.425 125.19C271.425 122.74 270.155 120.559 267.714 120.559C264.873 120.559 263.97 123.244 263.97 125.19ZM280.518 133.378C280.518 133.579 280.651 133.714 280.852 133.714H285.365C285.566 133.714 285.699 133.579 285.699 133.378V109.988C285.699 109.787 285.566 109.653 285.365 109.653H280.852C280.651 109.653 280.518 109.787 280.518 109.988V133.378Z" fill="#171717"/>
<path fill-rule="evenodd" clip-rule="evenodd" d="M143.154 136.578C141.399 136.578 139.758 136.827 138.296 137.437C137.115 137.93 136.081 138.555 135.159 139.349C135.084 139.413 135.042 139.507 135.042 139.606C135.042 139.796 135.196 139.95 135.386 139.95H150.845C151.052 139.95 151.221 139.781 151.221 139.574C151.221 139.466 151.174 139.363 151.092 139.293C150.191 138.526 149.164 137.918 148.012 137.437C146.505 136.827 144.908 136.578 143.154 136.578Z" fill="#171717"/>
<path d="M58.2756 135.122C58.2756 153.55 73.2144 168.488 91.6422 168.488L125.009 168.488L125.009 135.122C125.009 116.694 110.07 101.755 91.6422 101.755C73.2144 101.755 58.2756 116.694 58.2756 135.122Z" fill="#E8FE74"/>
<path d="M100.871 108.713C100.871 102.048 106.274 96.6445 112.94 96.6445H125.009V108.713C125.009 115.379 119.605 120.782 112.94 120.782C106.274 120.782 100.871 115.379 100.871 108.713Z" fill="#B388C8"/>
<defs>
<linearGradient id="paint0_linear_1543_84574" x1="172" y1="0" x2="172" y2="273" gradientUnits="userSpaceOnUse">
<stop stop-color="#EBECFF"/>
<stop offset="1" stop-color="#EBEDFA"/>
</linearGradient>
</defs>
</svg>
