<svg width="349" height="291" viewBox="0 0 349 291" fill="none" xmlns="http://www.w3.org/2000/svg">
<g clip-path="url(#clip0_757_54171)">
<rect width="349" height="291" fill="#6BA2EA"/>
<g clip-path="url(#clip1_757_54171)">
<rect width="540" height="540" transform="translate(-96 -115)" fill="#070407"/>
<rect width="540" height="540" transform="translate(-96 -115)" fill="#FCF7EF"/>
<rect x="29.7071" y="154.969" width="204.783" height="204.783" rx="15.5" transform="rotate(-45 29.7071 154.969)" stroke="#773082" stroke-opacity="0.9" stroke-dasharray="4 4"/>
<rect x="-4.29289" y="154.969" width="252.279" height="252.279" rx="39.5" transform="rotate(-45 -4.29289 154.969)" stroke="#773082" stroke-opacity="0.8" stroke-dasharray="4 4"/>
<rect x="-39.2929" y="154.969" width="301.352" height="301.352" rx="55.5" transform="rotate(-45 -39.2929 154.969)" stroke="#773082" stroke-opacity="0.7" stroke-dasharray="4 4"/>
<rect x="-78.2929" y="154.969" width="356.757" height="356.757" rx="71.5" transform="rotate(-45 -78.2929 154.969)" stroke="#773082" stroke-opacity="0.6" stroke-dasharray="4 4"/>
<g filter="url(#filter0_d_757_54171)">
<rect x="60" y="154.141" width="161.464" height="161.464" rx="16" transform="rotate(-45 60 154.141)" fill="#773082"/>
<rect x="60.7071" y="154.141" width="160.464" height="160.464" rx="15.5" transform="rotate(-45 60.7071 154.141)" stroke="black"/>
</g>
<path fill-rule="evenodd" clip-rule="evenodd" d="M164.811 138.523L159.586 156.012H168.909L174.135 138.523H164.811Z" fill="#FCF7EF"/>
<path fill-rule="evenodd" clip-rule="evenodd" d="M163.997 110.782C148.97 107.892 139.85 112.53 134.136 121.974C129.434 129.738 126.609 141.919 126.609 153.957C126.609 161.751 127.794 169.599 129.909 176.268H162.789L165.205 168.341H150.367C148.584 168.341 147.17 167.674 146.24 166.315V166.309L146.235 166.304C145.336 164.925 145.176 163.417 145.614 161.754L146.841 157.525L154.576 131.803C155.011 130.278 155.913 128.982 157.252 127.924C158.603 126.796 160.111 126.209 161.762 126.209H183.353C185.193 126.209 186.621 126.906 187.494 128.343C188.396 129.732 188.573 131.31 188.075 133.019C186.942 136.849 185.78 140.673 184.587 144.5C183.574 147.864 182.564 151.25 181.551 154.66L202.435 146.003C202.79 145.813 203.185 145.719 203.6 145.796C204.02 145.873 204.372 146.102 204.664 146.4C205.237 146.984 205.388 147.718 205.162 148.493V148.498L202.71 156.626C202.601 157.268 202.163 157.712 201.548 157.949L177.621 167.793C177.621 167.793 175.987 173.263 175.409 175.256C174.683 177.771 173.93 180.31 173.149 182.883C173.14 182.908 173.111 182.993 173.071 183.109C173.043 183.189 172.925 183.489 172.925 183.489C172.367 184.885 171.409 186.051 170.072 186.983C168.782 187.984 167.368 188.505 165.843 188.505H136.004C142.343 196.115 153.675 199.401 164.137 196.385C189.735 188.998 221.508 172.582 221.508 153.96C221.508 135.338 189.08 115.602 163.997 110.782Z" fill="#FCF7EF"/>
</g>
</g>
<defs>
<filter id="filter0_d_757_54171" x="66.625" y="46.5938" width="217.094" height="218.094" filterUnits="userSpaceOnUse" color-interpolation-filters="sRGB">
<feFlood flood-opacity="0" result="BackgroundImageFix"/>
<feColorMatrix in="SourceAlpha" type="matrix" values="0 0 0 0 0 0 0 0 0 0 0 0 0 0 0 0 0 0 127 0" result="hardAlpha"/>
<feOffset dx="2" dy="3"/>
<feComposite in2="hardAlpha" operator="out"/>
<feColorMatrix type="matrix" values="0 0 0 0 0 0 0 0 0 0 0 0 0 0 0 0 0 0 1 0"/>
<feBlend mode="normal" in2="BackgroundImageFix" result="effect1_dropShadow_757_54171"/>
<feBlend mode="normal" in="SourceGraphic" in2="effect1_dropShadow_757_54171" result="shape"/>
</filter>
<clipPath id="clip0_757_54171">
<rect width="349" height="291" fill="white"/>
</clipPath>
<clipPath id="clip1_757_54171">
<rect width="540" height="540" fill="white" transform="translate(-96 -115)"/>
</clipPath>
</defs>
</svg>
